<?xml version="1.0" encoding="utf-8"?>
<!-- Generator: Adobe Illustrator 15.0.0, SVG Export Plug-In . SVG Version: 6.00 Build 0)  -->
<!DOCTYPE svg PUBLIC "-//W3C//DTD SVG 1.1//EN" "http://www.w3.org/Graphics/SVG/1.1/DTD/svg11.dtd">
<svg version="1.1" xmlns="http://www.w3.org/2000/svg" xmlns:xlink="http://www.w3.org/1999/xlink" x="0px" y="0px"
	 width="100%" height="100%" viewBox="0 0 841.89 595.28" enable-background="new 0 0 841.89 595.28" xml:space="preserve">
<g id="bg1">
	<rect x="0" y="-0.497" fill="#E9E883" width="841.89" height="595.688"/>
	<rect x="0" y="410.816" fill="#173434" width="841.89" height="45.361"/>
	<rect x="0" y="456.178" fill="#1F9C8D" width="841.89" height="76.38"/>
	<rect x="0" y="317.426" fill="#F2B1B6" stroke="#F2B1B6" width="841.89" height="93.391"/>
	<rect x="0" y="143.454" fill="#EE8F78" stroke="#EE8F78" width="841.89" height="173.972"/>
	<rect x="0" y="52.163" fill="#F2B1B6" stroke="#F2B1B6" width="841.89" height="91.292"/>
	<rect x="0" y="-0.497" fill="#E9E883" width="841.89" height="52.659"/>
</g>
<g id="bg2">
	<rect x="0" y="-0.497" fill="#E9E883" width="841.89" height="595.688"/>
	<rect x="0" y="456.178" fill="#1F9C8D" width="841.89" height="139.013"/>
	<rect x="1.465" y="355.655" fill="#EE8F78" stroke="#EE8F78" width="840.424" height="67.084"/>
	<rect x="0" y="52.163" fill="#F2B1B6" stroke="#F2B1B6" width="841.89" height="91.292"/>
	<rect x="1.465" y="145.713" fill="#E9E883" width="840.424" height="52.659"/>
	<rect x="0" y="-0.497" fill="#173434" width="841.89" height="52.659"/>
	<rect x="3.838" y="197.509" fill="#F2B1B6" stroke="#F2B1B6" width="838.051" height="93.391"/>
</g>
<g id="bg3">
	<rect x="0" y="-0.497" fill="#E9E883" width="841.89" height="595.688"/>
	<rect x="1.465" y="355.656" fill="#EE8F78" stroke="#EE8F78" width="840.424" height="140.601"/>
	<rect x="0" y="52.163" fill="#F2B1B6" stroke="#F2B1B6" width="841.89" height="91.292"/>
	<rect x="1.465" y="145.713" fill="#E9E883" width="839.556" height="52.659"/>
	<rect x="0" y="247.445" fill="#173434" width="841.89" height="52.659"/>
	<rect y="87.817" fill="#F2B1B6" stroke="#F2B1B6" width="841.89" height="159.902"/>
	<rect x="1.465" fill="#1F9C8D" width="839.556" height="120.702"/>
</g>
<g id="bg4">
	<rect x="0" y="-0.497" fill="#EAE984" width="841.89" height="595.688"/>
	<rect x="3.838" y="472.549" fill="#EE8F78" stroke="#EE8F78" width="838.051" height="86.06"/>
	<rect x="0" y="52.163" fill="#F2B1B6" stroke="#F2B1B6" width="841.89" height="91.292"/>
	<rect x="1.465" y="145.713" fill="#F2B1B6" stroke="#F2B1B6" width="840.424" height="52.659"/>
	<rect x="1.919" y="197.302" fill="#173434" width="839.971" height="185.217"/>
	<rect x="-0.869" y="-0.497" fill="#EAE984" width="841.89" height="143.49"/>
	<rect x="0.755" y="350.946" fill="#1F9C8D" width="841.134" height="60.351"/>
</g>
<g id="bg">
	<rect fill="#E9E883" width="841.89" height="380.334"/>
	<rect y="380.334" fill="#1F9C8D" width="841.89" height="214.946"/>
</g>
<g id="tongue">
	<g>
		<rect x="345.283" y="383.506" fill="#F2B1B6" stroke="#F2B1B6" width="131.836" height="132.073"/>
		<rect x="400.461" y="473.197" fill="#CCDDD7" width="14.88" height="14.881"/>
		<rect x="400.461" y="452.197" fill="#CCDDD7" width="14.88" height="14.881"/>
		<rect x="400.461" y="431.197" fill="#CCDDD7" width="14.88" height="14.881"/>
		<rect x="400.461" y="410.197" fill="#CCDDD7" width="14.88" height="14.881"/>
		<rect x="400.461" y="389.197" fill="#CCDDD7" width="14.88" height="14.881"/>
	</g>
</g>
    <g id="ball3" >
	<g>
		<circle fill="#EE8F78" stroke="#EE8F78" cx="598.161" cy="244.204" r="13.451"/>
		<path fill="#EAE984" d="M597.18,257.616c0,0-10.573-12.248-7.453-23.885c2.357,12.199,17.403,20.496,17.403,20.496
			S602.751,259.279,597.18,257.616z"/>
	</g>
</g>
<g id="ball2" >
	<g>
		<circle fill="#173434" cx="598.161" cy="244.204" r="13.451"/>
		<path fill="#F2B1B6" stroke="#F2B1B6" d="M597.18,257.616c0,0-10.573-12.248-7.453-23.885
			c2.357,12.199,17.403,20.496,17.403,20.496S602.751,259.279,597.18,257.616z"/>
	</g>
</g>
<g id="ball1" >
	<g>
		<circle fill="#F2B1B6" stroke="#F2B1B6" cx="598.163" cy="244.757" r="13.451"/>
		<path fill="#1F9C8D" d="M597.182,258.168c0,0-10.573-12.248-7.453-23.885c2.357,12.199,17.403,20.496,17.403,20.496
			S602.753,259.832,597.182,258.168z"/>
	</g>
</g>
<g id="Rest">
	<path fill="#CCDDD7" d="M329.87,106.986h166.626c0,0,62.157,21.938,102.376,112.824l-4.701,151.998
		c0,0-33.091,79.397-104.035,104.469l-165.49,0.341c0,0-80.438-37.426-97.154-103.242c0.754,2.782,0-159.833,0-159.833
		S250.997,143.026,329.87,106.986z"/>
	<rect x="483.977" y="211.736" fill="#EAE984" width="25.88" height="15.34"/>
	<rect x="275.847" y="408.343" fill="#1F9C8D" width="250.058" height="68.645"/>
	<polygon fill="#EAE984" points="315.253,419.177 308.074,419.174 308.071,426.705 285.304,426.699 285.295,468.55 505.235,468.605 
		505.247,426.755 476.354,426.747 476.36,414.313 315.255,414.275 	"/>
	
		<rect x="492.458" y="435.16" transform="matrix(2.518455e-04 -1 1 2.518455e-04 78.0024 960.9547)" fill="#EE8F78" stroke="#EE8F78" width="54.283" height="12.613"/>
	<polygon fill="#EE8F78" stroke="#EE8F78" points="304.208,476.265 292.995,484.845 292.992,493.775 324.512,493.783 
		324.518,476.271 	"/>
	
		<rect x="332.092" y="481.047" transform="matrix(3.424446e-04 -1 1 3.424446e-04 -144.2995 828.1628)" fill="#173434" width="19.963" height="10.418"/>
	<polygon fill="#EE8F78" stroke="#EE8F78" points="362.688,476.279 362.684,496.241 383.349,496.247 385.98,496.249 
		385.985,476.284 	"/>
	<rect x="399.292" y="476.29" fill="#173434" width="9.279" height="19.964"/>
	
		<rect x="430.197" y="467.805" transform="matrix(2.935688e-04 -1 1 2.935688e-04 -46.2307 926.3152)" fill="#EE8F78" stroke="#EE8F78" width="19.963" height="36.95"/>
	<polygon fill="#173434" points="473.016,476.307 473.011,498.017 519.585,498.03 545.852,474.92 545.857,465.115 525.9,458.455 
		525.896,476.321 	"/>
	<polygon fill="#173434" points="292.997,476.263 292.995,487.471 278.979,487.468 278.976,496.223 262.169,496.218 
		232.055,468.538 232.068,408.298 262.199,378.543 283.208,378.549 283.206,391.156 287.061,391.157 287.055,408.314 
		275.856,408.312 275.837,476.258 	"/>
	<path fill="#1F9C8D" d="M617.021,335.526c0.072-2.727-0.134-5.4-0.559-8.012l1.273-47.885c0.563-2.585,0.911-5.245,0.981-7.971
		c0.691-25.942-22.279-47.6-51.296-48.373c-29.026-0.77-53.11,19.636-53.804,45.576c-0.177,6.581,1.178,12.88,3.757,18.636
		l-0.714,26.819c-2.882,5.615-4.564,11.835-4.739,18.411c-0.691,25.944,22.274,47.601,51.299,48.372
		C592.239,381.872,616.327,361.47,617.021,335.526z"/>
	<polygon fill="#1F9C8D" points="514.106,204.858 631.775,204.858 631.775,317.58 551.823,317.58 551.823,284.193 522.406,284.193 
		522.406,271.986 516.749,271.986 	"/>
	<path fill="#1F9C8D" d="M362.138,319.744c22.562-12.022,38.514-38.212,38.514-38.212v-12.635h-33.993v-58.934l-19.261-0.188
		v102.746h-5.117l-87.851-142.298l-40.314-0.004v103.496l20.157,22.267v18.652h108.31v5.706h19.549L362.138,319.744z"/>
	<path fill="#CCDDD7" d="M255.632,208.73c0,0-27.071,45.729,2.11,104.997h89.656V209.775L255.632,208.73z"/>
	<polygon fill="#EE8F78" stroke="#EE8F78" points="255.632,168.716 487.629,168.716 526.401,211.736 255.632,211.524 	"/>
	<rect x="471.346" y="211.736" fill="#F2B1B6" stroke="#F2B1B6" width="12.631" height="72.21"/>
	<polygon fill="#EE8F78" stroke="#EE8F78" points="483.977,211.736 529.712,211.736 531.816,269.502 493.608,319.744 
		483.977,319.744 	"/>
	<path fill="#CCDDD7" d="M542.648,279.73v40.014l-34.748-1.207l-23.924,30.386h-11.125l-19.257-22.265v-5.408h-1.504l-0.1-51.146
		l-41.419,0.396v17.656l-6.92,0.299v31.29h-41.514c0,0,26.785-16.248,38.514-38.212v-12.635h-33.993v-57.537l104.687,0.375v72.21
		h12.631v35.797h9.632l38.208-51.449l4.812-0.3l-0.296,11.735H542.648z"/>
	<rect x="507.668" y="211.736" fill="#F2B1B6" stroke="#F2B1B6" width="22.044" height="43.618"/>
	<rect x="483.114" y="227.076" fill="#F2B1B6" stroke="#F2B1B6" width="25.88" height="13.537"/>
	<rect x="483.744" y="240.613" fill="#EAE984" width="23.924" height="33.102"/>
	<rect x="483.144" y="273.715" fill="#F2B1B6" width="10.74" height="46.029"/>
	<rect x="493.913" y="273.715" fill="#EAE984" width="21.114" height="17.187"/>
	<path fill="#EE8F78" stroke="#EE8F78" d="M230.325,127.233v43.205h13.064V133.62c0-17.67,13.642-31.994,30.469-31.994h16.466
		c16.829,0,30.47,14.324,30.47,31.994v36.818h11.548v-43.205c0-22.181-17.978-40.159-40.157-40.159h-21.701
		C248.302,87.074,230.325,105.052,230.325,127.233z"/>
	<rect x="223.619" y="154.409" fill="#173434" width="25.114" height="9.084"/>
	<rect x="217.74" y="163.493" fill="#1F9C8D" width="37.406" height="8.55"/>
	<rect x="316.235" y="159.216" fill="#1F9C8D" width="20.24" height="9.086"/>
	<rect x="319.899" y="151.202" fill="#173434" width="12.911" height="8.014"/>
	<rect x="267.971" y="83.068" fill="#CCDDD7" width="20.306" height="23.248"/>
	<rect x="350.266" y="148.261" fill="#EAE984" width="23.595" height="20.455"/>
	<rect x="354.736" y="144.73" fill="#1F9C8D" width="14.318" height="3.529"/>
	<path fill="#1F9C8D" d="M271.178,81.281v2.057h12.29v-1.929c0-15.436,13.283-27.949,29.668-27.949h12.971
		c16.387,0,29.671,12.513,29.671,27.949v39.333h13.276V81.28c0-22.18-17.979-40.158-40.16-40.158h-17.557
		C289.157,41.122,271.178,59.1,271.178,81.281z"/>
    <g id="leftSocket">
	    <path fill="#EAE984" d="M339.874,292.667c0,3.989-3.234,7.22-7.22,7.22h-63.782c-3.986,0-7.218-3.23-7.218-7.22v-63.779
		        c0-3.987,3.232-7.22,7.218-7.22h63.782c3.985,0,7.22,3.232,7.22,7.22V292.667z"/>
	</g>
        <g id="rightSocket">
        <polygon fill="#EAE984" points="529.712,213.244 623.578,213.244 623.578,307.71 559.799,307.71 559.799,279.73 536.332,279.73
		536.332,269.502 529.816,269.502 	"/>
	</g>
            <rect x="-319.332" y="343.672" fill="#CCDDD7" width="1.333" height="1.334"/>
	<rect x="355.778" y="115.5" fill="#1F9C8D" width="13.276" height="30.995"/>
	<rect x="352.401" y="120.206" fill="#F2B1B6" stroke="#F2B1B6" width="21.459" height="24.525"/>
</g>
<g id="yellowButtonPath">
	<path fill="#EE8F78" stroke="#EE8F78" d="M259.162,414.26c-9.542-0.001-17.283,7.737-17.284,17.279
		c0,9.544,7.734,17.283,17.276,17.288l16.69,0.002l0.01-34.564L259.162,414.26z"/>
</g>
<g id="ballsButton">
	<path fill="#F2B1B6" stroke="#F2B1B6" d="M601.073,320h-69.537l-0.001,0.044c-2.001,3.898-3.17,8.217-3.291,12.782
		c-0.479,18.014,15.466,33.05,35.617,33.585c20.148,0.536,36.873-13.629,37.354-31.642c0.05-1.894-0.093-3.75-0.388-5.563
		L601.073,320z"/>
</g>
<g>
    	<path id="ballPath" fill="none" d="M1.548,3.464c0,0,90.067-26.513,182.206,79.569c64.107,73.809,72.979,150.188,87.677,289.811
		c9.639,91.577,17.911,156.497,17.911,156.497"/>
</g>
<g id="nose1">
	<polygon fill="#1F9C8D" points="410.572,270.104 452.091,270.104 452.091,321.25 403.652,321.25 403.652,288.454 410.572,288.155 	
		"/>
	<polygon fill="#EE8F78" stroke="#EE8F78" points="413.054,273.774 448.615,273.774 448.615,317.58 407.127,317.58 407.127,289.491 
		413.054,289.235 	"/>
	<polygon fill="#EAE984" points="415.517,277.415 445.167,277.415 445.167,313.939 410.576,313.939 410.576,290.519 
		415.517,290.306 	"/>
	<polygon fill="#F2B1B6" stroke="#F2B1B6" points="418.017,281.111 441.667,281.111 441.667,310.244 414.076,310.244 
		414.076,291.563 418.017,291.393 	"/>
	<polygon fill="#1F9C8D" points="419.923,283.928 438.999,283.928 438.999,307.427 416.744,307.427 416.744,292.359 
		419.923,292.221 	"/>
	<polygon fill="#EE8F78" stroke="#EE8F78" points="422.304,287.447 435.666,287.447 435.666,303.907 420.077,303.907 
		420.077,293.353 422.304,293.256 	"/>
	<polygon fill="#EAE984" points="423.971,289.911 433.332,289.911 433.332,301.442 422.41,301.442 422.41,294.049 423.971,293.981 	
		"/>
</g>
<g id="nose2">
	<polygon fill="#EE8F78" stroke="#EE8F78" points="410.572,270.104 452.091,270.104 452.091,321.25 403.652,321.25 403.652,288.454 
		410.572,288.155 	"/>
	<polygon fill="#EAE984" points="413.055,273.774 448.615,273.774 448.615,317.58 407.127,317.58 407.127,289.491 413.055,289.235 	
		"/>
	<polygon fill="#F2B1B6" stroke="#F2B1B6" points="415.518,277.415 445.167,277.415 445.167,313.939 410.576,313.939 
		410.576,290.519 415.518,290.306 	"/>
	<polygon fill="#1F9C8D" points="418.018,281.11 441.667,281.11 441.667,310.244 414.076,310.244 414.076,291.563 418.018,291.393 	
		"/>
	<polygon fill="#EE8F78" stroke="#EE8F78" points="419.923,283.928 438.999,283.928 438.999,307.427 416.744,307.427 
		416.744,292.358 419.923,292.222 	"/>
	<polygon fill="#EAE984" points="422.304,287.446 435.666,287.446 435.666,303.907 420.076,303.907 420.076,293.353 
		422.304,293.257 	"/>
	<polygon fill="#F2B1B6" stroke="#F2B1B6" points="423.971,289.911 433.332,289.911 433.332,301.442 422.41,301.442 422.41,294.049 
		423.971,293.981 	"/>
</g>
<g id="nose3">
	<polygon fill="#EAE984" points="410.572,270.104 452.091,270.104 452.091,321.25 403.652,321.25 403.652,288.454 410.572,288.155 	
		"/>
	<polygon fill="#F2B1B6" stroke="#F2B1B6" points="413.055,273.774 448.615,273.774 448.615,317.58 407.127,317.58 407.127,289.491 
		413.055,289.235 	"/>
	<polygon fill="#1F9C8D" points="415.518,277.415 445.167,277.415 445.167,313.939 410.576,313.939 410.576,290.519 
		415.518,290.306 	"/>
	<polygon fill="#EE8F78" stroke="#EE8F78" points="418.018,281.11 441.667,281.11 441.667,310.244 414.076,310.244 414.076,291.563 
		418.018,291.393 	"/>
	<polygon fill="#EAE984" points="419.923,283.928 438.999,283.928 438.999,307.427 416.744,307.427 416.744,292.358 
		419.923,292.222 	"/>
	<polygon fill="#F2B1B6" stroke="#F2B1B6" points="422.304,287.446 435.666,287.446 435.666,303.907 420.076,303.907 
		420.076,293.353 422.304,293.257 	"/>
	<polygon fill="#1F9C8D" points="423.971,289.911 433.332,289.911 433.332,301.442 422.41,301.442 422.41,294.049 423.971,293.981 	
		"/>
</g>
<g id="nose4">
	<polygon fill="#F2B1B6" stroke="#F2B1B6" points="410.572,270.104 452.091,270.104 452.091,321.25 403.652,321.25 403.652,288.454 
		410.572,288.155 	"/>
	<polygon fill="#1F9C8D" points="413.055,273.774 448.615,273.774 448.615,317.58 407.127,317.58 407.127,289.491 413.055,289.235 	
		"/>
	<polygon fill="#EE8F78" stroke="#EE8F78" points="415.518,277.415 445.167,277.415 445.167,313.939 410.576,313.939 
		410.576,290.519 415.518,290.306 	"/>
	<polygon fill="#EAE984" points="418.018,281.11 441.667,281.11 441.667,310.244 414.076,310.244 414.076,291.563 418.018,291.393 	
		"/>
	<polygon fill="#F2B1B6" stroke="#F2B1B6" points="419.923,283.928 438.999,283.928 438.999,307.427 416.744,307.427 
		416.744,292.358 419.923,292.222 	"/>
	<polygon fill="#1F9C8D" points="422.304,287.446 435.666,287.446 435.666,303.907 420.076,303.907 420.076,293.353 
		422.304,293.257 	"/>
	<polygon fill="#EE8F78" stroke="#EE8F78" points="423.971,289.911 433.332,289.911 433.332,301.442 422.41,301.442 422.41,294.049 
		423.971,293.981 	"/>
</g>
<g id="nose5">
	<polygon fill="#1F9C8D" points="410.572,270.104 452.091,270.104 452.091,321.25 403.652,321.25 403.652,288.454 410.572,288.155 	
		"/>
	<polygon fill="#EE8F78" stroke="#EE8F78" points="413.055,273.774 448.615,273.774 448.615,317.58 407.127,317.58 407.127,289.491 
		413.055,289.235 	"/>
	<polygon fill="#EAE984" points="415.518,277.415 445.167,277.415 445.167,313.939 410.576,313.939 410.576,290.519 
		415.518,290.306 	"/>
	<polygon fill="#F2B1B6" stroke="#F2B1B6" points="418.018,281.11 441.667,281.11 441.667,310.244 414.076,310.244 414.076,291.563 
		418.018,291.393 	"/>
	<polygon fill="#1F9C8D" points="419.923,283.928 438.999,283.928 438.999,307.427 416.744,307.427 416.744,292.358 
		419.923,292.222 	"/>
	<polygon fill="#EE8F78" stroke="#EE8F78" points="422.304,287.446 435.666,287.446 435.666,303.907 420.076,303.907 
		420.076,293.353 422.304,293.257 	"/>
	<polygon fill="#EAE984" points="423.971,289.911 433.332,289.911 433.332,301.442 422.41,301.442 422.41,294.049 423.971,293.981 	
		"/>
</g>
<g id="nose">
	<polygon fill="#EE8F78" stroke="#EE8F78" points="410.572,270.104 452.091,270.104 452.091,321.25 403.652,321.25 403.652,288.454 
		410.572,288.155 	"/>
</g>
    <g id="eyeballLeftClosed">
	<path fill="#173434" d="M316.986,249.546c0,0.637-3.216,1.152-7.182,1.152h-14.667c-3.967,0-7.182-0.516-7.182-1.152v-2.016
		c0-0.637,3.215-1.154,7.182-1.154h14.667c3.966,0,7.182,0.518,7.182,1.154V249.546z"/>
</g>
<g id="eyeballRightClosed">
	<path fill="#173434" d="M615.25,236.804c0,0.486-1.607,0.881-3.59,0.881h-7.334c-1.982,0-3.59-0.395-3.59-0.881v-1.539
		c0-0.486,1.607-0.879,3.59-0.879h7.334c1.982,0,3.59,0.393,3.59,0.879V236.804z"/>
	<path fill="#173434" d="M586.52,237.14c0,0.486-1.607,0.881-3.59,0.881h-7.333c-1.983,0-3.591-0.395-3.591-0.881v-1.539
		c0-0.486,1.607-0.879,3.591-0.879h7.333c1.982,0,3.59,0.393,3.59,0.879V237.14z"/>
	<path fill="#173434" d="M615.83,265.105c0,0.486-1.608,0.881-3.591,0.881h-7.334c-1.982,0-3.591-0.395-3.591-0.881v-1.539
		c0-0.486,1.608-0.881,3.591-0.881h7.334c1.982,0,3.591,0.395,3.591,0.881V265.105z"/>
	<path fill="#173434" d="M587.101,265.443c0,0.484-1.608,0.879-3.593,0.879h-7.332c-1.983,0-3.591-0.395-3.591-0.879v-1.541
		c0-0.486,1.607-0.881,3.591-0.881h7.332c1.984,0,3.593,0.395,3.593,0.881V265.443z"/>
</g>
<g id="eyeballLeftOpen" >
	<path fill="#173434" d="M317.009,255.962c0,3.988-3.233,7.221-7.22,7.221h-14.743c-3.987,0-7.219-3.233-7.219-7.221v-12.635
		c0-3.987,3.232-7.221,7.219-7.221h14.743c3.987,0,7.22,3.234,7.22,7.221V255.962z"/>
</g>
<g id="eyeballRightOpen">
	<path fill="#173434" d="M617.56,237.613c0,3.986-3.231,7.22-7.218,7.22h-3.613c-3.985,0-7.218-3.234-7.218-7.22v-0.302
		c0-3.986,3.232-7.219,7.218-7.219h3.613c3.986,0,7.218,3.233,7.218,7.219V237.613z"/>
	<path fill="#173434" d="M588.68,237.613c0,3.986-3.234,7.22-7.223,7.22h-3.61c-3.988,0-7.219-3.234-7.219-7.22v-0.302
		c0-3.986,3.23-7.219,7.219-7.219h3.61c3.988,0,7.223,3.233,7.223,7.219V237.613z"/>
	<path fill="#173434" d="M617.56,263.333c0,3.988-3.232,7.221-7.221,7.221h-3.61c-3.989,0-7.218-3.233-7.218-7.221v-0.301
		c0-3.988,3.229-7.22,7.218-7.22h3.61c3.988,0,7.221,3.231,7.221,7.22V263.333z"/>
	<path fill="#173434" d="M588.68,263.347c0,3.987-3.232,7.221-7.219,7.221h-3.614c-3.986,0-7.219-3.234-7.219-7.221v-0.301
		c0-3.987,3.232-7.22,7.219-7.22h3.614c3.986,0,7.219,3.232,7.219,7.22V263.347z"/>
</g>
<g id="yellowButton">
	<path fill="#EAE984" d="M256.862,404.459c4.875,0.001,8.827,3.955,8.826,8.831l0,0c0,4.875-3.954,8.828-8.83,8.825h-3.341
		c-4.875,0-8.829-3.955-8.828-8.83l0,0c0.002-4.877,3.956-8.828,8.833-8.826H256.862z"/>
</g>
<g id="key1">
	
		<rect x="309.942" y="419.617" transform="matrix(2.748529e-04 -1 1 2.748529e-04 -104.4579 749.0045)" fill="#EE8F78" width="24.869" height="14.257"/>
</g>
<g id="key2">
	
		<rect x="323.392" y="419.255" transform="matrix(2.159635e-04 -1 1 2.159635e-04 -90.9395 762.4266)" fill="#5AA17B" width="24.868" height="14.875"/>
</g>
<g id="key3">
	
		<rect x="338.272" y="419.255" transform="matrix(2.159635e-04 -1 1 2.159635e-04 -76.0621 777.3073)" fill="#173434" width="24.868" height="14.875"/>
</g>
<g id="key4">
	
		<rect x="353.153" y="419.255" transform="matrix(2.159635e-04 -1 1 2.159635e-04 -61.1844 792.1881)" fill="#CCDDD7" width="24.868" height="14.875"/>
</g>
<g id="key5">
	
		<rect x="367.876" y="419.255" transform="matrix(2.356331e-04 -1 1 2.356331e-04 -46.4719 806.9028)" fill="#F2B1B6" width="24.868" height="14.875"/>
</g>
<g id="key6">
	
		<rect x="382.837" y="419.255" transform="matrix(2.159635e-04 -1 1 2.159635e-04 -31.5072 821.8717)" fill="#EE8F78" width="24.868" height="14.875"/>
</g>
<g id="key7">
	<rect x="402.465" y="414.26" fill="#173434" width="14.875" height="25.042"/>
</g>
<g id="key8">
	
		<rect x="412.349" y="419.255" transform="matrix(2.356331e-04 -1 1 2.356331e-04 -2.0098 851.3755)" fill="#CCDDD7" width="24.868" height="14.875"/>
</g>
<g id="key9">
	
		<rect x="427.033" y="419.283" transform="matrix(2.351562e-04 -1 1 2.351562e-04 12.6706 866.114)" fill="#173434" width="24.922" height="14.875"/>
</g>
<g id="key10">
	
		<rect x="441.769" y="419.255" transform="matrix(2.356331e-04 -1 1 2.356331e-04 27.4032 880.7954)" fill="#EAE984" width="24.868" height="14.875"/>
</g>
<g id="key11">
	
		<rect x="456.477" y="419.307" transform="matrix(2.356331e-04 -1 1 2.356331e-04 42.056 895.5552)" fill="#CCDDD7" width="24.868" height="14.875"/>
</g>
<g id="part1">
	<polygon fill="#EAE984" points="287.055,408.314 287.062,387.656 298.27,387.657 298.273,378.553 329.097,378.56 329.094,393.44 
		334.345,393.442 334.342,408.324 	"/>
</g>
<g id="part2">
	<polygon fill="#EE8F78" points="334.342,408.324 334.348,389.067 340.997,389.072 340.999,380.314 348.707,380.315 
		348.702,391.871 355.012,391.874 355.006,408.331 	"/>
</g>
<g id="part3">
	<polygon fill="#EAE984" points="355.006,408.331 355.012,391.874 364.467,391.877 364.47,378.571 387.935,378.574 387.929,393.456 
		390.734,393.456 390.729,408.339 	"/>
</g>
<g id="part4">
	<polygon fill="#EE8F78" points="390.729,408.339 390.734,393.456 400.888,393.458 400.892,378.577 408.599,378.58 408.595,393.461 
		417.349,393.462 417.343,408.346 	"/>
</g>
<g id="part5">
	<polygon fill="#EAE984" points="417.343,408.346 417.349,393.462 423.649,393.465 423.652,380.334 464.278,380.343 
		464.273,396.102 477.932,396.105 477.936,383.85 517.16,383.858 540.974,401.725 540.97,414.328 525.908,432.193 525.913,408.372 	
		"/>
</g>
<g id="pinWill">
	<path fill="#F2B1B6" stroke="#F2B1B6" d="M557.593,406.971c19.434,0.004,35.188,15.765,35.182,35.197
		c-0.002,19.439-15.766,35.19-35.2,35.184c-19.436-0.003-35.187-15.762-35.182-35.2
		C522.396,422.715,538.155,406.965,557.593,406.971z"/>
	<path fill="#5AA17B" d="M557.585,434.314c4.157,0,7.525,3.37,7.523,7.523c0,4.158-3.371,7.527-7.526,7.524
		c-4.153-0.001-7.524-3.369-7.523-7.525C550.059,437.682,553.432,434.313,557.585,434.314z"/>
	<polygon fill="#5AA17B" points="565.108,441.838 557.584,405.99 550.059,441.837 	"/>
</g>
<g id="mouthThin">
	<path fill="#173434" d="M489.137,439.183c5.8,0.001,10.504,4.708,10.503,10.511l-0.002,2.803c0,5.803-4.707,10.504-10.509,10.502
		l-183.867-0.046c-5.805-0.001-10.507-4.703-10.504-10.51v-2.8c0.001-5.803,4.706-10.505,10.51-10.505L489.137,439.183z"/>
	<path fill="#EAE984" d="M487.732,445.138c3.675,0,6.654,2.981,6.652,6.656l0,0c0,3.674-2.982,6.651-6.656,6.651l-176.862-0.043
		c-3.675-0.003-6.654-2.982-6.652-6.656l0,0c0-3.675,2.98-6.654,6.655-6.654L487.732,445.138z"/>
	<rect x="310.867" y="448.947" fill="#1F9C8D" width="8.754" height="9.456"/>
	<rect x="326.975" y="448.949" fill="#EE8F78" width="4.204" height="9.455"/>
	<rect x="334.331" y="448.951" fill="#1F9C8D" width="8.058" height="9.457"/>
	<rect x="347.291" y="448.957" fill="#EE8F78" width="7.705" height="9.453"/>
	<rect x="358.149" y="448.957" fill="#1F9C8D" width="6.303" height="9.455"/>
	<rect x="370.055" y="448.962" fill="#EE8F78" width="6.654" height="9.454"/>
	<rect x="381.262" y="448.961" fill="#1F9C8D" width="9.456" height="9.458"/>
	<rect x="394.571" y="448.966" fill="#EE8F78" width="7.354" height="9.457"/>
	<rect x="405.077" y="448.969" fill="#1F9C8D" width="7.002" height="9.457"/>
	<rect x="418.036" y="448.972" fill="#EE8F78" width="7.355" height="9.457"/>
	<rect x="429.592" y="448.974" fill="#1F9C8D" width="5.604" height="9.457"/>
	<rect x="439.049" y="448.975" fill="#EE8F78" width="8.055" height="9.459"/>
	<rect x="453.056" y="448.982" fill="#1F9C8D" width="5.604" height="9.454"/>
	<rect x="462.864" y="448.982" fill="#EE8F78" width="7.703" height="9.457"/>
	<rect x="473.02" y="448.986" fill="#1F9C8D" width="6.658" height="9.456"/>
</g>
<g id="mouthWide" style="visibility: hidden;">
	<g>
		<path fill="#173434" d="M492.735,429.279c6.001,0.004,10.871,8.897,10.868,19.868l-0.003,5.3
			c0.002,10.969-4.874,19.857-10.878,19.855l-190.307-0.043c-6.01-0.004-10.874-8.895-10.874-19.869l0-5.294
			c0.006-10.973,4.876-19.86,10.88-19.862L492.735,429.279z"/>
		<path fill="#EAE984" d="M486.883,433.59c5.608,0.004,10.155,7.15,10.16,15.969l0.002,4.258
			c-0.002,8.818-4.564,15.963-10.169,15.962l-177.866-0.044c-5.617-0.001-10.156-7.148-10.162-15.971l0.004-4.254
			c0.001-8.818,4.55-15.963,10.166-15.964L486.883,433.59z"/>
		<rect x="310.518" y="460.283" fill="#1F9C8D" width="8.754" height="9.456"/>
		<rect x="326.626" y="460.285" fill="#EE8F78" width="4.204" height="9.455"/>
		<rect x="333.981" y="460.287" fill="#1F9C8D" width="8.059" height="9.457"/>
		<rect x="346.942" y="460.293" fill="#EE8F78" width="7.705" height="9.453"/>
		<rect x="357.799" y="460.293" fill="#1F9C8D" width="6.304" height="9.455"/>
		<rect x="369.707" y="460.298" fill="#EE8F78" width="6.654" height="9.454"/>
		<rect x="380.914" y="460.297" fill="#1F9C8D" width="9.455" height="9.458"/>
		<rect x="394.222" y="460.302" fill="#EE8F78" width="7.354" height="9.457"/>
		<rect x="404.729" y="460.305" fill="#1F9C8D" width="7.003" height="9.457"/>
		<rect x="417.687" y="460.308" fill="#EE8F78" width="7.355" height="9.457"/>
		<rect x="429.243" y="460.31" fill="#1F9C8D" width="5.604" height="9.457"/>
		<rect x="438.701" y="460.311" fill="#EE8F78" width="8.055" height="9.459"/>
		<rect x="452.708" y="460.318" fill="#1F9C8D" width="5.604" height="9.454"/>
		<rect x="462.516" y="460.318" fill="#EE8F78" width="7.703" height="9.457"/>
		<rect x="472.671" y="460.322" fill="#1F9C8D" width="6.658" height="9.456"/>
	</g>
</g>
    <animate id="leftBlink" attributeName="display" attributeType="CSS" from="none" to="block"
           begin="indefinite" dur="indefinite" fill="freeze" xlink:href="#eyeballLeftOpen" />

    <animate id="rightBlink" attributeName="display" attributeType="CSS" from="none" to="block"
           begin="indefinite" dur="indefinite" fill="freeze" xlink:href="#eyeballRightOpen" />

    <animateMotion id="tongueAnimation" path="M 0 0 L 0 90 z" begin="indefinite" dur="indefinite" fill="freeze" xlink:href="#tongue" />
    <animateMotion id="ballFlyAnimation" begin="indefinite" dur="indefinite" fill="freeze" xlink:href="#ball1" >
        <mpath xlink:href="#ballPath"/>
    </animateMotion>

</svg>
