<?xml version="1.0" encoding="utf-8"?>
<!-- Generator: Adobe Illustrator 15.0.0, SVG Export Plug-In . SVG Version: 6.00 Build 0)  -->
<!DOCTYPE svg PUBLIC "-//W3C//DTD SVG 1.1//EN" "http://www.w3.org/Graphics/SVG/1.1/DTD/svg11.dtd">
<svg version="1.1" xmlns="http://www.w3.org/2000/svg"  x="0px" y="0px" width="1366px"
	 height="763px" viewBox="0 0 1366 763" enable-background="new 0 0 1366 768" xml:space="preserve">
<g id="bg">
	<rect y="-0.692" fill="#F2B1B6" width="1366" height="768.287"/>
	<rect x="139.267" y="-0.692" fill="#F2B1B6" width="1087.467" height="768.692"/>
	<text transform="matrix(1 0 0 1 611.6387 422.7432)"><tspan x="0" y="0" font-family="'WinSoftPro-Medium'" font-size="10.9509">h</tspan><tspan x="4.213" y="0" font-family="'WinSoftPro-Medium'" font-size="10.9509">t</tspan><tspan x="6.695" y="0" font-family="'WinSoftPro-Medium'" font-size="10.9509">t</tspan><tspan x="9.176" y="0" font-family="'WinSoftPro-Medium'" font-size="10.9509">p</tspan><tspan x="13.678" y="0" font-family="'WinSoftPro-Medium'" font-size="10.9509">:</tspan><tspan x="15.625" y="0" font-family="'WinSoftPro-Medium'" font-size="10.9509">/</tspan><tspan x="18.004" y="0" font-family="'WinSoftPro-Medium'" font-size="10.9509">/</tspan><tspan x="20.383" y="0" font-family="'WinSoftPro-Medium'" font-size="10.9509">w</tspan><tspan x="26.688" y="0" font-family="'WinSoftPro-Medium'" font-size="10.9509">w</tspan><tspan x="32.992" y="0" font-family="'WinSoftPro-Medium'" font-size="10.9509">w</tspan><tspan x="39.296" y="0" font-family="'WinSoftPro-Medium'" font-size="10.9509">.</tspan><tspan x="41.21" y="0" font-family="'WinSoftPro-Medium'" font-size="10.9509">d</tspan><tspan x="45.745" y="0" font-family="'WinSoftPro-Medium'" font-size="10.9509">u</tspan><tspan x="50.364" y="0" font-family="'WinSoftPro-Medium'" font-size="10.9509">m</tspan><tspan x="57.075" y="0" font-family="'WinSoftPro-Medium'" font-size="10.9509">b</tspan><tspan x="61.588" y="0" font-family="'WinSoftPro-Medium'" font-size="10.9509">e</tspan><tspan x="66.17" y="0" font-family="'WinSoftPro-Medium'" font-size="10.9509">y</tspan><tspan x="70.454" y="0" font-family="'WinSoftPro-Medium'" font-size="10.9509">e</tspan><tspan x="75.036" y="0" font-family="'WinSoftPro-Medium'" font-size="10.9509">s</tspan><tspan x="79.255" y="0" font-family="'WinSoftPro-Medium'" font-size="10.9509">.</tspan><tspan x="81.169" y="0" font-family="'WinSoftPro-Medium'" font-size="10.9509">c</tspan><tspan x="85.522" y="0" font-family="'WinSoftPro-Medium'" font-size="10.9509">o</tspan><tspan x="90.19" y="0" font-family="'WinSoftPro-Medium'" font-size="10.9509">m</tspan><tspan x="96.9" y="0" font-family="'WinSoftPro-Medium'" font-size="10.9509">/</tspan><tspan x="99.279" y="0" font-family="'WinSoftPro-Medium'" font-size="10.9509">m</tspan><tspan x="105.99" y="0" font-family="'WinSoftPro-Medium'" font-size="10.9509">u</tspan><tspan x="110.61" y="0" font-family="'WinSoftPro-Medium'" font-size="10.9509">s</tspan><tspan x="114.829" y="0" font-family="'WinSoftPro-Medium'" font-size="10.9509">i</tspan><tspan x="116.968" y="0" font-family="'WinSoftPro-Medium'" font-size="10.9509">c</tspan><tspan x="121.32" y="0" font-family="'WinSoftPro-Medium'" font-size="10.9509">/</tspan></text>
</g>
<g id="bgPump1" display="none">
	<rect y="-0.692" display="inline" opacity="0.49" fill="#CCDDD7" width="1366" height="768.692"/>
</g>
<g id="bgPump2" display="none">
	<rect y="-0.692" display="inline" opacity="0.5" fill="#EAE984" width="1366" height="768.692"/>
</g>
<g id="bgPump3" display="none">
	<rect y="-0.692" display="inline" opacity="0.5" fill="#EE8F78" width="1366" height="768.692"/>
</g>
<g id="bgPump4" display="none">
	<rect y="-0.692" display="inline" opacity="0.5" fill="#173434" width="1366" height="768.692"/>
</g>
<g id="bgStripes1" display="none">
	<rect y="-0.692" display="inline" fill="#5AA17B" width="1364.98" height="87.003"/>
	<rect y="86.311" display="inline" fill="#F2B1B6" width="1366" height="163.772"/>
	<rect y="250.083" display="inline" fill="#173434" width="1366" height="74.917"/>
	<rect y="325" display="inline" fill="#EAE984" width="1366" height="167.404"/>
	<rect y="492.404" display="inline" fill="#EE8F78" width="1366" height="194.303"/>
	<rect y="686.707" display="inline" fill="#EAE984" width="1364.98" height="81.293"/>
</g>
<g id="bgStripes2" display="none">
	<rect y="-0.692" display="inline" fill="#EAE984" width="1364.98" height="87.003"/>
	<rect y="86.311" display="inline" fill="#F2B1B6" width="1366" height="163.772"/>
	<rect y="250.083" display="inline" fill="#CCDDD7" width="1366" height="74.917"/>
	<rect y="325" display="inline" fill="#EAE984" width="1366" height="167.404"/>
	<rect y="492.404" display="inline" fill="#5AA17B" width="1366" height="194.303"/>
	<rect y="686.707" display="inline" fill="#EE8F78" width="1364.98" height="81.293"/>
</g>
<g id="bgStripes3" display="none">
	<rect display="inline" fill="#F2B1B6" width="1364.98" height="86.311"/>
	<rect y="86.311" display="inline" fill="#5AA17B" width="1366" height="163.772"/>
	<rect y="250.083" display="inline" fill="#CCDDD7" width="1366" height="74.917"/>
	<rect y="325" display="inline" fill="#EE8F78" width="1366" height="167.404"/>
	<rect y="492.404" display="inline" fill="#EAE984" width="1366" height="194.303"/>
	<rect y="686.707" display="inline" fill="#1F9C8D" width="1364.98" height="81.293"/>
</g>
<g id="bgStripes4" display="none">
	<rect y="-0.692" display="inline" fill="#EE8F78" width="1364.98" height="87.003"/>
	<rect y="86.311" display="inline" fill="#5AA17B" width="1366" height="163.772"/>
	<rect y="250.083" display="inline" fill="#F2B1B6" width="1366" height="74.917"/>
	<rect y="325" display="inline" fill="#EAE984" width="1366" height="167.404"/>
	<rect y="492.404" display="inline" fill="#EE8F78" width="1366" height="194.303"/>
	<rect y="686.707" display="inline" fill="#CCDDD7" width="1364.98" height="81.293"/>
</g>
<g id="bgCoop3" display="none">
	<circle display="inline" fill="#173434" cx="1336.56" cy="120.251" r="26"/>
	<circle display="inline" fill="#173434" cx="1336.56" cy="225.542" r="26"/>
	<circle display="inline" fill="#173434" cx="1336.56" cy="330.834" r="26"/>
	<circle display="inline" fill="#173434" cx="1336.56" cy="436.127" r="26"/>
	<circle display="inline" fill="#173434" cx="1336.56" cy="541.418" r="26"/>
	<circle display="inline" fill="#173434" cx="1336.56" cy="646.709" r="26"/>
	<circle display="inline" fill="#173434" cx="1336.56" cy="752" r="26"/>
	<circle display="inline" fill="#173434" cx="1217.657" cy="120.251" r="26"/>
	<circle display="inline" fill="#173434" cx="1217.657" cy="225.543" r="26"/>
	<circle display="inline" fill="#173434" cx="1217.657" cy="330.834" r="26"/>
	<circle display="inline" fill="#173434" cx="1217.657" cy="436.127" r="26"/>
	<circle display="inline" fill="#173434" cx="1217.657" cy="541.418" r="26"/>
	<circle display="inline" fill="#173434" cx="1217.657" cy="646.709" r="26"/>
	<circle display="inline" fill="#173434" cx="1217.657" cy="752" r="26"/>
	<circle display="inline" fill="#173434" cx="144.902" cy="117.282" r="26"/>
	<circle display="inline" fill="#173434" cx="144.902" cy="222.573" r="26"/>
	<circle display="inline" fill="#173434" cx="144.902" cy="327.865" r="26"/>
	<circle display="inline" fill="#173434" cx="144.902" cy="433.157" r="26"/>
	<circle display="inline" fill="#173434" cx="144.902" cy="538.448" r="26"/>
	<circle display="inline" fill="#173434" cx="144.902" cy="643.739" r="26"/>
	<circle display="inline" fill="#173434" cx="144.902" cy="749.03" r="26"/>
	<circle display="inline" fill="#173434" cx="26" cy="117.282" r="26"/>
	<circle display="inline" fill="#173434" cx="26" cy="222.574" r="26"/>
	<circle display="inline" fill="#173434" cx="26" cy="327.865" r="26"/>
	<circle display="inline" fill="#173434" cx="26" cy="433.157" r="26"/>
	<circle display="inline" fill="#173434" cx="26" cy="538.448" r="26"/>
	<circle display="inline" fill="#173434" cx="26" cy="643.739" r="26"/>
	<circle display="inline" fill="#173434" cx="26" cy="749.03" r="26"/>
	<circle display="inline" fill="#173434" cx="1098.755" cy="120.252" r="26"/>
	<circle display="inline" fill="#173434" cx="1098.755" cy="225.544" r="26"/>
	<circle display="inline" fill="#173434" cx="1098.755" cy="330.835" r="26"/>
	<circle display="inline" fill="#173434" cx="1098.755" cy="436.127" r="26"/>
	<circle display="inline" fill="#173434" cx="1098.755" cy="541.418" r="26"/>
	<circle display="inline" fill="#173434" cx="1098.755" cy="646.709" r="26"/>
	<circle display="inline" fill="#173434" cx="1098.755" cy="752" r="26"/>
	<circle display="inline" fill="#173434" cx="979.853" cy="120.253" r="26"/>
	<circle display="inline" fill="#173434" cx="979.853" cy="225.544" r="26"/>
	<circle display="inline" fill="#173434" cx="979.853" cy="330.836" r="26"/>
	<circle display="inline" fill="#173434" cx="979.853" cy="436.127" r="26"/>
	<circle display="inline" fill="#173434" cx="979.853" cy="541.418" r="26"/>
	<circle display="inline" fill="#173434" cx="979.853" cy="646.709" r="26"/>
	<circle display="inline" fill="#173434" cx="979.853" cy="752" r="26"/>
	<circle display="inline" fill="#173434" cx="860.95" cy="120.253" r="26"/>
	<circle display="inline" fill="#173434" cx="860.95" cy="225.544" r="26"/>
	<circle display="inline" fill="#173434" cx="860.95" cy="330.836" r="26"/>
	<circle display="inline" fill="#173434" cx="860.95" cy="436.127" r="26"/>
	<circle display="inline" fill="#173434" cx="860.95" cy="541.418" r="26"/>
	<circle display="inline" fill="#173434" cx="860.95" cy="646.709" r="26"/>
	<circle display="inline" fill="#173434" cx="860.95" cy="752" r="26"/>
	<circle display="inline" fill="#173434" cx="742.048" cy="120.253" r="26"/>
	<circle display="inline" fill="#173434" cx="742.048" cy="225.545" r="26"/>
	<circle display="inline" fill="#173434" cx="742.048" cy="330.836" r="26"/>
	<circle display="inline" fill="#173434" cx="742.048" cy="436.127" r="26"/>
	<circle display="inline" fill="#173434" cx="742.048" cy="541.418" r="26"/>
	<circle display="inline" fill="#173434" cx="742.048" cy="646.709" r="26"/>
	<circle display="inline" fill="#173434" cx="742.048" cy="752" r="26"/>
	<circle display="inline" fill="#173434" cx="623.146" cy="120.254" r="26"/>
	<circle display="inline" fill="#173434" cx="623.146" cy="225.546" r="26"/>
	<circle display="inline" fill="#173434" cx="623.146" cy="330.837" r="26"/>
	<circle display="inline" fill="#173434" cx="623.146" cy="436.127" r="26"/>
	<circle display="inline" fill="#173434" cx="623.146" cy="541.418" r="26"/>
	<circle display="inline" fill="#173434" cx="623.146" cy="646.709" r="26"/>
	<circle display="inline" fill="#173434" cx="623.146" cy="752" r="26"/>
	<circle display="inline" fill="#173434" cx="504.244" cy="120.255" r="26"/>
	<circle display="inline" fill="#173434" cx="504.244" cy="225.546" r="26"/>
	<circle display="inline" fill="#173434" cx="504.244" cy="330.838" r="26"/>
	<circle display="inline" fill="#173434" cx="504.244" cy="436.127" r="26"/>
	<circle display="inline" fill="#173434" cx="504.244" cy="541.418" r="26"/>
	<circle display="inline" fill="#173434" cx="504.244" cy="646.709" r="26"/>
	<circle display="inline" fill="#173434" cx="504.244" cy="752" r="26"/>
	<circle display="inline" fill="#173434" cx="385.341" cy="120.255" r="26"/>
	<circle display="inline" fill="#173434" cx="385.341" cy="225.546" r="26"/>
	<circle display="inline" fill="#173434" cx="385.341" cy="330.838" r="26"/>
	<circle display="inline" fill="#173434" cx="385.341" cy="436.127" r="26"/>
	<circle display="inline" fill="#173434" cx="385.341" cy="541.418" r="26"/>
	<circle display="inline" fill="#173434" cx="385.341" cy="646.709" r="26"/>
	<circle display="inline" fill="#173434" cx="385.341" cy="752" r="26"/>
	<circle display="inline" fill="#173434" cx="266.439" cy="120.255" r="26"/>
	<circle display="inline" fill="#173434" cx="266.439" cy="225.547" r="26"/>
	<circle display="inline" fill="#173434" cx="266.439" cy="330.838" r="26"/>
	<circle display="inline" fill="#173434" cx="266.439" cy="436.127" r="26"/>
	<circle display="inline" fill="#173434" cx="266.439" cy="541.418" r="26"/>
	<circle display="inline" fill="#173434" cx="266.439" cy="646.709" r="26"/>
	<circle display="inline" fill="#173434" cx="266.439" cy="752" r="26"/>
	<circle display="inline" fill="#173434" cx="1336.56" cy="12.97" r="26"/>
	<circle display="inline" fill="#173434" cx="1217.657" cy="12.97" r="26"/>
	<circle display="inline" fill="#173434" cx="144.902" cy="10" r="26"/>
	<circle display="inline" fill="#173434" cx="26" cy="10" r="26"/>
	<circle display="inline" fill="#173434" cx="1098.755" cy="12.97" r="26"/>
	<circle display="inline" fill="#173434" cx="979.853" cy="12.97" r="26"/>
	<circle display="inline" fill="#173434" cx="860.95" cy="12.97" r="26"/>
	<circle display="inline" fill="#173434" cx="742.048" cy="12.97" r="26"/>
	<circle display="inline" fill="#173434" cx="623.146" cy="12.97" r="26"/>
	<circle display="inline" fill="#173434" cx="504.244" cy="12.97" r="26"/>
	<circle display="inline" fill="#173434" cx="385.341" cy="12.97" r="26"/>
	<circle display="inline" fill="#173434" cx="266.439" cy="12.97" r="26"/>
</g>
<g id="bgCoop2" display="none">
	<circle display="inline" fill="#EAE984" cx="1336.56" cy="120.251" r="16"/>
	<circle display="inline" fill="#EAE984" cx="1336.56" cy="225.542" r="16"/>
	<circle display="inline" fill="#EAE984" cx="1336.56" cy="330.834" r="16"/>
	<circle display="inline" fill="#EAE984" cx="1336.56" cy="436.127" r="16"/>
	<circle display="inline" fill="#EAE984" cx="1336.56" cy="541.418" r="16"/>
	<circle display="inline" fill="#EAE984" cx="1336.56" cy="646.709" r="16"/>
	<circle display="inline" fill="#EAE984" cx="1336.56" cy="752" r="16"/>
	<circle display="inline" fill="#EAE984" cx="1217.657" cy="120.251" r="16"/>
	<circle display="inline" fill="#EAE984" cx="1217.657" cy="225.543" r="16"/>
	<circle display="inline" fill="#EAE984" cx="1217.657" cy="330.834" r="16"/>
	<circle display="inline" fill="#EAE984" cx="1217.657" cy="436.127" r="16"/>
	<circle display="inline" fill="#EAE984" cx="1217.657" cy="541.418" r="16"/>
	<circle display="inline" fill="#EAE984" cx="1217.657" cy="646.709" r="16"/>
	<circle display="inline" fill="#EAE984" cx="1217.657" cy="752" r="16"/>
	<circle display="inline" fill="#EAE984" cx="144.902" cy="117.282" r="16"/>
	<circle display="inline" fill="#EAE984" cx="144.902" cy="222.573" r="16"/>
	<circle display="inline" fill="#EAE984" cx="144.902" cy="327.865" r="16"/>
	<circle display="inline" fill="#EAE984" cx="144.902" cy="433.157" r="16"/>
	<circle display="inline" fill="#EAE984" cx="144.902" cy="538.448" r="16"/>
	<circle display="inline" fill="#EAE984" cx="144.902" cy="643.739" r="16"/>
	<circle display="inline" fill="#EAE984" cx="144.902" cy="749.03" r="16"/>
	<circle display="inline" fill="#EAE984" cx="26" cy="117.282" r="16"/>
	<circle display="inline" fill="#EAE984" cx="26" cy="222.574" r="16"/>
	<circle display="inline" fill="#EAE984" cx="26" cy="327.865" r="16"/>
	<circle display="inline" fill="#EAE984" cx="26" cy="433.157" r="16"/>
	<circle display="inline" fill="#EAE984" cx="26" cy="538.448" r="16"/>
	<circle display="inline" fill="#EAE984" cx="26" cy="643.739" r="16"/>
	<circle display="inline" fill="#EAE984" cx="26" cy="749.03" r="16"/>
	<circle display="inline" fill="#EAE984" cx="1098.755" cy="120.252" r="16"/>
	<circle display="inline" fill="#EAE984" cx="1098.755" cy="225.544" r="16"/>
	<circle display="inline" fill="#EAE984" cx="1098.755" cy="330.835" r="16"/>
	<circle display="inline" fill="#EAE984" cx="1098.755" cy="436.127" r="16"/>
	<circle display="inline" fill="#EAE984" cx="1098.755" cy="541.418" r="16"/>
	<circle display="inline" fill="#EAE984" cx="1098.755" cy="646.709" r="16"/>
	<circle display="inline" fill="#EAE984" cx="1098.755" cy="752" r="16"/>
	<circle display="inline" fill="#EAE984" cx="979.853" cy="120.253" r="16"/>
	<circle display="inline" fill="#EAE984" cx="979.853" cy="225.544" r="16"/>
	<circle display="inline" fill="#EAE984" cx="979.853" cy="330.836" r="16"/>
	<circle display="inline" fill="#EAE984" cx="979.853" cy="436.127" r="16"/>
	<circle display="inline" fill="#EAE984" cx="979.853" cy="541.418" r="16"/>
	<circle display="inline" fill="#EAE984" cx="979.853" cy="646.709" r="16"/>
	<circle display="inline" fill="#EAE984" cx="979.853" cy="752" r="16"/>
	<circle display="inline" fill="#EAE984" cx="860.95" cy="120.253" r="16"/>
	<circle display="inline" fill="#EAE984" cx="860.95" cy="225.544" r="16"/>
	<circle display="inline" fill="#EAE984" cx="860.95" cy="330.836" r="16"/>
	<circle display="inline" fill="#EAE984" cx="860.95" cy="436.127" r="16"/>
	<circle display="inline" fill="#EAE984" cx="860.95" cy="541.418" r="16"/>
	<circle display="inline" fill="#EAE984" cx="860.95" cy="646.709" r="16"/>
	<circle display="inline" fill="#EAE984" cx="860.95" cy="752" r="16"/>
	<circle display="inline" fill="#EAE984" cx="742.048" cy="120.253" r="16"/>
	<circle display="inline" fill="#EAE984" cx="742.048" cy="225.545" r="16"/>
	<circle display="inline" fill="#EAE984" cx="742.048" cy="330.836" r="16"/>
	<circle display="inline" fill="#EAE984" cx="742.048" cy="436.127" r="16"/>
	<circle display="inline" fill="#EAE984" cx="742.048" cy="541.418" r="16"/>
	<circle display="inline" fill="#EAE984" cx="742.048" cy="646.709" r="16"/>
	<circle display="inline" fill="#EAE984" cx="742.048" cy="752" r="16"/>
	<circle display="inline" fill="#EAE984" cx="623.146" cy="120.254" r="16"/>
	<circle display="inline" fill="#EAE984" cx="623.146" cy="225.546" r="16"/>
	<circle display="inline" fill="#EAE984" cx="623.146" cy="330.837" r="16"/>
	<circle display="inline" fill="#EAE984" cx="623.146" cy="436.127" r="16"/>
	<circle display="inline" fill="#EAE984" cx="623.146" cy="541.418" r="16"/>
	<circle display="inline" fill="#EAE984" cx="623.146" cy="646.709" r="16"/>
	<circle display="inline" fill="#EAE984" cx="623.146" cy="752" r="16"/>
	<circle display="inline" fill="#EAE984" cx="504.244" cy="120.255" r="16"/>
	<circle display="inline" fill="#EAE984" cx="504.244" cy="225.546" r="16"/>
	<circle display="inline" fill="#EAE984" cx="504.244" cy="330.838" r="16"/>
	<circle display="inline" fill="#EAE984" cx="504.244" cy="436.127" r="16"/>
	<circle display="inline" fill="#EAE984" cx="504.244" cy="541.418" r="16"/>
	<circle display="inline" fill="#EAE984" cx="504.244" cy="646.709" r="16"/>
	<circle display="inline" fill="#EAE984" cx="504.244" cy="752" r="16"/>
	<circle display="inline" fill="#EAE984" cx="385.341" cy="120.255" r="16"/>
	<circle display="inline" fill="#EAE984" cx="385.341" cy="225.546" r="16"/>
	<circle display="inline" fill="#EAE984" cx="385.341" cy="330.838" r="16"/>
	<circle display="inline" fill="#EAE984" cx="385.341" cy="436.127" r="16"/>
	<circle display="inline" fill="#EAE984" cx="385.341" cy="541.418" r="16"/>
	<circle display="inline" fill="#EAE984" cx="385.341" cy="646.709" r="16"/>
	<circle display="inline" fill="#EAE984" cx="385.341" cy="752" r="16"/>
	<circle display="inline" fill="#EAE984" cx="266.439" cy="120.255" r="16"/>
	<circle display="inline" fill="#EAE984" cx="266.439" cy="225.547" r="16"/>
	<circle display="inline" fill="#EAE984" cx="266.439" cy="330.838" r="16"/>
	<circle display="inline" fill="#EAE984" cx="266.439" cy="436.127" r="16"/>
	<circle display="inline" fill="#EAE984" cx="266.439" cy="541.418" r="16"/>
	<circle display="inline" fill="#EAE984" cx="266.439" cy="646.709" r="16"/>
	<circle display="inline" fill="#EAE984" cx="266.439" cy="752" r="16"/>
	<circle display="inline" fill="#EAE984" cx="1336.56" cy="12.97" r="16"/>
	<circle display="inline" fill="#EAE984" cx="1217.657" cy="12.97" r="16"/>
	<circle display="inline" fill="#EAE984" cx="144.902" cy="10" r="16"/>
	<circle display="inline" fill="#EAE984" cx="26" cy="10" r="16"/>
	<circle display="inline" fill="#EAE984" cx="1098.755" cy="12.97" r="16"/>
	<circle display="inline" fill="#EAE984" cx="979.853" cy="12.97" r="16"/>
	<circle display="inline" fill="#EAE984" cx="860.95" cy="12.97" r="16"/>
	<circle display="inline" fill="#EAE984" cx="742.048" cy="12.97" r="16"/>
	<circle display="inline" fill="#EAE984" cx="623.146" cy="12.97" r="16"/>
	<circle display="inline" fill="#EAE984" cx="504.244" cy="12.97" r="16"/>
	<circle display="inline" fill="#EAE984" cx="385.341" cy="12.97" r="16"/>
	<circle display="inline" fill="#EAE984" cx="266.439" cy="12.97" r="16"/>
</g>
<g id="bgCoop1" display="none">
	<circle display="inline" fill="#5AA17B" cx="1336.559" cy="120.251" r="8.708"/>
	<circle display="inline" fill="#5AA17B" cx="1336.559" cy="225.542" r="8.708"/>
	<circle display="inline" fill="#5AA17B" cx="1336.559" cy="330.834" r="8.708"/>
	<circle display="inline" fill="#5AA17B" cx="1336.559" cy="436.127" r="8.708"/>
	<circle display="inline" fill="#5AA17B" cx="1336.559" cy="541.418" r="8.708"/>
	<circle display="inline" fill="#5AA17B" cx="1336.559" cy="646.709" r="8.708"/>
	<circle display="inline" fill="#5AA17B" cx="1336.559" cy="752" r="8.708"/>
	<circle display="inline" fill="#5AA17B" cx="1217.656" cy="120.251" r="8.708"/>
	<circle display="inline" fill="#5AA17B" cx="1217.656" cy="225.543" r="8.708"/>
	<circle display="inline" fill="#5AA17B" cx="1217.656" cy="330.834" r="8.708"/>
	<circle display="inline" fill="#5AA17B" cx="1217.656" cy="436.127" r="8.708"/>
	<circle display="inline" fill="#5AA17B" cx="1217.656" cy="541.418" r="8.708"/>
	<circle display="inline" fill="#5AA17B" cx="1217.656" cy="646.709" r="8.708"/>
	<circle display="inline" fill="#5AA17B" cx="1217.656" cy="752" r="8.708"/>
	<circle display="inline" fill="#5AA17B" cx="144.901" cy="117.282" r="8.708"/>
	<circle display="inline" fill="#5AA17B" cx="144.901" cy="222.573" r="8.708"/>
	<circle display="inline" fill="#5AA17B" cx="144.901" cy="327.865" r="8.708"/>
	<circle display="inline" fill="#5AA17B" cx="144.901" cy="433.157" r="8.708"/>
	<circle display="inline" fill="#5AA17B" cx="144.901" cy="538.448" r="8.708"/>
	<circle display="inline" fill="#5AA17B" cx="144.901" cy="643.739" r="8.708"/>
	<circle display="inline" fill="#5AA17B" cx="144.901" cy="749.03" r="8.708"/>
	<circle display="inline" fill="#5AA17B" cx="25.999" cy="117.282" r="8.708"/>
	<circle display="inline" fill="#5AA17B" cx="25.999" cy="222.574" r="8.708"/>
	<circle display="inline" fill="#5AA17B" cx="25.999" cy="327.865" r="8.708"/>
	<circle display="inline" fill="#5AA17B" cx="25.999" cy="433.157" r="8.708"/>
	<circle display="inline" fill="#5AA17B" cx="25.999" cy="538.448" r="8.708"/>
	<circle display="inline" fill="#5AA17B" cx="25.999" cy="643.739" r="8.708"/>
	<circle display="inline" fill="#5AA17B" cx="25.999" cy="749.03" r="8.708"/>
	<circle display="inline" fill="#5AA17B" cx="1098.754" cy="120.252" r="8.708"/>
	<circle display="inline" fill="#5AA17B" cx="1098.754" cy="225.544" r="8.708"/>
	<circle display="inline" fill="#5AA17B" cx="1098.754" cy="330.835" r="8.708"/>
	<circle display="inline" fill="#5AA17B" cx="1098.754" cy="436.127" r="8.708"/>
	<circle display="inline" fill="#5AA17B" cx="1098.754" cy="541.418" r="8.708"/>
	<circle display="inline" fill="#5AA17B" cx="1098.754" cy="646.709" r="8.708"/>
	<circle display="inline" fill="#5AA17B" cx="1098.754" cy="752" r="8.708"/>
	<circle display="inline" fill="#5AA17B" cx="979.852" cy="120.253" r="8.708"/>
	<circle display="inline" fill="#5AA17B" cx="979.852" cy="225.544" r="8.708"/>
	<circle display="inline" fill="#5AA17B" cx="979.852" cy="330.836" r="8.708"/>
	<circle display="inline" fill="#5AA17B" cx="979.852" cy="436.127" r="8.708"/>
	<circle display="inline" fill="#5AA17B" cx="979.852" cy="541.418" r="8.708"/>
	<circle display="inline" fill="#5AA17B" cx="979.852" cy="646.709" r="8.708"/>
	<circle display="inline" fill="#5AA17B" cx="979.852" cy="752" r="8.708"/>
	<circle display="inline" fill="#5AA17B" cx="860.949" cy="120.253" r="8.708"/>
	<circle display="inline" fill="#5AA17B" cx="860.949" cy="225.544" r="8.708"/>
	<circle display="inline" fill="#5AA17B" cx="860.949" cy="330.836" r="8.708"/>
	<circle display="inline" fill="#5AA17B" cx="860.949" cy="436.127" r="8.708"/>
	<circle display="inline" fill="#5AA17B" cx="860.949" cy="541.418" r="8.708"/>
	<circle display="inline" fill="#5AA17B" cx="860.949" cy="646.709" r="8.708"/>
	<circle display="inline" fill="#5AA17B" cx="860.949" cy="752" r="8.708"/>
	<circle display="inline" fill="#5AA17B" cx="742.047" cy="120.253" r="8.708"/>
	<circle display="inline" fill="#5AA17B" cx="742.047" cy="225.545" r="8.708"/>
	<circle display="inline" fill="#5AA17B" cx="742.047" cy="330.836" r="8.708"/>
	<circle display="inline" fill="#5AA17B" cx="742.047" cy="436.127" r="8.708"/>
	<circle display="inline" fill="#5AA17B" cx="742.047" cy="541.418" r="8.708"/>
	<circle display="inline" fill="#5AA17B" cx="742.047" cy="646.709" r="8.708"/>
	<circle display="inline" fill="#5AA17B" cx="742.047" cy="752" r="8.708"/>
	<circle display="inline" fill="#5AA17B" cx="623.145" cy="120.254" r="8.708"/>
	<circle display="inline" fill="#5AA17B" cx="623.145" cy="225.546" r="8.708"/>
	<circle display="inline" fill="#5AA17B" cx="623.145" cy="330.837" r="8.708"/>
	<circle display="inline" fill="#5AA17B" cx="623.145" cy="436.127" r="8.708"/>
	<circle display="inline" fill="#5AA17B" cx="623.145" cy="541.418" r="8.708"/>
	<circle display="inline" fill="#5AA17B" cx="623.145" cy="646.709" r="8.708"/>
	<circle display="inline" fill="#5AA17B" cx="623.145" cy="752" r="8.708"/>
	<circle display="inline" fill="#5AA17B" cx="504.243" cy="120.255" r="8.708"/>
	<circle display="inline" fill="#5AA17B" cx="504.243" cy="225.546" r="8.708"/>
	<circle display="inline" fill="#5AA17B" cx="504.243" cy="330.838" r="8.708"/>
	<circle display="inline" fill="#5AA17B" cx="504.243" cy="436.127" r="8.708"/>
	<circle display="inline" fill="#5AA17B" cx="504.243" cy="541.418" r="8.708"/>
	<circle display="inline" fill="#5AA17B" cx="504.243" cy="646.709" r="8.708"/>
	<circle display="inline" fill="#5AA17B" cx="504.243" cy="752" r="8.708"/>
	<circle display="inline" fill="#5AA17B" cx="385.34" cy="120.255" r="8.708"/>
	<circle display="inline" fill="#5AA17B" cx="385.34" cy="225.546" r="8.708"/>
	<circle display="inline" fill="#5AA17B" cx="385.34" cy="330.838" r="8.708"/>
	<circle display="inline" fill="#5AA17B" cx="385.34" cy="436.127" r="8.708"/>
	<circle display="inline" fill="#5AA17B" cx="385.34" cy="541.418" r="8.708"/>
	<circle display="inline" fill="#5AA17B" cx="385.34" cy="646.709" r="8.708"/>
	<circle display="inline" fill="#5AA17B" cx="385.34" cy="752" r="8.708"/>
	<circle display="inline" fill="#5AA17B" cx="266.438" cy="120.255" r="8.708"/>
	<circle display="inline" fill="#5AA17B" cx="266.438" cy="225.547" r="8.708"/>
	<circle display="inline" fill="#5AA17B" cx="266.438" cy="330.838" r="8.708"/>
	<circle display="inline" fill="#5AA17B" cx="266.438" cy="436.127" r="8.708"/>
	<circle display="inline" fill="#5AA17B" cx="266.438" cy="541.418" r="8.708"/>
	<circle display="inline" fill="#5AA17B" cx="266.438" cy="646.709" r="8.708"/>
	<circle display="inline" fill="#5AA17B" cx="266.438" cy="752" r="8.708"/>
	<circle display="inline" fill="#5AA17B" cx="1336.559" cy="12.97" r="8.708"/>
	<circle display="inline" fill="#5AA17B" cx="1217.656" cy="12.97" r="8.708"/>
	<circle display="inline" fill="#5AA17B" cx="144.901" cy="10" r="8.708"/>
	<circle display="inline" fill="#5AA17B" cx="25.999" cy="10" r="8.708"/>
	<circle display="inline" fill="#5AA17B" cx="1098.754" cy="12.97" r="8.708"/>
	<circle display="inline" fill="#5AA17B" cx="979.852" cy="12.97" r="8.708"/>
	<circle display="inline" fill="#5AA17B" cx="860.949" cy="12.97" r="8.708"/>
	<circle display="inline" fill="#5AA17B" cx="742.047" cy="12.97" r="8.708"/>
	<circle display="inline" fill="#5AA17B" cx="623.145" cy="12.97" r="8.708"/>
	<circle display="inline" fill="#5AA17B" cx="504.243" cy="12.97" r="8.708"/>
	<circle display="inline" fill="#5AA17B" cx="385.34" cy="12.97" r="8.708"/>
	<circle display="inline" fill="#5AA17B" cx="266.438" cy="12.97" r="8.708"/>
</g>
<g id="earHandle">
	<g>
		<rect x="409.625" y="203.779" fill="#1F9C8D" width="24.236" height="84.933"/>
		<rect x="433.861" y="224.36" fill="#EAE984" width="223.926" height="41.224"/>
	</g>
</g>
<g id="coopColored">
	<rect x="1044.522" y="54.05" fill="#EE8F78" width="158.559" height="133.754"/>
	<path fill="#1F9C8D" d="M1044.522,54.05h159.257C1203.779,54.05,1127.167-40.641,1044.522,54.05z"/>
	<rect x="1044.447" y="185.634" fill="#EAE984" width="20.942" height="581.96"/>
	<rect x="1182.119" y="185.634" fill="#EAE984" width="20.942" height="581.96"/>
</g>
<g id="coopBlack" display="none">
	<rect x="1026.835" y="168.177" display="inline" fill="#173434" width="22.949" height="637.713"/>
	<rect x="1177.696" y="168.177" display="inline" fill="#173434" width="22.949" height="637.713"/>
	<rect x="1026.918" y="23.986" display="inline" fill="#173434" width="173.748" height="146.568"/>
	<path display="inline" fill="#173434" d="M1026.918,24.986h174.514C1201.432,24.986,1117.479-78.775,1026.918,24.986z"/>
</g>
<g id="pump">
	<g>
		<rect x="93.153" y="598.365" fill="#5AA17B" width="48.632" height="30.948"/>
		<rect x="108.242" y="629.313" fill="#CCDDD7" width="17.683" height="131.75"/>
	</g>
</g>
<g id="layer1">
	<rect x="83.511" y="695.971" fill="#173434" width="335.125" height="71.624"/>
	<path fill="#EAE984" d="M270.97,737.529c0-7.568-6.136-13.703-13.707-13.703h-31.833c-7.569,0-13.705,6.135-13.705,13.703v30.065
		h59.244V737.529z"/>
	<rect x="153.648" y="676.541" fill="#5AA17B" width="190.997" height="19.43"/>
	<rect x="1058.591" y="688.24" fill="#1F9C8D" width="163.834" height="62.825"/>
	<rect x="1208.382" y="700.797" fill="#1F9C8D" width="51.288" height="34.485"/>
	<rect x="1217.227" y="683.572" fill="#EE8F78" width="36.251" height="17.225"/>
	<rect x="1181.854" y="731.146" fill="#EE8F78" width="114.068" height="36.854"/>
	<rect x="95.891" y="628.739" fill="#5AA17B" width="43.327" height="67.436"/>
	<path fill="#CCDDD7" d="M901.671,445.702c0,11.102-9.13,20.102-20.395,20.102H488.259c-11.261,0-20.394-9-20.394-20.102V85.467
		c0-11.101,9.132-20.101,20.394-20.101h393.017c11.265,0,20.395,9,20.395,20.101V445.702z"/>
	<rect x="683.559" y="206.534" fill="#1F9C8D" width="15.624" height="132.442"/>
	<polygon fill="#CCDDD7" points="768.414,511.767 818.396,511.767 818.396,493.227 864.958,493.227 880.968,477.217 
		747.031,477.217 747.031,511.767 	"/>
	<polygon fill="#CCDDD7" points="626.942,509.941 576.959,509.941 576.959,491.401 530.397,491.401 514.388,475.392 
		648.324,475.392 648.324,509.941 	"/>
	<path fill="#EE8F78" d="M591.374,153.205c0,0,177.531,0.629,177.432,4.585c-0.1,3.957-33.49,62.865-33.49,62.865
		s-47.927-31.206-96.179,3.705L591.374,153.205z"/>
	<rect x="1195.625" y="232.048" fill="#EAE984" width="64.671" height="56.665"/>
	<path fill="#EAE984" d="M270.97,737.529c0-7.568-6.136-13.703-13.707-13.703h-31.833c-7.569,0-13.705,6.135-13.705,13.703v30.065
		h59.244V737.529z"/>
</g>
<g id="coopButton">
	<g id="coopButtonBg_2_">
		<rect x="1072.98" y="64.405" fill="#CCDDD7" width="102.342" height="106.082"/>
	</g>
	<g id="coopButtonCenter_2_">
		<rect x="1095.345" y="88.637" fill="#173434" width="57.614" height="57.617"/>
	</g>
</g>
<g id="nose">
	<rect x="617.945" y="297.719" fill="#EE8F78" width="113.87" height="40.794"/>
</g>
<g id="mot">
	<rect x="430.373" y="394.156" fill="#EE8F78" width="513.359" height="37.561"/>
</g>
<g id="openMouthDown" display="none">
	<rect x="521.623" y="108.33" display="inline" fill="#1F9C8D" width="400.857" height="397.158"/>
	<path display="inline" fill="#1F9C8D" d="M616.653,498.672c60.935,60.936,159.729,60.936,220.665,0l12.889-12.89H603.765
		L616.653,498.672z"/>
	<rect x="553.941" y="126.69" display="inline" fill="#173434" width="346.087" height="348.133"/>
	<rect x="552.544" y="445.687" display="inline" fill="#EAE984" width="294.265" height="29.137"/>
</g>
<g id="closedMouthUp">
	<rect x="511.607" y="338.514" fill="#1F9C8D" width="367.577" height="74.19"/>
	<rect x="541.244" y="355.351" fill="#173434" width="317.353" height="57.354"/>
</g>
<g id="closedMouthDown">
	<rect x="511.607" y="410.879" fill="#1F9C8D" width="367.577" height="72.726"/>
	<path fill="#1F9C8D" d="M598.749,478.534c55.876,55.875,146.469,55.875,202.345,0l11.818-11.818H586.93L598.749,478.534z"/>
	<rect x="541.244" y="404.744" fill="#173434" width="317.353" height="59.96"/>
	<g id="teethDown">
		<rect x="541.318" y="438.104" fill="#EAE984" width="269.835" height="26.72"/>
	</g>
</g>
<g id="teethUp">
	<g id="tooth1">
		<rect x="624.548" y="355.351" fill="#CCDDD7" width="38.807" height="38.806"/>
	</g>
	<g id="tooth2">
		<rect x="663.597" y="355.351" fill="#EAE984" width="38.806" height="38.806"/>
	</g>
	<g id="tooth3">
		<rect x="702.646" y="355.351" fill="#F2B1B6" width="38.806" height="38.806"/>
	</g>
	<g id="tooth4">
		<rect x="741.694" y="355.351" fill="#CCDDD7" width="38.806" height="38.806"/>
	</g>
	<g id="tooth5">
		<rect x="780.742" y="355.351" fill="#EAE984" width="38.807" height="38.806"/>
	</g>
	<g id="tooth6">
		<rect x="819.791" y="355.351" fill="#F2B1B6" width="38.806" height="38.806"/>
	</g>
</g>
<g id="pumpLight" display="none">
	<path display="inline" fill="#CCDDD7" d="M343.628,772.944c0-8.294-6.724-15.017-15.02-15.017h-34.882
		c-8.294,0-15.018,6.723-15.018,15.017v32.945h64.919V772.944z"/>
</g>
<g id="pumpHouse">
	<rect x="153.648" y="491.714" fill="#EAE984" width="190.997" height="204.257"/>
	<rect x="357.908" y="507.63" fill="#1F9C8D" width="26.527" height="106.107"/>
	<rect x="363.977" y="613.737" fill="#173434" width="14.469" height="15.915"/>
	<rect x="357.908" y="629.652" fill="#1F9C8D" width="26.527" height="51.288"/>
	<rect x="344.645" y="519.857" fill="#173434" width="34.485" height="17.118"/>
	<polygon fill="#5AA17B" points="249.146,431.717 153.648,491.714 344.645,491.714 	"/>
	<g id="pumpColors1">
		<g>
			<path fill="#EE8F78" d="M342.877,526.197c0,4.886-3.96,8.843-8.842,8.843H166.03c-4.884,0-8.842-3.957-8.842-8.843l0,0
				c0-4.883,3.958-8.843,8.842-8.843h168.005C338.917,517.354,342.877,521.314,342.877,526.197L342.877,526.197z"/>
			<path fill="#F2B1B6" d="M342.877,547.421c0,4.882-3.96,8.841-8.842,8.841H166.03c-4.884,0-8.842-3.959-8.842-8.841l0,0
				c0-4.885,3.958-8.843,8.842-8.843h168.005C338.917,538.578,342.877,542.536,342.877,547.421L342.877,547.421z"/>
			<path fill="#1F9C8D" d="M342.877,568.643c0,4.881-3.96,8.843-8.842,8.843H166.03c-4.884,0-8.842-3.962-8.842-8.843l0,0
				c0-4.885,3.958-8.843,8.842-8.843h168.005C338.917,559.8,342.877,563.758,342.877,568.643L342.877,568.643z"/>
			<path fill="#EE8F78" d="M342.877,588.979c0,4.885-3.96,8.842-8.842,8.842H166.03c-4.884,0-8.842-3.957-8.842-8.842l0,0
				c0-4.883,3.958-8.845,8.842-8.845h168.005C338.917,580.135,342.877,584.097,342.877,588.979L342.877,588.979z"/>
			<path fill="#F2B1B6" d="M342.877,609.317c0,4.882-3.96,8.842-8.842,8.842H166.03c-4.884,0-8.842-3.96-8.842-8.842l0,0
				c0-4.885,3.958-8.842,8.842-8.842h168.005C338.917,600.476,342.877,604.433,342.877,609.317L342.877,609.317z"/>
			<path fill="#1F9C8D" d="M342.877,629.652c0,4.883-3.96,8.844-8.842,8.844H166.03c-4.884,0-8.842-3.961-8.842-8.844l0,0
				c0-4.882,3.958-8.841,8.842-8.841h168.005C338.917,620.812,342.877,624.771,342.877,629.652L342.877,629.652z"/>
			<path fill="#EE8F78" d="M342.877,649.991c0,4.884-3.96,8.84-8.842,8.84H166.03c-4.884,0-8.842-3.956-8.842-8.84l0,0
				c0-4.885,3.958-8.841,8.842-8.841h168.005C338.917,641.15,342.877,645.106,342.877,649.991L342.877,649.991z"/>
		</g>
	</g>
	<g id="pumpColors2">
		<g>
			<path fill="#1F9C8D" d="M342.877,526.197c0,4.886-3.96,8.843-8.842,8.843H166.03c-4.884,0-8.842-3.957-8.842-8.843l0,0
				c0-4.883,3.958-8.843,8.842-8.843h168.005C338.917,517.354,342.877,521.314,342.877,526.197L342.877,526.197z"/>
			<path fill="#EE8F78" d="M342.877,547.421c0,4.882-3.96,8.841-8.842,8.841H166.03c-4.884,0-8.842-3.959-8.842-8.841l0,0
				c0-4.885,3.958-8.843,8.842-8.843h168.005C338.917,538.578,342.877,542.536,342.877,547.421L342.877,547.421z"/>
			<path fill="#F2B1B6" d="M342.877,568.643c0,4.881-3.96,8.843-8.842,8.843H166.03c-4.884,0-8.842-3.962-8.842-8.843l0,0
				c0-4.885,3.958-8.843,8.842-8.843h168.005C338.917,559.8,342.877,563.758,342.877,568.643L342.877,568.643z"/>
			<path fill="#1F9C8D" d="M342.877,588.979c0,4.885-3.96,8.842-8.842,8.842H166.03c-4.884,0-8.842-3.957-8.842-8.842l0,0
				c0-4.883,3.958-8.845,8.842-8.845h168.005C338.917,580.135,342.877,584.097,342.877,588.979L342.877,588.979z"/>
			<path fill="#EE8F78" d="M342.877,609.317c0,4.882-3.96,8.842-8.842,8.842H166.03c-4.884,0-8.842-3.96-8.842-8.842l0,0
				c0-4.885,3.958-8.842,8.842-8.842h168.005C338.917,600.476,342.877,604.433,342.877,609.317L342.877,609.317z"/>
			<path fill="#F2B1B6" d="M342.877,629.652c0,4.883-3.96,8.844-8.842,8.844H166.03c-4.884,0-8.842-3.961-8.842-8.844l0,0
				c0-4.882,3.958-8.841,8.842-8.841h168.005C338.917,620.812,342.877,624.771,342.877,629.652L342.877,629.652z"/>
			<path fill="#1F9C8D" d="M342.877,649.991c0,4.884-3.96,8.84-8.842,8.84H166.03c-4.884,0-8.842-3.956-8.842-8.84l0,0
				c0-4.885,3.958-8.841,8.842-8.841h168.005C338.917,641.15,342.877,645.106,342.877,649.991L342.877,649.991z"/>
		</g>
	</g>
	<g id="pumpColors3">
		<g>
			<path fill="#F2B1B6" d="M342.877,526.197c0,4.886-3.96,8.843-8.842,8.843H166.03c-4.884,0-8.842-3.957-8.842-8.843l0,0
				c0-4.883,3.958-8.843,8.842-8.843h168.005C338.917,517.354,342.877,521.314,342.877,526.197L342.877,526.197z"/>
			<path fill="#1F9C8D" d="M342.877,547.421c0,4.882-3.96,8.841-8.842,8.841H166.03c-4.884,0-8.842-3.959-8.842-8.841l0,0
				c0-4.885,3.958-8.843,8.842-8.843h168.005C338.917,538.578,342.877,542.536,342.877,547.421L342.877,547.421z"/>
			<path fill="#EE8F78" d="M342.877,568.643c0,4.881-3.96,8.843-8.842,8.843H166.03c-4.884,0-8.842-3.962-8.842-8.843l0,0
				c0-4.885,3.958-8.843,8.842-8.843h168.005C338.917,559.8,342.877,563.758,342.877,568.643L342.877,568.643z"/>
			<path fill="#F2B1B6" d="M342.877,588.979c0,4.885-3.96,8.842-8.842,8.842H166.03c-4.884,0-8.842-3.957-8.842-8.842l0,0
				c0-4.883,3.958-8.845,8.842-8.845h168.005C338.917,580.135,342.877,584.097,342.877,588.979L342.877,588.979z"/>
			<path fill="#1F9C8D" d="M342.877,609.317c0,4.882-3.96,8.842-8.842,8.842H166.03c-4.884,0-8.842-3.96-8.842-8.842l0,0
				c0-4.885,3.958-8.842,8.842-8.842h168.005C338.917,600.476,342.877,604.433,342.877,609.317L342.877,609.317z"/>
			<path fill="#EE8F78" d="M342.877,629.652c0,4.883-3.96,8.844-8.842,8.844H166.03c-4.884,0-8.842-3.961-8.842-8.844l0,0
				c0-4.882,3.958-8.841,8.842-8.841h168.005C338.917,620.812,342.877,624.771,342.877,629.652L342.877,629.652z"/>
			<path fill="#F2B1B6" d="M342.877,649.991c0,4.884-3.96,8.84-8.842,8.84H166.03c-4.884,0-8.842-3.956-8.842-8.84l0,0
				c0-4.885,3.958-8.841,8.842-8.841h168.005C338.917,641.15,342.877,645.106,342.877,649.991L342.877,649.991z"/>
		</g>
	</g>
</g>
<g id="earLeft">
	<path fill="#1F9C8D" d="M431.557,183.663c-14.665,0-26.553,11.889-26.553,26.553v77.896c0,14.665,11.889,26.554,26.553,26.554
		h35.925V183.663H431.557z"/>
</g>
<g id="earRight">
	<path fill="#1F9C8D" d="M937.597,184.798c14.664,0,26.553,11.888,26.553,26.553v77.896c0,14.665-11.889,26.553-26.553,26.553
		h-35.926V184.798H937.597z"/>
</g>
<g id="earRightYellow">
	<path fill="#EAE984" d="M937.597,184.798c14.664,0,26.553,11.888,26.553,26.553v77.896c0,14.665-11.889,26.553-26.553,26.553
		h-35.926V184.798H937.597z"/>
</g>
<g id="lightningButton">
	<rect x="45.477" y="39.319" fill="#173434" width="143.214" height="143.213"/>
	<g id="smallLightning_2_">
		<polygon fill="#EAE984" points="101.062,52.916 147.802,52.995 118.438,97.733 139.567,131.4 106.321,175.357 120.92,129.963 
			95.736,99.029 		"/>
	</g>
</g>
<g id="eyes">
	<g id="eyeLines">
		<polygon fill="#1F9C8D" points="768.806,276.035 768.806,285.522 776.935,285.522 776.935,278.381 		"/>
		<rect x="787.005" y="275.819" fill="#1F9C8D" width="10.566" height="10.568"/>
		<polyline fill="#1F9C8D" points="558.228,273.605 558.228,288.601 567.382,288.601 567.382,277.889 		"/>
		<rect x="588.675" y="277.666" fill="#1F9C8D" width="9.154" height="10.935"/>
	</g>
	<g id="eyeLeft">
		<circle fill="#173434" cx="582.966" cy="205.541" r="73.26"/>
		<circle fill="#1F9C8D" cx="525.043" cy="206.262" r="7.137"/>
		<g id="eyeballLeft">
			<circle fill="#EAE984" cx="582.966" cy="205.541" r="41.863"/>
			<circle fill="#1F9C8D" cx="582.966" cy="205.541" r="32.349"/>
			<circle fill="#F2B1B6" cx="582.966" cy="205.541" r="24.738"/>
			<path fill="#173434" d="M598.068,205.813c0,8.338-6.763,15.099-15.103,15.099c-8.334,0-15.102-6.761-15.102-15.099
				c0-8.338,6.768-15.1,15.102-15.1C591.305,190.713,598.068,197.475,598.068,205.813z"/>
		</g>
	</g>
	<g id="eyeRight">
		<circle fill="#F2B1B6" cx="792.288" cy="210.561" r="69.541"/>
		<path fill="#1F9C8D" d="M850.991,203.337c0,3.74-3.03,6.772-6.773,6.772c-3.74,0-6.772-3.032-6.772-6.772
			c0-3.743,3.032-6.774,6.772-6.774C847.961,196.563,850.991,199.594,850.991,203.337z"/>
		<g id="eyeballRight">
			<circle fill="#EAE984" cx="792.288" cy="210.561" r="39.738"/>
			<circle fill="#1F9C8D" cx="792.288" cy="210.561" r="30.706"/>
			<circle fill="#CCDDD7" cx="792.287" cy="210.561" r="23.481"/>
			<path fill="#173434" d="M797.708,210.561c0,2.993-2.428,5.42-5.421,5.42c-2.99,0-5.419-2.427-5.419-5.42s2.429-5.418,5.419-5.418
				C795.28,205.143,797.708,207.568,797.708,210.561z"/>
		</g>
	</g>
	<g id="eyeBrawLeft">
		<g>
			<path fill="#1F9C8D" d="M481.648,133.992c-0.387,13.273,1.956,15.427,25.385,25.156c46.32,19.231,128.08,45.91,128.08,45.91
				c18.121,2.116,34.509-8.704,36.626-26.826l2.915-39.241c2.115-18.123-10.859-34.526-28.983-36.643l-126.026-14.71
				c-18.121-2.115-34.528,10.86-36.642,28.981L481.648,133.992z"/>
			<circle fill="#EAE984" cx="650.267" cy="135.234" r="11.131"/>
		</g>
	</g>
	<g id="eyeBrawRight">
		<path fill="#1F9C8D" d="M883.467,136.045c0.389,13.273-1.955,15.427-25.384,25.156c-46.321,19.231-128.08,45.91-128.08,45.91
			c-18.121,2.116-34.51-8.704-36.625-26.826l-2.917-39.241c-2.114-18.122,10.861-34.526,28.984-36.643l126.027-14.71
			c18.12-2.116,34.526,10.86,36.642,28.981L883.467,136.045z"/>
	</g>
</g>
<g id="surprised" display="none">
	<g id="eyeLeftSur" display="inline">
		<circle fill="#173434" cx="603.228" cy="196.927" r="57.432"/>
		<circle fill="#EAE984" cx="603.228" cy="197.495" r="35.954"/>
		<path fill="#1F9C8D" d="M628.59,196.927c0,14.008-11.355,25.363-25.362,25.363c-14.003,0-25.359-11.355-25.359-25.363
			c0-14.005,11.355-25.359,25.359-25.359C617.234,171.568,628.59,182.922,628.59,196.927z"/>
		<circle fill="#F2B1B6" cx="603.228" cy="196.927" r="19.394"/>
		<path fill="#173434" d="M612.47,197.141c0,5.104-4.138,9.243-9.242,9.243c-5.099,0-9.242-4.138-9.242-9.243
			c0-5.1,4.143-9.241,9.242-9.241C608.332,187.899,612.47,192.041,612.47,197.141z"/>
		<path fill="#1F9C8D" d="M563.415,197.493c0,3.091-2.505,5.596-5.594,5.596c-3.09,0-5.595-2.505-5.595-5.596
			c0-3.087,2.505-5.593,5.595-5.593C560.909,191.9,563.415,194.405,563.415,197.493z"/>
	</g>
	<g id="eyeLInesSur" display="inline">
		<polyline fill="#1F9C8D" points="583.834,251.004 583.834,262.758 591.01,262.758 591.01,254.361 		"/>
		<rect x="607.704" y="254.187" fill="#1F9C8D" width="7.176" height="8.572"/>
		<polygon fill="#1F9C8D" points="797.865,302.729 797.865,317.497 810.517,317.497 810.517,306.381 		"/>
		<rect x="842.856" y="309.063" fill="#1F9C8D" width="8.437" height="8.433"/>
	</g>
	<g id="eyeRightSur" display="inline">
		<circle fill="#F2B1B6" cx="834.419" cy="200.809" r="108.256"/>
		<path fill="#EAE984" d="M896.278,200.809c0,34.162-27.694,61.858-61.858,61.858s-61.859-27.696-61.859-61.858
			c0-34.167,27.695-61.862,61.859-61.862S896.278,166.642,896.278,200.809z"/>
		<path fill="#1F9C8D" d="M882.22,200.809c0,26.398-21.401,47.8-47.8,47.8s-47.801-21.402-47.801-47.8
			c0-26.403,21.402-47.802,47.801-47.802S882.22,174.405,882.22,200.809z"/>
		<path fill="#CCDDD7" d="M870.972,200.809c0,20.186-16.364,36.549-36.552,36.549c-20.188,0-36.555-16.364-36.555-36.549
			c0-20.19,16.366-36.554,36.555-36.554C854.607,164.255,870.972,180.619,870.972,200.809z"/>
		<path fill="#173434" d="M855.876,200.809c0,11.847-9.604,21.453-21.456,21.453c-11.84,0-21.459-9.605-21.459-21.453
			c0-11.854,9.619-21.455,21.459-21.455C846.272,179.354,855.876,188.954,855.876,200.809z"/>
		<path fill="#1F9C8D" d="M918.853,190.737c0,5.38-4.356,9.74-9.742,9.74c-5.379,0-9.739-4.36-9.739-9.74
			c0-5.384,4.36-9.743,9.739-9.743C914.496,180.994,918.853,185.353,918.853,190.737z"/>
	</g>
	<g id="eyeBrawRightSur" display="inline">
		<path fill="#1F9C8D" d="M952.791,137.004c-7.854,12.775-11.403,13.357-39.559,8.027c-55.663-10.542-149.408-36.01-149.408-36.01
			c-18.426-9.231-27.198-29.604-17.966-48.03l21.563-38.866c9.232-18.425,31.649-25.876,50.075-16.646l128.138,64.204
			c18.427,9.23,25.876,31.65,16.646,50.075L952.791,137.004z"/>
	</g>
	<g id="eyeBrawLeftSur" display="inline">
		<path fill="#1F9C8D" d="M468.532,194.547c6.873,13.333,10.366,14.18,38.842,10.989c56.299-6.313,151.699-24.639,151.699-24.639
			c19.068-7.815,29.354-27.467,21.54-46.538l-18.571-40.381c-7.815-19.07-29.607-28.192-48.681-20.376l-132.613,54.353
			c-19.068,7.815-28.191,29.609-20.375,48.677L468.532,194.547z"/>
		<circle fill="#EAE984" cx="635.882" cy="103.596" r="12.573"/>
	</g>
</g>
<g id="ladder">
	<g id="step7_1_">
		<rect x="1065.39" y="628.739" fill="#CCDDD7" width="116.464" height="38.669"/>
	</g>
	<g id="step6_1_">
		<rect x="1065.39" y="563.947" fill="#EE8F78" width="116.464" height="38.668"/>
	</g>
	<g id="step5_1_">
		<rect x="1065.39" y="499.154" fill="#1F9C8D" width="116.464" height="38.669"/>
	</g>
	<g id="step4_1_">
		<rect x="1065.39" y="434.361" fill="#173434" width="116.464" height="38.669"/>
	</g>
	<g id="step3_1_">
		<rect x="1065.39" y="369.568" fill="#CCDDD7" width="116.464" height="38.669"/>
	</g>
	<g id="step2_1_">
		<rect x="1065.39" y="304.776" fill="#EE8F78" width="116.464" height="38.668"/>
	</g>
	<g id="step1_1_">
		<rect x="1065.39" y="239.983" fill="#1F9C8D" width="116.464" height="38.668"/>
	</g>
</g>
<g id="glasses" display="none">
	<polygon display="inline" fill="#EAE984" points="708.069,-39.241 708.069,12.778 650.745,12.778 650.745,86.18 775.24,86.18 
		775.24,-39.241 	"/>
	<g id="glassesLeft" display="inline">
		<ellipse fill="#EAE984" cx="602.213" cy="206.241" rx="98.277" ry="98.282"/>
		<path fill="#1F9C8D" d="M686.541,206.241c0,46.574-37.758,84.33-84.329,84.33c-46.572,0-84.326-37.756-84.326-84.33
			c0-46.57,37.754-84.328,84.326-84.328C648.783,121.913,686.541,159.67,686.541,206.241z"/>
		<circle fill="#F2B1B6" stroke="#F2B1B6" cx="614.989" cy="170.465" r="22.999"/>
		<circle fill="#CCDDD7" cx="620.1" cy="236.907" r="23"/>
		<circle fill="#EE8F78" stroke="#EE8F78" cx="563.882" cy="206.241" r="22.996"/>
	</g>
	<path display="inline" fill="#EE8F78" stroke="#EE8F78" d="M766.883,147.465l-13.978-11.604V87.336h-77.141v53.752v30.159
		l-60.774,29.347l71.551,5.646l13.095-12.775h30.021l10.571,7.129C740.228,200.594,741.973,173.442,766.883,147.465z"/>
	<path display="inline" fill="#173434" d="M752.905,107.962c0,0,50.317,1.017,72.708,16.065
		c-35.234,7.586-58.73,23.438-58.73,23.438l-13.978-11.604V107.962z"/>
	<path display="inline" fill="#173434" d="M675.765,107.962l-43.751,4.614c0,0,31.888,11.956,43.751,28.512V107.962z"/>
	<g id="glassesRight" display="inline">
		<path fill="none" stroke="#EC008C" d="M768.123,209.409c0,31.938,25.663,57.865,57.49,58.312V151.099
			C793.786,151.553,768.123,177.479,768.123,209.409z"/>
		<path fill="#F2B1B6" stroke="#F2B1B6" d="M910.997,209.409c0,47.16-38.231,85.389-85.384,85.389
			c-47.156,0-85.386-38.229-85.386-85.389c0-47.153,38.229-85.381,85.386-85.381C872.766,124.028,910.997,162.255,910.997,209.409z"
			/>
		<path fill="#EAE984" d="M825.613,209.409l-28.745-50.251c0,0,13.104-9.938,28.745-8.059V209.409z"/>
		<path fill="#EE8F78" stroke="#EE8F78" d="M825.613,209.409l-57.49-7.491c0,0,3.38-28.767,28.745-42.76L825.613,209.409z"/>
		<path fill="#173434" d="M825.613,209.409l-57.49-7.491c0,0-5.251,34.544,20.249,53.001L825.613,209.409z"/>
		<polygon fill="#F2B1B6" stroke="#F2B1B6" points="825.613,209.409 789.682,254.674 803.63,263.516 		"/>
		<path fill="#EAE984" d="M825.613,209.409l-21.983,54.107c0,0,5.67,3.435,9.742,4.205c11,2.084,12.241,0,12.241,0V209.409z"/>
		<path fill="#1F9C8D" d="M767.636,209.409c0-32.482,26.336-58.818,58.82-58.818v-14.729c-40.62,0-73.551,32.932-73.551,73.548
			c0,40.623,32.931,73.553,73.551,73.553v-14.732C793.972,268.229,767.636,241.896,767.636,209.409z"/>
		<path fill="#1F9C8D" d="M826.456,150.98c-0.284,0-0.562,1.018-0.843,1.021v116.623c0.281,0.006,0.559,0.023,0.843,0.023
			c32.214,0,58.331-26.117,58.331-58.336C884.787,178.097,858.67,150.98,826.456,150.98z"/>
		<path fill="#EAE984" d="M825.456,135.861v14.729c32.482,0,58.817,26.336,58.817,58.818c0,32.487-26.335,58.82-58.817,58.82v14.732
			c40.622,0,73.548-32.93,73.548-73.553C899.004,168.792,866.078,135.861,825.456,135.861z"/>
	</g>
</g>
<g id="lightning" display="none">
	<polygon display="inline" fill="#EAE984" points="572.53,-35.272 895.005,-34.725 692.419,273.944 838.189,506.204 
		608.806,809.493 709.521,496.309 535.786,282.876 	"/>
</g>
<g id="electricWhite" display="none">
	<rect x="112.269" y="-35.1" display="inline" fill="#FFFFFF" width="1190.133" height="841.434"/>
	<path display="inline" fill="#231F20" stroke="#FFFFFF" stroke-width="5" d="M963.977,447.038c0,11.856-9.752,21.469-21.782,21.469
		H522.442c-12.028,0-21.781-9.612-21.781-21.469V62.297c0-11.856,9.753-21.468,21.781-21.468h419.752
		c12.03,0,21.782,9.612,21.782,21.468V447.038z"/>
	
		<rect x="460.618" y="391.986" display="inline" fill="#231F20" stroke="#FFFFFF" stroke-width="5" width="565.465" height="40.116"/>
	
		<rect x="547.379" y="332.559" display="inline" fill="#231F20" stroke="#FFFFFF" stroke-width="5" width="392.582" height="388.957"/>
	
		<rect x="710.37" y="191.601" display="inline" fill="#231F20" stroke="#FFFFFF" stroke-width="5" width="48.802" height="141.451"/>
	<rect x="660.95" y="303.519" display="inline" fill="#231F20" stroke="#FFFFFF" stroke-width="5" width="121.616" height="29.04"/>
	<polygon display="inline" fill="#231F20" stroke="#FFFFFF" stroke-width="5" points="821.655,758.416 875.038,758.416 
		875.038,738.615 924.766,738.615 941.865,721.516 798.817,721.516 798.817,758.416 	"/>
	<polygon display="inline" fill="#231F20" stroke="#FFFFFF" stroke-width="5" points="665.686,758.416 612.303,758.416 
		612.303,738.615 562.573,738.615 545.475,721.516 688.522,721.516 688.522,758.416 	"/>
	<path display="inline" fill="#231F20" stroke="#FFFFFF" stroke-width="5" d="M640.447,732.471
		c59.678,59.678,156.433,59.678,216.11,0l12.622-12.623H627.825L640.447,732.471z"/>
	<path display="inline" fill="#231F20" stroke="#FFFFFF" stroke-width="5" d="M632.571,134.645c0,0,189.608,0.671,189.501,4.897
		c-0.105,4.226-35.769,67.142-35.769,67.142s-51.186-33.329-102.721,3.957L632.571,134.645z"/>
	
		<rect x="579.03" y="350.541" display="inline" fill="#FFFFFF" stroke="#231F20" stroke-width="5" width="338.942" height="340.948"/>
	
		<rect x="577.662" y="662.951" display="inline" fill="#231F20" stroke="#FFFFFF" stroke-width="5" width="288.192" height="28.537"/>
	
		<rect x="668.002" y="350.541" display="inline" fill="#231F20" stroke="#FFFFFF" stroke-width="5" width="41.445" height="41.446"/>
	
		<rect x="709.707" y="350.541" display="inline" fill="#231F20" stroke="#FFFFFF" stroke-width="5" width="41.446" height="41.446"/>
	
		<rect x="751.412" y="350.541" display="inline" fill="#231F20" stroke="#FFFFFF" stroke-width="5" width="41.445" height="41.446"/>
	
		<rect x="793.116" y="350.541" display="inline" fill="#231F20" stroke="#FFFFFF" stroke-width="5" width="41.446" height="41.446"/>
	
		<rect x="834.821" y="350.541" display="inline" fill="#231F20" stroke="#FFFFFF" stroke-width="5" width="41.446" height="41.446"/>
	
		<rect x="876.527" y="350.541" display="inline" fill="#231F20" stroke="#FFFFFF" stroke-width="5" width="41.445" height="41.446"/>
	<circle display="inline" fill="#231F20" stroke="#FFFFFF" stroke-width="5" cx="628.553" cy="191.14" r="54.304"/>
	<circle display="inline" fill="#231F20" stroke="#FFFFFF" stroke-width="5" cx="628.553" cy="191.14" r="31.031"/>
	<circle display="inline" fill="#231F20" stroke="#FFFFFF" stroke-width="5" cx="628.554" cy="191.14" r="23.979"/>
	<circle display="inline" fill="#231F20" stroke="#FFFFFF" stroke-width="5" cx="628.553" cy="191.14" r="18.337"/>
	<circle display="inline" fill="#231F20" stroke="#FFFFFF" stroke-width="5" cx="628.553" cy="191.342" r="4.017"/>
	<polyline display="inline" fill="#231F20" stroke="#FFFFFF" stroke-width="5" points="610.216,242.271 610.216,253.384 
		617.002,253.384 617.002,245.444 	"/>
	<rect x="632.786" y="245.279" display="inline" fill="#231F20" stroke="#FFFFFF" stroke-width="5" width="6.785" height="8.105"/>
	<path display="inline" fill="#231F20" stroke="#FFFFFF" stroke-width="5" d="M590.908,191.674c0,2.922-2.369,5.292-5.29,5.292
		c-2.92,0-5.289-2.369-5.289-5.292c0-2.919,2.369-5.288,5.289-5.288C588.54,186.386,590.908,188.755,590.908,191.674z"/>
	<circle display="inline" fill="#231F20" stroke="#FFFFFF" stroke-width="5" cx="847.152" cy="194.809" r="102.359"/>
	<circle display="inline" fill="#231F20" stroke="#FFFFFF" stroke-width="5" cx="847.152" cy="194.809" r="58.49"/>
	<circle display="inline" fill="#231F20" stroke="#FFFFFF" stroke-width="5" cx="847.152" cy="194.809" r="45.198"/>
	<path display="inline" fill="#231F20" stroke="#FFFFFF" stroke-width="5" d="M881.714,194.809c0,19.087-15.473,34.56-34.562,34.56
		c-19.088,0-34.562-15.473-34.562-34.56c0-19.09,15.475-34.563,34.562-34.563C866.241,160.246,881.714,175.719,881.714,194.809z"/>
	<path display="inline" fill="#231F20" stroke="#FFFFFF" stroke-width="5" d="M865.025,194.807c0,9.87-7.999,17.873-17.873,17.873
		c-9.861,0-17.873-8.002-17.873-17.873c0-9.871,8.012-17.87,17.873-17.87C857.026,176.938,865.025,184.936,865.025,194.807z"/>
	<polygon display="inline" fill="#231F20" stroke="#FFFFFF" stroke-width="5" points="812.59,291.178 812.59,305.143 
		824.552,305.143 824.552,294.632 	"/>
	<rect x="855.129" y="297.168" display="inline" fill="#231F20" stroke="#FFFFFF" stroke-width="5" width="7.978" height="7.974"/>
	<path display="inline" fill="#231F20" stroke="#FFFFFF" stroke-width="5" d="M926.988,185.287c0,5.086-4.122,9.209-9.213,9.209
		c-5.086,0-9.21-4.124-9.21-9.209c0-5.091,4.124-9.212,9.21-9.212C922.866,176.074,926.988,180.195,926.988,185.287z"/>
	<path display="inline" fill="#231F20" stroke="#FFFFFF" stroke-width="5" d="M959.076,134.479
		c-7.428,12.08-10.782,12.631-37.404,7.59c-52.631-9.969-141.271-34.048-141.271-34.048c-17.422-8.729-25.715-27.993-16.986-45.414
		l20.389-36.75c8.729-17.422,29.926-24.467,47.348-15.74l121.16,60.707c17.421,8.729,24.465,29.927,15.739,47.348L959.076,134.479z"
		/>
	<g display="inline">
		<path fill="#231F20" stroke="#FFFFFF" stroke-width="5" d="M501.194,188.888c6.499,12.606,9.801,13.408,36.726,10.391
			c53.233-5.969,143.436-23.296,143.436-23.296c18.028-7.389,27.754-25.971,20.365-44.003l-17.558-38.181
			c-7.39-18.031-27.995-26.655-46.029-19.266l-125.39,51.391c-18.029,7.39-26.655,27.998-19.266,46.025L501.194,188.888z"/>
		<circle fill="#231F20" stroke="#FFFFFF" stroke-width="5" cx="659.429" cy="102.892" r="11.888"/>
	</g>
	<path display="inline" fill="#231F20" stroke="#FFFFFF" stroke-width="5" d="M461.882,134.62c-15.663,0-28.359,12.698-28.359,28.36
		v83.194c0,15.662,12.697,28.359,28.359,28.359h38.368V134.62H461.882z"/>
	<path display="inline" fill="#231F20" stroke="#FFFFFF" stroke-width="5" d="M1002.346,131.697
		c15.662,0,28.359,12.697,28.359,28.359v83.195c0,15.662-12.697,28.359-28.359,28.359h-38.369V131.697H1002.346z"/>
</g>
<g id="electricBlack" display="none">
	
		<rect x="111.644" y="-38.235" display="inline" fill="#231F20" stroke="#231F20" stroke-width="5" width="1191.175" height="845.278"/>
	<path display="inline" fill="#FFFFFF" stroke="#231F20" stroke-width="5" d="M965.13,446.106c0,11.911-9.797,21.566-21.883,21.566
		h-421.67c-12.083,0-21.881-9.655-21.881-21.566v-386.5c0-11.911,9.798-21.566,21.881-21.566h421.67
		c12.086,0,21.883,9.656,21.883,21.566V446.106z"/>
	
		<rect x="459.47" y="390.803" display="inline" fill="#FFFFFF" stroke="#231F20" stroke-width="5" width="568.049" height="40.298"/>
	
		<rect x="546.627" y="331.103" display="inline" fill="#FFFFFF" stroke="#231F20" stroke-width="5" width="394.376" height="390.737"/>
	
		<rect x="710.363" y="189.501" display="inline" fill="#FFFFFF" stroke="#231F20" stroke-width="5" width="49.024" height="142.098"/>
	
		<rect x="660.718" y="301.93" display="inline" fill="#FFFFFF" stroke="#231F20" stroke-width="5" width="122.171" height="29.173"/>
	<polygon display="inline" fill="#FFFFFF" stroke="#231F20" stroke-width="5" points="822.158,758.907 875.784,758.907 
		875.784,739.017 925.739,739.017 942.917,721.84 799.215,721.84 799.215,758.907 	"/>
	<polygon display="inline" fill="#FFFFFF" stroke="#231F20" stroke-width="5" points="665.475,758.907 611.849,758.907 
		611.849,739.017 561.892,739.017 544.714,721.84 688.416,721.84 688.416,758.907 	"/>
	<path display="inline" fill="#FFFFFF" stroke="#231F20" stroke-width="5" d="M640.122,732.844c59.95,59.95,157.148,59.95,217.097,0
		l12.681-12.68H627.442L640.122,732.844z"/>
	<path display="inline" fill="#FFFFFF" stroke="#231F20" stroke-width="5" d="M632.209,132.284c0,0,190.474,0.674,190.368,4.919
		c-0.106,4.246-35.933,67.449-35.933,67.449s-51.42-33.48-103.19,3.975L632.209,132.284z"/>
	
		<rect x="578.424" y="349.168" display="inline" fill="#231F20" stroke="#231F20" stroke-width="5" width="340.491" height="342.505"/>
	
		<rect x="577.049" y="663.006" display="inline" fill="#FFFFFF" stroke="#231F20" stroke-width="5" width="289.508" height="28.667"/>
	
		<rect x="667.802" y="349.168" display="inline" fill="#FFFFFF" stroke="#231F20" stroke-width="5" width="41.635" height="41.635"/>
	
		<rect x="709.697" y="349.168" display="inline" fill="#FFFFFF" stroke="#231F20" stroke-width="5" width="41.636" height="41.635"/>
	
		<rect x="751.593" y="349.168" display="inline" fill="#FFFFFF" stroke="#231F20" stroke-width="5" width="41.636" height="41.635"/>
	
		<rect x="793.488" y="349.168" display="inline" fill="#FFFFFF" stroke="#231F20" stroke-width="5" width="41.636" height="41.635"/>
	
		<rect x="835.385" y="349.168" display="inline" fill="#FFFFFF" stroke="#231F20" stroke-width="5" width="41.635" height="41.635"/>
	<rect x="877.28" y="349.168" display="inline" fill="#FFFFFF" stroke="#231F20" stroke-width="5" width="41.635" height="41.635"/>
	<circle display="inline" fill="#FFFFFF" stroke="#231F20" stroke-width="5" cx="628.173" cy="189.038" r="54.552"/>
	<circle display="inline" fill="#FFFFFF" stroke="#231F20" stroke-width="5" cx="628.173" cy="189.038" r="31.173"/>
	<circle display="inline" fill="#FFFFFF" stroke="#231F20" stroke-width="5" cx="628.174" cy="189.038" r="24.089"/>
	<circle display="inline" fill="#FFFFFF" stroke="#231F20" stroke-width="5" cx="628.173" cy="189.038" r="18.421"/>
	<circle display="inline" fill="#FFFFFF" stroke="#231F20" stroke-width="5" cx="628.173" cy="189.241" r="4.036"/>
	<polyline display="inline" fill="#FFFFFF" stroke="#231F20" stroke-width="5" points="609.752,240.403 609.752,251.567 
		616.568,251.567 616.568,243.591 	"/>
	<rect x="632.425" y="243.425" display="inline" fill="#FFFFFF" stroke="#231F20" stroke-width="5" width="6.816" height="8.142"/>
	<path display="inline" fill="#FFFFFF" stroke="#231F20" stroke-width="5" d="M590.356,189.575c0,2.936-2.379,5.316-5.314,5.316
		c-2.934,0-5.313-2.38-5.313-5.316c0-2.933,2.379-5.312,5.313-5.312C587.977,184.263,590.356,186.642,590.356,189.575z"/>
	<circle display="inline" fill="#FFFFFF" stroke="#231F20" stroke-width="5" cx="847.771" cy="192.724" r="102.827"/>
	<circle display="inline" fill="#FFFFFF" stroke="#231F20" stroke-width="5" cx="847.771" cy="192.724" r="58.757"/>
	<circle display="inline" fill="#FFFFFF" stroke="#231F20" stroke-width="5" cx="847.771" cy="192.724" r="45.404"/>
	<path display="inline" fill="#FFFFFF" stroke="#231F20" stroke-width="5" d="M882.49,192.724c0,19.174-15.544,34.718-34.719,34.718
		c-19.176,0-34.721-15.544-34.721-34.718c0-19.177,15.545-34.721,34.721-34.721C866.946,158.002,882.49,173.546,882.49,192.724z"/>
	<path display="inline" fill="#FFFFFF" stroke="#231F20" stroke-width="5" d="M865.726,192.722c0,9.916-8.035,17.954-17.954,17.954
		c-9.906,0-17.955-8.039-17.955-17.954c0-9.916,8.049-17.952,17.955-17.952C857.69,174.771,865.726,182.806,865.726,192.722z"/>
	<polygon display="inline" fill="#FFFFFF" stroke="#231F20" stroke-width="5" points="813.051,289.533 813.051,303.562 
		825.067,303.562 825.067,293.003 	"/>
	<rect x="855.784" y="295.551" display="inline" fill="#FFFFFF" stroke="#231F20" stroke-width="5" width="8.014" height="8.011"/>
	<path display="inline" fill="#FFFFFF" stroke="#231F20" stroke-width="5" d="M927.972,183.158c0,5.109-4.141,9.251-9.255,9.251
		c-5.109,0-9.251-4.142-9.251-9.251c0-5.114,4.142-9.255,9.251-9.255C923.831,173.903,927.972,178.044,927.972,183.158z"/>
	<path display="inline" fill="#FFFFFF" stroke="#231F20" stroke-width="5" d="M960.207,132.119
		c-7.461,12.135-10.832,12.688-37.575,7.625c-52.872-10.014-141.916-34.204-141.916-34.204
		c-17.501-8.769-25.833-28.121-17.064-45.622l20.481-36.917c8.769-17.501,30.063-24.58,47.564-15.812L953.41,68.173
		c17.501,8.769,24.578,30.063,15.812,47.564L960.207,132.119z"/>
	<g display="inline">
		<path fill="#FFFFFF" stroke="#231F20" stroke-width="5" d="M500.231,186.776c6.528,12.664,9.846,13.469,36.895,10.438
			c53.476-5.997,144.091-23.403,144.091-23.403c18.112-7.423,27.882-26.09,20.458-44.205l-17.639-38.355
			c-7.423-18.113-28.123-26.777-46.239-19.354l-125.963,51.626c-18.111,7.423-26.777,28.125-19.354,46.236L500.231,186.776z"/>
		<circle fill="#FFFFFF" stroke="#231F20" stroke-width="5" cx="659.19" cy="100.387" r="11.942"/>
	</g>
	<path display="inline" fill="#FFFFFF" stroke="#231F20" stroke-width="5" d="M460.74,132.26c-15.734,0-28.489,12.755-28.489,28.489
		v83.575c0,15.734,12.755,28.489,28.489,28.489h38.544V132.26H460.74z"/>
	<path display="inline" fill="#FFFFFF" stroke="#231F20" stroke-width="5" d="M1003.674,129.324
		c15.733,0,28.488,12.755,28.488,28.489v83.575c0,15.734-12.755,28.489-28.488,28.489H965.13V129.324H1003.674z"/>
</g>
</svg>
