<?xml version="1.0" encoding="utf-8"?>
<!-- Generator: Adobe Illustrator 15.0.0, SVG Export Plug-In . SVG Version: 6.00 Build 0)  -->
<!DOCTYPE svg PUBLIC "-//W3C//DTD SVG 1.1//EN" "http://www.w3.org/Graphics/SVG/1.1/DTD/svg11.dtd">
<svg version="1.1" xmlns="http://www.w3.org/2000/svg"  x="0px" y="0px"
	 width="1191px" height="830px" viewBox="0 0 1190.55 841.89" enable-background="new 0 0 1190.55 841.89"
	 xml:space="preserve">
<g id="bg">
	<rect x="-0.625" fill="#F2B1B6" width="1191.647" height="842.334"/>
</g>
<g id="bgPump1" display="none">
	<rect x="-0.625" display="inline" opacity="0.49" fill="#CCDDD7" width="1191.647" height="842.334"/>
</g>
<g id="bgPump2" display="none">
	<rect x="-0.625" display="inline" opacity="0.5" fill="#EAE984" width="1191.647" height="842.334"/>
</g>
<g id="bgPump3" display="none">
	<rect x="-0.625" display="inline" opacity="0.5" fill="#EE8F78" width="1191.647" height="842.334"/>
</g>
<g id="bgPump4" display="none">
	<rect x="-0.625" display="inline" opacity="0.5" fill="#173434" width="1191.647" height="842.334"/>
</g>
<g id="bgStripes1" display="none">
	<rect x="-0.625" display="inline" fill="#5AA17B" width="1190.758" height="122.311"/>
	<rect x="-0.625" y="122.311" display="inline" fill="#F2B1B6" width="1191.647" height="163.772"/>
	<rect x="-0.625" y="286.083" display="inline" fill="#173434" width="1191.647" height="74.917"/>
	<rect x="-0.625" y="361" display="inline" fill="#EAE984" width="1191.647" height="167.404"/>
	<rect x="-0.625" y="528.404" display="inline" fill="#EE8F78" width="1191.647" height="194.303"/>
	<rect x="-0.625" y="722.707" display="inline" fill="#EAE984" width="1190.758" height="119.627"/>
</g>
<g id="bgStripes2" display="none">
	<rect x="-0.625" display="inline" fill="#EAE984" width="1190.758" height="122.311"/>
	<rect x="-0.625" y="122.311" display="inline" fill="#F2B1B6" width="1191.647" height="163.772"/>
	<rect x="-0.625" y="286.083" display="inline" fill="#CCDDD7" width="1191.647" height="74.917"/>
	<rect x="-0.625" y="361" display="inline" fill="#EAE984" width="1191.647" height="167.404"/>
	<rect x="-0.625" y="528.404" display="inline" fill="#5AA17B" width="1191.647" height="194.303"/>
	<rect x="-0.625" y="722.707" display="inline" fill="#EE8F78" width="1190.758" height="119.627"/>
</g>
<g id="bgStripes3" display="none">
	<rect x="-0.625" display="inline" fill="#F2B1B6" width="1190.758" height="122.311"/>
	<rect x="-0.625" y="122.311" display="inline" fill="#5AA17B" width="1191.647" height="163.772"/>
	<rect x="-0.625" y="286.083" display="inline" fill="#CCDDD7" width="1191.647" height="74.917"/>
	<rect x="-0.625" y="361" display="inline" fill="#EE8F78" width="1191.647" height="167.404"/>
	<rect x="-0.625" y="528.404" display="inline" fill="#EAE984" width="1191.647" height="194.303"/>
	<rect x="-0.625" y="722.707" display="inline" fill="#1F9C8D" width="1190.758" height="119.627"/>
</g>
<g id="bgStripes4" display="none">
	<rect x="-0.625" display="inline" fill="#EE8F78" width="1190.758" height="122.311"/>
	<rect x="-0.625" y="122.311" display="inline" fill="#5AA17B" width="1191.647" height="163.772"/>
	<rect x="-0.625" y="286.083" display="inline" fill="#F2B1B6" width="1191.647" height="74.917"/>
	<rect x="-0.625" y="361" display="inline" fill="#EAE984" width="1191.647" height="167.404"/>
	<rect x="-0.625" y="528.404" display="inline" fill="#EE8F78" width="1191.647" height="194.303"/>
	<rect x="-0.625" y="722.707" display="inline" fill="#CCDDD7" width="1190.758" height="119.627"/>
</g>
<g id="bgCoop3" display="none">
	<g display="inline">
		<circle fill="#173434" cx="56.958" cy="43.831" r="26"/>
		<circle fill="#173434" cx="175.859" cy="43.831" r="26"/>
		<circle fill="#173434" cx="294.76" cy="43.831" r="26"/>
		<circle fill="#173434" cx="413.662" cy="43.831" r="26"/>
		<circle fill="#173434" cx="532.563" cy="43.831" r="26"/>
		<circle fill="#173434" cx="651.465" cy="43.831" r="26"/>
		<circle fill="#173434" cx="770.366" cy="43.831" r="26"/>
		<circle fill="#173434" cx="889.268" cy="43.831" r="26"/>
		<circle fill="#173434" cx="1008.169" cy="43.831" r="26"/>
		<circle fill="#173434" cx="1127.07" cy="43.831" r="26"/>
		<circle fill="#173434" cx="1127.07" cy="149.123" r="26"/>
		<circle fill="#173434" cx="1127.07" cy="254.414" r="26"/>
		<circle fill="#173434" cx="1127.07" cy="359.706" r="26"/>
		<circle fill="#173434" cx="1127.07" cy="464.998" r="26"/>
		<circle fill="#173434" cx="1127.07" cy="570.289" r="26"/>
		<circle fill="#173434" cx="1127.07" cy="675.58" r="26"/>
		<circle fill="#173434" cx="1127.07" cy="780.871" r="26"/>
		<circle fill="#173434" cx="1008.168" cy="149.123" r="26"/>
		<circle fill="#173434" cx="1008.168" cy="254.415" r="26"/>
		<circle fill="#173434" cx="1008.168" cy="359.706" r="26"/>
		<circle fill="#173434" cx="1008.168" cy="464.998" r="26"/>
		<circle fill="#173434" cx="1008.168" cy="570.289" r="26"/>
		<circle fill="#173434" cx="1008.168" cy="675.58" r="26"/>
		<circle fill="#173434" cx="1008.168" cy="780.871" r="26"/>
		<circle fill="#173434" cx="889.266" cy="149.124" r="26"/>
		<circle fill="#173434" cx="889.266" cy="254.416" r="26"/>
		<circle fill="#173434" cx="889.266" cy="359.707" r="26"/>
		<circle fill="#173434" cx="889.266" cy="464.998" r="26"/>
		<circle fill="#173434" cx="889.266" cy="570.289" r="26"/>
		<circle fill="#173434" cx="889.266" cy="675.58" r="26"/>
		<circle fill="#173434" cx="889.266" cy="780.871" r="26"/>
		<circle fill="#173434" cx="770.363" cy="149.125" r="26"/>
		<circle fill="#173434" cx="770.363" cy="254.416" r="26"/>
		<circle fill="#173434" cx="770.363" cy="359.708" r="26"/>
		<circle fill="#173434" cx="770.363" cy="464.998" r="26"/>
		<circle fill="#173434" cx="770.363" cy="570.289" r="26"/>
		<circle fill="#173434" cx="770.363" cy="675.58" r="26"/>
		<circle fill="#173434" cx="770.363" cy="780.871" r="26"/>
		<circle fill="#173434" cx="651.461" cy="149.125" r="26"/>
		<circle fill="#173434" cx="651.461" cy="254.416" r="26"/>
		<circle fill="#173434" cx="651.461" cy="359.708" r="26"/>
		<circle fill="#173434" cx="651.461" cy="464.998" r="26"/>
		<circle fill="#173434" cx="651.461" cy="570.289" r="26"/>
		<circle fill="#173434" cx="651.461" cy="675.58" r="26"/>
		<circle fill="#173434" cx="651.461" cy="780.871" r="26"/>
		<circle fill="#173434" cx="532.559" cy="149.125" r="26"/>
		<circle fill="#173434" cx="532.559" cy="254.417" r="26"/>
		<circle fill="#173434" cx="532.559" cy="359.708" r="26"/>
		<circle fill="#173434" cx="532.559" cy="464.998" r="26"/>
		<circle fill="#173434" cx="532.559" cy="570.289" r="26"/>
		<circle fill="#173434" cx="532.559" cy="675.58" r="26"/>
		<circle fill="#173434" cx="532.559" cy="780.871" r="26"/>
		<circle fill="#173434" cx="413.656" cy="149.125" r="26"/>
		<circle fill="#173434" cx="413.656" cy="254.417" r="26"/>
		<circle fill="#173434" cx="413.656" cy="359.708" r="26"/>
		<circle fill="#173434" cx="413.656" cy="464.998" r="26"/>
		<circle fill="#173434" cx="413.656" cy="570.289" r="26"/>
		<circle fill="#173434" cx="413.656" cy="675.58" r="26"/>
		<circle fill="#173434" cx="413.656" cy="780.871" r="26"/>
		<circle fill="#173434" cx="294.754" cy="149.126" r="26"/>
		<circle fill="#173434" cx="294.754" cy="254.417" r="26"/>
		<circle fill="#173434" cx="294.754" cy="359.709" r="26"/>
		<circle fill="#173434" cx="294.754" cy="464.998" r="26"/>
		<circle fill="#173434" cx="294.754" cy="570.289" r="26"/>
		<circle fill="#173434" cx="294.754" cy="675.58" r="26"/>
		<circle fill="#173434" cx="294.754" cy="780.871" r="26"/>
		<circle fill="#173434" cx="175.852" cy="149.126" r="26"/>
		<circle fill="#173434" cx="175.852" cy="254.417" r="26"/>
		<circle fill="#173434" cx="175.852" cy="359.709" r="26"/>
		<circle fill="#173434" cx="175.852" cy="464.998" r="26"/>
		<circle fill="#173434" cx="175.852" cy="570.289" r="26"/>
		<circle fill="#173434" cx="175.852" cy="675.58" r="26"/>
		<circle fill="#173434" cx="175.852" cy="780.871" r="26"/>
		<circle fill="#173434" cx="56.949" cy="149.126" r="26"/>
		<circle fill="#173434" cx="56.949" cy="254.418" r="26"/>
		<circle fill="#173434" cx="56.949" cy="359.709" r="26"/>
		<circle fill="#173434" cx="56.949" cy="464.998" r="26"/>
		<circle fill="#173434" cx="56.949" cy="570.289" r="26"/>
		<circle fill="#173434" cx="56.949" cy="675.58" r="26"/>
		<circle fill="#173434" cx="56.949" cy="780.871" r="26"/>
	</g>
</g>
<g id="bgCoop2" display="none">
	<g display="inline">
		<circle fill="#EAE984" cx="56.958" cy="43.831" r="16"/>
		<circle fill="#EAE984" cx="175.859" cy="43.831" r="16"/>
		<circle fill="#EAE984" cx="294.76" cy="43.831" r="16"/>
		<circle fill="#EAE984" cx="413.662" cy="43.831" r="16"/>
		<circle fill="#EAE984" cx="532.563" cy="43.831" r="16"/>
		<circle fill="#EAE984" cx="651.465" cy="43.831" r="16"/>
		<circle fill="#EAE984" cx="770.366" cy="43.831" r="16"/>
		<circle fill="#EAE984" cx="889.268" cy="43.831" r="16"/>
		<circle fill="#EAE984" cx="1008.169" cy="43.831" r="16"/>
		<circle fill="#EAE984" cx="1127.07" cy="43.831" r="16"/>
		<circle fill="#EAE984" cx="1127.07" cy="149.123" r="16"/>
		<circle fill="#EAE984" cx="1127.07" cy="254.414" r="16"/>
		<circle fill="#EAE984" cx="1127.07" cy="359.706" r="16"/>
		<circle fill="#EAE984" cx="1127.07" cy="464.998" r="16"/>
		<circle fill="#EAE984" cx="1127.07" cy="570.289" r="16"/>
		<circle fill="#EAE984" cx="1127.07" cy="675.58" r="16"/>
		<circle fill="#EAE984" cx="1127.07" cy="780.871" r="16"/>
		<circle fill="#EAE984" cx="1008.168" cy="149.123" r="16"/>
		<circle fill="#EAE984" cx="1008.168" cy="254.415" r="16"/>
		<circle fill="#EAE984" cx="1008.168" cy="359.706" r="16"/>
		<circle fill="#EAE984" cx="1008.168" cy="464.998" r="16"/>
		<circle fill="#EAE984" cx="1008.168" cy="570.289" r="16"/>
		<circle fill="#EAE984" cx="1008.168" cy="675.58" r="16"/>
		<circle fill="#EAE984" cx="1008.168" cy="780.871" r="16"/>
		<circle fill="#EAE984" cx="889.266" cy="149.124" r="16"/>
		<circle fill="#EAE984" cx="889.266" cy="254.416" r="16"/>
		<circle fill="#EAE984" cx="889.266" cy="359.707" r="16"/>
		<circle fill="#EAE984" cx="889.266" cy="464.998" r="16"/>
		<circle fill="#EAE984" cx="889.266" cy="570.289" r="16"/>
		<circle fill="#EAE984" cx="889.266" cy="675.58" r="16"/>
		<circle fill="#EAE984" cx="889.266" cy="780.871" r="16"/>
		<circle fill="#EAE984" cx="770.363" cy="149.125" r="16"/>
		<circle fill="#EAE984" cx="770.363" cy="254.416" r="16"/>
		<circle fill="#EAE984" cx="770.363" cy="359.708" r="16"/>
		<circle fill="#EAE984" cx="770.363" cy="464.998" r="16"/>
		<circle fill="#EAE984" cx="770.363" cy="570.289" r="16"/>
		<circle fill="#EAE984" cx="770.363" cy="675.58" r="16"/>
		<circle fill="#EAE984" cx="770.363" cy="780.871" r="16"/>
		<circle fill="#EAE984" cx="651.461" cy="149.125" r="16"/>
		<circle fill="#EAE984" cx="651.461" cy="254.416" r="16"/>
		<circle fill="#EAE984" cx="651.461" cy="359.708" r="16"/>
		<circle fill="#EAE984" cx="651.461" cy="464.998" r="16"/>
		<circle fill="#EAE984" cx="651.461" cy="570.289" r="16"/>
		<circle fill="#EAE984" cx="651.461" cy="675.58" r="16"/>
		<circle fill="#EAE984" cx="651.461" cy="780.871" r="16"/>
		<circle fill="#EAE984" cx="532.559" cy="149.125" r="16"/>
		<circle fill="#EAE984" cx="532.559" cy="254.417" r="16"/>
		<circle fill="#EAE984" cx="532.559" cy="359.708" r="16"/>
		<circle fill="#EAE984" cx="532.559" cy="464.998" r="16"/>
		<circle fill="#EAE984" cx="532.559" cy="570.289" r="16"/>
		<circle fill="#EAE984" cx="532.559" cy="675.58" r="16"/>
		<circle fill="#EAE984" cx="532.559" cy="780.871" r="16"/>
		<circle fill="#EAE984" cx="413.656" cy="149.125" r="16"/>
		<circle fill="#EAE984" cx="413.656" cy="254.417" r="16"/>
		<circle fill="#EAE984" cx="413.656" cy="359.708" r="16"/>
		<circle fill="#EAE984" cx="413.656" cy="464.998" r="16"/>
		<circle fill="#EAE984" cx="413.656" cy="570.289" r="16"/>
		<circle fill="#EAE984" cx="413.656" cy="675.58" r="16"/>
		<circle fill="#EAE984" cx="413.656" cy="780.871" r="16"/>
		<circle fill="#EAE984" cx="294.754" cy="149.126" r="16"/>
		<circle fill="#EAE984" cx="294.754" cy="254.417" r="16"/>
		<circle fill="#EAE984" cx="294.754" cy="359.709" r="16"/>
		<circle fill="#EAE984" cx="294.754" cy="464.998" r="16"/>
		<circle fill="#EAE984" cx="294.754" cy="570.289" r="16"/>
		<circle fill="#EAE984" cx="294.754" cy="675.58" r="16"/>
		<circle fill="#EAE984" cx="294.754" cy="780.871" r="16"/>
		<circle fill="#EAE984" cx="175.852" cy="149.126" r="16"/>
		<circle fill="#EAE984" cx="175.852" cy="254.417" r="16"/>
		<circle fill="#EAE984" cx="175.852" cy="359.709" r="16"/>
		<circle fill="#EAE984" cx="175.852" cy="464.998" r="16"/>
		<circle fill="#EAE984" cx="175.852" cy="570.289" r="16"/>
		<circle fill="#EAE984" cx="175.852" cy="675.58" r="16"/>
		<circle fill="#EAE984" cx="175.852" cy="780.871" r="16"/>
		<circle fill="#EAE984" cx="56.949" cy="149.126" r="16"/>
		<circle fill="#EAE984" cx="56.949" cy="254.418" r="16"/>
		<circle fill="#EAE984" cx="56.949" cy="359.709" r="16"/>
		<circle fill="#EAE984" cx="56.949" cy="464.998" r="16"/>
		<circle fill="#EAE984" cx="56.949" cy="570.289" r="16"/>
		<circle fill="#EAE984" cx="56.949" cy="675.58" r="16"/>
		<circle fill="#EAE984" cx="56.949" cy="780.871" r="16"/>
	</g>
</g>
<g id="bgCoop1" display="none">
	<g display="inline">
		<circle fill="#5AA17B" cx="56.958" cy="43.831" r="8.708"/>
		<circle fill="#5AA17B" cx="175.859" cy="43.831" r="8.708"/>
		<circle fill="#5AA17B" cx="294.76" cy="43.831" r="8.708"/>
		<circle fill="#5AA17B" cx="413.662" cy="43.831" r="8.708"/>
		<circle fill="#5AA17B" cx="532.563" cy="43.831" r="8.708"/>
		<circle fill="#5AA17B" cx="651.464" cy="43.831" r="8.708"/>
		<circle fill="#5AA17B" cx="770.365" cy="43.831" r="8.708"/>
		<circle fill="#5AA17B" cx="889.267" cy="43.831" r="8.708"/>
		<circle fill="#5AA17B" cx="1008.168" cy="43.831" r="8.708"/>
		<circle fill="#5AA17B" cx="1127.069" cy="43.831" r="8.708"/>
		<circle fill="#5AA17B" cx="1127.069" cy="149.123" r="8.708"/>
		<circle fill="#5AA17B" cx="1127.069" cy="254.414" r="8.708"/>
		<circle fill="#5AA17B" cx="1127.069" cy="359.706" r="8.708"/>
		<circle fill="#5AA17B" cx="1127.069" cy="464.998" r="8.708"/>
		<circle fill="#5AA17B" cx="1127.069" cy="570.289" r="8.708"/>
		<circle fill="#5AA17B" cx="1127.069" cy="675.58" r="8.708"/>
		<circle fill="#5AA17B" cx="1127.069" cy="780.871" r="8.708"/>
		<circle fill="#5AA17B" cx="1008.167" cy="149.123" r="8.708"/>
		<circle fill="#5AA17B" cx="1008.167" cy="254.415" r="8.708"/>
		<circle fill="#5AA17B" cx="1008.167" cy="359.706" r="8.708"/>
		<circle fill="#5AA17B" cx="1008.167" cy="464.998" r="8.708"/>
		<circle fill="#5AA17B" cx="1008.167" cy="570.289" r="8.708"/>
		<circle fill="#5AA17B" cx="1008.167" cy="675.58" r="8.708"/>
		<circle fill="#5AA17B" cx="1008.167" cy="780.871" r="8.708"/>
		<circle fill="#5AA17B" cx="889.265" cy="149.124" r="8.708"/>
		<circle fill="#5AA17B" cx="889.265" cy="254.416" r="8.708"/>
		<circle fill="#5AA17B" cx="889.265" cy="359.707" r="8.708"/>
		<circle fill="#5AA17B" cx="889.265" cy="464.998" r="8.708"/>
		<circle fill="#5AA17B" cx="889.265" cy="570.289" r="8.708"/>
		<circle fill="#5AA17B" cx="889.265" cy="675.58" r="8.708"/>
		<circle fill="#5AA17B" cx="889.265" cy="780.871" r="8.708"/>
		<circle fill="#5AA17B" cx="770.362" cy="149.125" r="8.708"/>
		<circle fill="#5AA17B" cx="770.362" cy="254.416" r="8.708"/>
		<circle fill="#5AA17B" cx="770.362" cy="359.708" r="8.708"/>
		<circle fill="#5AA17B" cx="770.362" cy="464.998" r="8.708"/>
		<circle fill="#5AA17B" cx="770.362" cy="570.289" r="8.708"/>
		<circle fill="#5AA17B" cx="770.362" cy="675.58" r="8.708"/>
		<circle fill="#5AA17B" cx="770.362" cy="780.871" r="8.708"/>
		<circle fill="#5AA17B" cx="651.46" cy="149.125" r="8.708"/>
		<circle fill="#5AA17B" cx="651.46" cy="254.416" r="8.708"/>
		<circle fill="#5AA17B" cx="651.46" cy="359.708" r="8.708"/>
		<circle fill="#5AA17B" cx="651.46" cy="464.998" r="8.708"/>
		<circle fill="#5AA17B" cx="651.46" cy="570.289" r="8.708"/>
		<circle fill="#5AA17B" cx="651.46" cy="675.58" r="8.708"/>
		<circle fill="#5AA17B" cx="651.46" cy="780.871" r="8.708"/>
		<circle fill="#5AA17B" cx="532.558" cy="149.125" r="8.708"/>
		<circle fill="#5AA17B" cx="532.558" cy="254.417" r="8.708"/>
		<circle fill="#5AA17B" cx="532.558" cy="359.708" r="8.708"/>
		<circle fill="#5AA17B" cx="532.558" cy="464.998" r="8.708"/>
		<circle fill="#5AA17B" cx="532.558" cy="570.289" r="8.708"/>
		<circle fill="#5AA17B" cx="532.558" cy="675.58" r="8.708"/>
		<circle fill="#5AA17B" cx="532.558" cy="780.871" r="8.708"/>
		<circle fill="#5AA17B" cx="413.655" cy="149.125" r="8.708"/>
		<circle fill="#5AA17B" cx="413.655" cy="254.417" r="8.708"/>
		<circle fill="#5AA17B" cx="413.655" cy="359.708" r="8.708"/>
		<circle fill="#5AA17B" cx="413.655" cy="464.998" r="8.708"/>
		<circle fill="#5AA17B" cx="413.655" cy="570.289" r="8.708"/>
		<circle fill="#5AA17B" cx="413.655" cy="675.58" r="8.708"/>
		<circle fill="#5AA17B" cx="413.655" cy="780.871" r="8.708"/>
		<circle fill="#5AA17B" cx="294.753" cy="149.126" r="8.708"/>
		<circle fill="#5AA17B" cx="294.753" cy="254.417" r="8.708"/>
		<circle fill="#5AA17B" cx="294.753" cy="359.709" r="8.708"/>
		<circle fill="#5AA17B" cx="294.753" cy="464.998" r="8.708"/>
		<circle fill="#5AA17B" cx="294.753" cy="570.289" r="8.708"/>
		<circle fill="#5AA17B" cx="294.753" cy="675.58" r="8.708"/>
		<circle fill="#5AA17B" cx="294.753" cy="780.871" r="8.708"/>
		<circle fill="#5AA17B" cx="175.851" cy="149.126" r="8.708"/>
		<circle fill="#5AA17B" cx="175.851" cy="254.417" r="8.708"/>
		<circle fill="#5AA17B" cx="175.851" cy="359.709" r="8.708"/>
		<circle fill="#5AA17B" cx="175.851" cy="464.998" r="8.708"/>
		<circle fill="#5AA17B" cx="175.851" cy="570.289" r="8.708"/>
		<circle fill="#5AA17B" cx="175.851" cy="675.58" r="8.708"/>
		<circle fill="#5AA17B" cx="175.851" cy="780.871" r="8.708"/>
		<circle fill="#5AA17B" cx="56.948" cy="149.126" r="8.708"/>
		<circle fill="#5AA17B" cx="56.948" cy="254.418" r="8.708"/>
		<circle fill="#5AA17B" cx="56.948" cy="359.709" r="8.708"/>
		<circle fill="#5AA17B" cx="56.948" cy="464.998" r="8.708"/>
		<circle fill="#5AA17B" cx="56.948" cy="570.289" r="8.708"/>
		<circle fill="#5AA17B" cx="56.948" cy="675.58" r="8.708"/>
		<circle fill="#5AA17B" cx="56.948" cy="780.871" r="8.708"/>
	</g>
</g>
<g id="earHandle">
	<g>
		<rect x="295.634" y="224.06" fill="#1F9C8D" width="26.558" height="93.07"/>
		<rect x="322.192" y="246.613" fill="#EAE984" width="245.378" height="45.173"/>
	</g>
</g>
<g id="coopColored">
	<rect x="914.649" y="59.986" fill="#EE8F78" width="173.748" height="146.568"/>
	<path fill="#1F9C8D" d="M914.649,59.986h174.514C1089.163,59.986,1005.211-43.775,914.649,59.986z"/>
	<rect x="914.566" y="204.177" fill="#EAE984" width="22.949" height="637.713"/>
	<rect x="1065.428" y="204.177" fill="#EAE984" width="22.949" height="637.713"/>
</g>
<g id="coopBlack" display="none">
	<rect x="914.566" y="204.177" display="inline" fill="#173434" width="22.949" height="637.713"/>
	<rect x="1065.428" y="204.177" display="inline" fill="#173434" width="22.949" height="637.713"/>
	<rect x="914.649" y="59.986" display="inline" fill="#173434" width="173.748" height="146.568"/>
	<path display="inline" fill="#173434" d="M914.649,60.986h174.514C1089.163,60.986,1005.211-42.775,914.649,60.986z"/>
</g>
<g id="pump">
	<g>
		<rect x="36.508" y="656.448" fill="#5AA17B" width="53.291" height="33.913"/>
		<rect x="53.042" y="690.361" fill="#CCDDD7" width="19.377" height="144.371"/>
	</g>
</g>
<g id="layer1">
	<rect x="25.942" y="763.404" fill="#173434" width="367.231" height="78.485"/>
	<path fill="#EAE984" d="M231.36,808.944c0-8.294-6.724-15.017-15.02-15.017h-34.882c-8.294,0-15.018,6.723-15.018,15.017v32.945
		h64.919V808.944z"/>
	<rect x="102.799" y="742.113" fill="#5AA17B" width="209.294" height="21.291"/>
	<rect x="930.065" y="754.934" fill="#1F9C8D" width="179.529" height="68.844"/>
	<rect x="1094.207" y="768.692" fill="#1F9C8D" width="56.201" height="37.789"/>
	<rect x="1103.898" y="749.818" fill="#EE8F78" width="39.725" height="18.874"/>
	<rect x="1065.137" y="801.948" fill="#EE8F78" width="124.996" height="40.386"/>
	<rect x="39.508" y="689.732" fill="#5AA17B" width="47.478" height="73.896"/>
	<path fill="#CCDDD7" d="M834.818,489.159c0,12.165-10.005,22.027-22.349,22.027H381.802c-12.34,0-22.348-9.862-22.348-22.027
		V94.413c0-12.165,10.007-22.026,22.348-22.026H812.47c12.344,0,22.349,9.862,22.349,22.026V489.159z"/>
	<rect x="595.811" y="227.079" fill="#1F9C8D" width="17.121" height="145.13"/>
	<polygon fill="#CCDDD7" points="688.796,561.553 743.566,561.553 743.566,541.237 794.588,541.237 812.132,523.693 
		665.364,523.693 665.364,561.553 	"/>
	<polygon fill="#CCDDD7" points="533.771,559.553 479,559.553 479,539.237 427.977,539.237 410.433,521.693 557.201,521.693 
		557.201,559.553 	"/>
	<path fill="#EE8F78" d="M494.794,168.641c0,0,194.539,0.689,194.43,5.024c-0.109,4.336-36.699,68.888-36.699,68.888
		s-52.518-34.195-105.393,4.06L494.794,168.641z"/>
	<rect x="1080.228" y="255.037" fill="#EAE984" width="70.866" height="62.093"/>
	<path fill="#EAE984" d="M231.36,808.944c0-8.294-6.724-15.017-15.02-15.017h-34.882c-8.294,0-15.018,6.723-15.018,15.017v32.945
		h64.919V808.944z"/>
</g>
<g id="coopButton">
	<g id="coopButtonBg">
		<rect x="945.834" y="71.334" fill="#CCDDD7" width="112.146" height="116.244"/>
	</g>
	<g id="coopButtonCenter">
		<rect x="970.34" y="97.888" fill="#173434" width="63.135" height="63.137"/>
	</g>
</g>
<g id="nose">
	<rect x="523.911" y="327" fill="#EE8F78" width="124.778" height="44.703"/>
</g>
<g id="mot">
	<rect x="318.37" y="432.676" fill="#EE8F78" width="562.54" height="41.158"/>
</g>
<g id="openMouthDown" display="none">
	<rect x="409.354" y="144.33" display="inline" fill="#1F9C8D" width="400.857" height="397.158"/>
	<path display="inline" fill="#1F9C8D" d="M504.384,534.672c60.935,60.936,159.729,60.936,220.665,0l12.889-12.89H491.496
		L504.384,534.672z"/>
	<rect x="441.672" y="162.69" display="inline" fill="#173434" width="346.087" height="348.133"/>
	<rect x="440.276" y="481.687" display="inline" fill="#EAE984" width="294.265" height="29.137"/>
</g>
<g id="closedMouthUp">
	<rect x="407.387" y="371.703" fill="#1F9C8D" width="402.791" height="81.297"/>
	<rect x="439.862" y="390.152" fill="#173434" width="347.756" height="62.848"/>
</g>
<g id="closedMouthDown">
	<rect x="407.387" y="451" fill="#1F9C8D" width="402.791" height="79.693"/>
	<path fill="#1F9C8D" d="M502.876,525.137c61.229,61.229,160.501,61.229,221.729,0l12.951-12.95H489.925L502.876,525.137z"/>
	<rect x="439.862" y="444.277" fill="#173434" width="347.756" height="65.705"/>
	<g id="teethDown">
		<rect x="439.944" y="480.834" fill="#EAE984" width="295.685" height="29.279"/>
	</g>
</g>
<g id="teethUp">
	<g id="tooth1">
		<rect x="531.147" y="390.152" fill="#CCDDD7" width="42.524" height="42.523"/>
	</g>
	<g id="tooth2">
		<rect x="573.937" y="390.152" fill="#EAE984" width="42.523" height="42.523"/>
	</g>
	<g id="tooth3">
		<rect x="616.727" y="390.152" fill="#F2B1B6" width="42.523" height="42.523"/>
	</g>
	<g id="tooth4">
		<rect x="659.516" y="390.152" fill="#CCDDD7" width="42.523" height="42.523"/>
	</g>
	<g id="tooth5">
		<rect x="702.305" y="390.152" fill="#EAE984" width="42.524" height="42.523"/>
	</g>
	<g id="tooth6">
		<rect x="745.095" y="390.152" fill="#F2B1B6" width="42.523" height="42.523"/>
	</g>
</g>
<g id="pumpLight" display="none">
	<path display="inline" fill="#CCDDD7" d="M231.36,808.944c0-8.294-6.724-15.017-15.02-15.017h-34.882
		c-8.294,0-15.018,6.723-15.018,15.017v32.945h64.919V808.944z"/>
</g>
<g id="pumpHouse">
	<rect x="102.799" y="539.579" fill="#EAE984" width="209.294" height="223.825"/>
	<rect x="326.626" y="557.021" fill="#1F9C8D" width="29.068" height="116.272"/>
	<rect x="333.276" y="673.293" fill="#173434" width="15.855" height="17.439"/>
	<rect x="326.626" y="690.732" fill="#1F9C8D" width="29.068" height="56.201"/>
	<rect x="312.093" y="570.419" fill="#173434" width="37.789" height="18.758"/>
	<polygon fill="#5AA17B" points="207.446,473.834 102.799,539.579 312.093,539.579 	"/>
	<g id="pumpColors1">
		<g>
			<path fill="#EE8F78" d="M310.156,577.366c0,5.354-4.339,9.689-9.689,9.689h-184.1c-5.352,0-9.689-4.336-9.689-9.689l0,0
				c0-5.351,4.337-9.689,9.689-9.689h184.1C305.816,567.677,310.156,572.016,310.156,577.366L310.156,577.366z"/>
			<path fill="#F2B1B6" d="M310.156,600.623c0,5.35-4.339,9.688-9.689,9.688h-184.1c-5.352,0-9.689-4.338-9.689-9.688l0,0
				c0-5.353,4.337-9.689,9.689-9.689h184.1C305.816,590.934,310.156,595.271,310.156,600.623L310.156,600.623z"/>
			<path fill="#1F9C8D" d="M310.156,623.878c0,5.349-4.339,9.689-9.689,9.689h-184.1c-5.352,0-9.689-4.341-9.689-9.689l0,0
				c0-5.353,4.337-9.689,9.689-9.689h184.1C305.816,614.188,310.156,618.525,310.156,623.878L310.156,623.878z"/>
			<path fill="#EE8F78" d="M310.156,646.163c0,5.353-4.339,9.688-9.689,9.688h-184.1c-5.352,0-9.689-4.336-9.689-9.688l0,0
				c0-5.351,4.337-9.692,9.689-9.692h184.1C305.816,636.471,310.156,640.812,310.156,646.163L310.156,646.163z"/>
			<path fill="#F2B1B6" d="M310.156,668.449c0,5.35-4.339,9.689-9.689,9.689h-184.1c-5.352,0-9.689-4.34-9.689-9.689l0,0
				c0-5.353,4.337-9.688,9.689-9.688h184.1C305.816,658.761,310.156,663.097,310.156,668.449L310.156,668.449z"/>
			<path fill="#1F9C8D" d="M310.156,690.732c0,5.351-4.339,9.691-9.689,9.691h-184.1c-5.352,0-9.689-4.341-9.689-9.691l0,0
				c0-5.35,4.337-9.688,9.689-9.688h184.1C305.816,681.045,310.156,685.383,310.156,690.732L310.156,690.732z"/>
			<path fill="#EE8F78" d="M310.156,713.02c0,5.352-4.339,9.688-9.689,9.688h-184.1c-5.352,0-9.689-4.336-9.689-9.688l0,0
				c0-5.353,4.337-9.688,9.689-9.688h184.1C305.816,703.332,310.156,707.667,310.156,713.02L310.156,713.02z"/>
		</g>
	</g>
	<g id="pumpColors2">
		<g>
			<path fill="#1F9C8D" d="M310.156,577.366c0,5.354-4.339,9.689-9.689,9.689h-184.1c-5.352,0-9.689-4.336-9.689-9.689l0,0
				c0-5.351,4.337-9.689,9.689-9.689h184.1C305.816,567.677,310.156,572.016,310.156,577.366L310.156,577.366z"/>
			<path fill="#EE8F78" d="M310.156,600.623c0,5.35-4.339,9.688-9.689,9.688h-184.1c-5.352,0-9.689-4.338-9.689-9.688l0,0
				c0-5.353,4.337-9.689,9.689-9.689h184.1C305.816,590.934,310.156,595.271,310.156,600.623L310.156,600.623z"/>
			<path fill="#F2B1B6" d="M310.156,623.878c0,5.349-4.339,9.689-9.689,9.689h-184.1c-5.352,0-9.689-4.341-9.689-9.689l0,0
				c0-5.353,4.337-9.689,9.689-9.689h184.1C305.816,614.188,310.156,618.525,310.156,623.878L310.156,623.878z"/>
			<path fill="#1F9C8D" d="M310.156,646.163c0,5.353-4.339,9.688-9.689,9.688h-184.1c-5.352,0-9.689-4.336-9.689-9.688l0,0
				c0-5.351,4.337-9.692,9.689-9.692h184.1C305.816,636.471,310.156,640.812,310.156,646.163L310.156,646.163z"/>
			<path fill="#EE8F78" d="M310.156,668.449c0,5.35-4.339,9.689-9.689,9.689h-184.1c-5.352,0-9.689-4.34-9.689-9.689l0,0
				c0-5.353,4.337-9.688,9.689-9.688h184.1C305.816,658.761,310.156,663.097,310.156,668.449L310.156,668.449z"/>
			<path fill="#F2B1B6" d="M310.156,690.732c0,5.351-4.339,9.691-9.689,9.691h-184.1c-5.352,0-9.689-4.341-9.689-9.691l0,0
				c0-5.35,4.337-9.688,9.689-9.688h184.1C305.816,681.045,310.156,685.383,310.156,690.732L310.156,690.732z"/>
			<path fill="#1F9C8D" d="M310.156,713.02c0,5.352-4.339,9.688-9.689,9.688h-184.1c-5.352,0-9.689-4.336-9.689-9.688l0,0
				c0-5.353,4.337-9.688,9.689-9.688h184.1C305.816,703.332,310.156,707.667,310.156,713.02L310.156,713.02z"/>
		</g>
	</g>
	<g id="pumpColors3">
		<g>
			<path fill="#F2B1B6" d="M310.156,577.366c0,5.354-4.339,9.689-9.689,9.689h-184.1c-5.352,0-9.689-4.336-9.689-9.689l0,0
				c0-5.351,4.337-9.689,9.689-9.689h184.1C305.816,567.677,310.156,572.016,310.156,577.366L310.156,577.366z"/>
			<path fill="#1F9C8D" d="M310.156,600.623c0,5.35-4.339,9.688-9.689,9.688h-184.1c-5.352,0-9.689-4.338-9.689-9.688l0,0
				c0-5.353,4.337-9.689,9.689-9.689h184.1C305.816,590.934,310.156,595.271,310.156,600.623L310.156,600.623z"/>
			<path fill="#EE8F78" d="M310.156,623.878c0,5.349-4.339,9.689-9.689,9.689h-184.1c-5.352,0-9.689-4.341-9.689-9.689l0,0
				c0-5.353,4.337-9.689,9.689-9.689h184.1C305.816,614.188,310.156,618.525,310.156,623.878L310.156,623.878z"/>
			<path fill="#F2B1B6" d="M310.156,646.163c0,5.353-4.339,9.688-9.689,9.688h-184.1c-5.352,0-9.689-4.336-9.689-9.688l0,0
				c0-5.351,4.337-9.692,9.689-9.692h184.1C305.816,636.471,310.156,640.812,310.156,646.163L310.156,646.163z"/>
			<path fill="#1F9C8D" d="M310.156,668.449c0,5.35-4.339,9.689-9.689,9.689h-184.1c-5.352,0-9.689-4.34-9.689-9.689l0,0
				c0-5.353,4.337-9.688,9.689-9.688h184.1C305.816,658.761,310.156,663.097,310.156,668.449L310.156,668.449z"/>
			<path fill="#EE8F78" d="M310.156,690.732c0,5.351-4.339,9.691-9.689,9.691h-184.1c-5.352,0-9.689-4.341-9.689-9.691l0,0
				c0-5.35,4.337-9.688,9.689-9.688h184.1C305.816,681.045,310.156,685.383,310.156,690.732L310.156,690.732z"/>
			<path fill="#F2B1B6" d="M310.156,713.02c0,5.352-4.339,9.688-9.689,9.688h-184.1c-5.352,0-9.689-4.336-9.689-9.688l0,0
				c0-5.353,4.337-9.688,9.689-9.688h184.1C305.816,703.332,310.156,707.667,310.156,713.02L310.156,713.02z"/>
		</g>
	</g>
</g>
<g id="earLeft">
	<path fill="#1F9C8D" d="M319.667,202.017c-16.07,0-29.097,13.027-29.097,29.097v85.358c0,16.07,13.027,29.097,29.097,29.097h39.366
		V202.017H319.667z"/>
</g>
<g id="earRight">
	<path fill="#1F9C8D" d="M874.186,203.261c16.069,0,29.097,13.027,29.097,29.097v85.358c0,16.07-13.027,29.097-29.097,29.097
		h-39.367V203.261H874.186z"/>
</g>
<g id="earRightYellow">
	<path fill="#EAE984" d="M874.186,203.261c16.069,0,29.097,13.027,29.097,29.097v85.358c0,16.07-13.027,29.097-29.097,29.097
		h-39.367V203.261H874.186z"/>
</g>
<g id="lightningButton">
	<rect x="47.611" y="40.326" fill="#173434" width="156.934" height="156.934"/>
	<g id="smallLightning">
		<polygon fill="#EAE984" points="108.521,55.225 159.739,55.312 127.562,104.336 150.715,141.229 114.284,189.397 130.281,139.654 
			102.686,105.757 		"/>
	</g>
</g>
<g id="eyes">
	<g id="eyeLines">
		<polygon fill="#1F9C8D" points="689.225,303.238 689.225,313.634 698.132,313.634 698.132,305.809 		"/>
		<rect x="709.167" y="303.002" fill="#1F9C8D" width="11.579" height="11.581"/>
		<polyline fill="#1F9C8D" points="458.474,300.576 458.474,317.008 468.504,317.008 468.504,305.27 		"/>
		<rect x="491.837" y="305.025" fill="#1F9C8D" width="10.031" height="11.983"/>
	</g>
	<g id="eyeLeft">
		<circle fill="#173434" cx="485.581" cy="225.991" r="80.279"/>
		<circle fill="#1F9C8D" cx="422.109" cy="226.781" r="7.821"/>
		<g id="eyeballLeft">
			<circle fill="#EAE984" cx="485.581" cy="225.991" r="45.873"/>
			<circle fill="#1F9C8D" cx="485.581" cy="225.991" r="35.448"/>
			<circle fill="#F2B1B6" cx="485.581" cy="225.991" r="27.108"/>
			<path fill="#173434" d="M502.13,226.289c0,9.138-7.411,16.546-16.549,16.546c-9.133,0-16.549-7.408-16.549-16.546
				c0-9.136,7.416-16.546,16.549-16.546C494.719,209.743,502.13,217.152,502.13,226.289z"/>
		</g>
	</g>
	<g id="eyeRight">
		<circle fill="#F2B1B6" cx="714.957" cy="231.492" r="76.204"/>
		<path fill="#1F9C8D" d="M779.284,223.576c0,4.098-3.321,7.421-7.423,7.421c-4.099,0-7.421-3.323-7.421-7.421
			c0-4.102,3.322-7.423,7.421-7.423C775.963,216.153,779.284,219.474,779.284,223.576z"/>
		<g id="eyeballRight">
			<circle fill="#EAE984" cx="714.956" cy="231.492" r="43.545"/>
			<circle fill="#1F9C8D" cx="714.957" cy="231.492" r="33.648"/>
			<circle fill="#CCDDD7" cx="714.956" cy="231.492" r="25.731"/>
			<circle fill="#173434" cx="714.957" cy="231.492" r="5.939"/>
		</g>
	</g>
	<g id="eyeBrawLeft">
		<g>
			<path fill="#1F9C8D" d="M374.558,147.587c-0.424,14.545,2.143,16.905,27.816,27.566c50.757,21.074,140.35,50.308,140.35,50.308
				c19.857,2.318,37.815-9.537,40.135-29.396l3.194-43c2.318-19.859-11.899-37.833-31.76-40.154l-138.1-16.12
				c-19.857-2.318-37.835,11.901-40.152,31.758L374.558,147.587z"/>
			<circle fill="#EAE984" cx="559.33" cy="148.948" r="12.197"/>
		</g>
	</g>
	<g id="eyeBrawRight">
		<path fill="#1F9C8D" d="M814.87,149.837c0.426,14.545-2.142,16.905-27.815,27.566c-50.759,21.074-140.35,50.308-140.35,50.308
			c-19.858,2.318-37.816-9.538-40.135-29.396l-3.196-43c-2.316-19.858,11.901-37.833,31.76-40.153l138.102-16.12
			c19.856-2.318,37.834,11.901,40.151,31.758L814.87,149.837z"/>
	</g>
</g>
<g id="surprised" display="none">
	<g id="eyeLeftSur" display="inline">
		<circle fill="#173434" cx="490.959" cy="232.927" r="57.432"/>
		<circle fill="#EAE984" cx="490.959" cy="233.495" r="35.954"/>
		<path fill="#1F9C8D" d="M516.321,232.927c0,14.008-11.355,25.363-25.362,25.363c-14.003,0-25.359-11.355-25.359-25.363
			c0-14.005,11.355-25.359,25.359-25.359C504.966,207.568,516.321,218.922,516.321,232.927z"/>
		<circle fill="#F2B1B6" cx="490.959" cy="232.927" r="19.394"/>
		<path fill="#173434" d="M500.201,233.141c0,5.104-4.138,9.243-9.242,9.243c-5.099,0-9.242-4.138-9.242-9.243
			c0-5.1,4.143-9.241,9.242-9.241C496.063,223.899,500.201,228.041,500.201,233.141z"/>
		<path fill="#1F9C8D" d="M451.146,233.493c0,3.091-2.505,5.596-5.594,5.596c-3.09,0-5.595-2.505-5.595-5.596
			c0-3.087,2.505-5.593,5.595-5.593C448.641,227.9,451.146,230.405,451.146,233.493z"/>
	</g>
	<g id="eyeLInesSur" display="inline">
		<polyline fill="#1F9C8D" points="471.566,287.004 471.566,298.758 478.742,298.758 478.742,290.361 		"/>
		<rect x="495.436" y="290.187" fill="#1F9C8D" width="7.176" height="8.572"/>
		<polygon fill="#1F9C8D" points="685.597,338.729 685.597,353.497 698.248,353.497 698.248,342.381 		"/>
		<rect x="730.588" y="345.063" fill="#1F9C8D" width="8.437" height="8.433"/>
	</g>
	<g id="eyeRightSur" display="inline">
		<circle fill="#F2B1B6" cx="722.151" cy="236.809" r="108.256"/>
		<path fill="#EAE984" d="M784.01,236.809c0,34.162-27.694,61.858-61.858,61.858s-61.859-27.696-61.859-61.858
			c0-34.167,27.695-61.862,61.859-61.862S784.01,202.642,784.01,236.809z"/>
		<path fill="#1F9C8D" d="M769.951,236.809c0,26.398-21.401,47.8-47.8,47.8s-47.801-21.402-47.801-47.8
			c0-26.403,21.402-47.802,47.801-47.802S769.951,210.405,769.951,236.809z"/>
		<path fill="#CCDDD7" d="M758.703,236.809c0,20.186-16.364,36.549-36.552,36.549c-20.188,0-36.555-16.364-36.555-36.549
			c0-20.19,16.366-36.554,36.555-36.554C742.339,200.255,758.703,216.619,758.703,236.809z"/>
		<path fill="#173434" d="M743.607,236.809c0,11.847-9.604,21.453-21.456,21.453c-11.84,0-21.459-9.605-21.459-21.453
			c0-11.854,9.619-21.455,21.459-21.455C734.004,215.354,743.607,224.954,743.607,236.809z"/>
		<path fill="#1F9C8D" d="M806.584,226.737c0,5.38-4.356,9.74-9.742,9.74c-5.379,0-9.739-4.36-9.739-9.74
			c0-5.384,4.36-9.743,9.739-9.743C802.228,216.994,806.584,221.353,806.584,226.737z"/>
	</g>
	<g id="eyeBrawRightSur" display="inline">
		<path fill="#1F9C8D" d="M840.522,173.004c-7.854,12.775-11.403,13.357-39.559,8.027c-55.663-10.542-149.408-36.01-149.408-36.01
			c-18.426-9.231-27.198-29.604-17.966-48.03l21.563-38.866c9.232-18.425,31.649-25.876,50.075-16.646l128.138,64.204
			c18.427,9.23,25.876,31.65,16.646,50.075L840.522,173.004z"/>
	</g>
	<g id="eyeBrawLeftSur" display="inline">
		<path fill="#1F9C8D" d="M356.263,230.547c6.873,13.333,10.366,14.18,38.842,10.989c56.299-6.313,151.699-24.639,151.699-24.639
			c19.068-7.815,29.354-27.467,21.54-46.538l-18.571-40.381c-7.815-19.07-29.607-28.192-48.681-20.376l-132.613,54.353
			c-19.068,7.815-28.191,29.609-20.375,48.677L356.263,230.547z"/>
		<circle fill="#EAE984" cx="523.613" cy="139.596" r="12.573"/>
	</g>
</g>
<g id="ladder">
	<g id="step7">
		<rect x="937.516" y="689.732" fill="#CCDDD7" width="127.621" height="42.373"/>
	</g>
	<g id="step6">
		<rect x="937.516" y="618.732" fill="#EE8F78" width="127.621" height="42.373"/>
	</g>
	<g id="step5">
		<rect x="937.516" y="547.732" fill="#1F9C8D" width="127.621" height="42.373"/>
	</g>
	<g id="step4">
		<rect x="937.516" y="476.732" fill="#173434" width="127.621" height="42.373"/>
	</g>
	<g id="step3">
		<rect x="937.516" y="405.732" fill="#CCDDD7" width="127.621" height="42.373"/>
	</g>
	<g id="step2">
		<rect x="937.516" y="334.732" fill="#EE8F78" width="127.621" height="42.373"/>
	</g>
	<g id="step1">
		<rect x="937.516" y="263.732" fill="#1F9C8D" width="127.621" height="42.373"/>
	</g>
</g>
<g id="glasses" display="none">
	<polygon display="inline" fill="#EAE984" points="595.801,-3.241 595.801,48.778 538.477,48.778 538.477,122.18 662.972,122.18 
		662.972,-3.241 	"/>
	<g id="glassesLeft" display="inline">
		<ellipse fill="#EAE984" cx="489.945" cy="242.241" rx="98.277" ry="98.282"/>
		<path fill="#1F9C8D" d="M574.272,242.241c0,46.574-37.758,84.33-84.329,84.33c-46.572,0-84.326-37.756-84.326-84.33
			c0-46.57,37.754-84.328,84.326-84.328C536.515,157.913,574.272,195.67,574.272,242.241z"/>
		<circle fill="#F2B1B6" stroke="#F2B1B6" cx="502.72" cy="206.465" r="22.999"/>
		<circle fill="#CCDDD7" cx="507.832" cy="272.907" r="23"/>
		<circle fill="#EE8F78" stroke="#EE8F78" cx="451.613" cy="242.241" r="22.996"/>
	</g>
	<path display="inline" fill="#EE8F78" stroke="#EE8F78" d="M654.614,183.465l-13.978-11.604v-48.524h-77.141v53.752v30.159
		l-60.774,29.347l71.551,5.646l13.095-12.775h30.021l10.571,7.129C627.959,236.594,629.704,209.442,654.614,183.465z"/>
	<path display="inline" fill="#173434" d="M640.637,143.962c0,0,50.317,1.017,72.708,16.065
		c-35.234,7.586-58.73,23.438-58.73,23.438l-13.978-11.604V143.962z"/>
	<path display="inline" fill="#173434" d="M563.496,143.962l-43.751,4.614c0,0,31.888,11.956,43.751,28.512V143.962z"/>
	<g id="glassesRight" display="inline">
		<path fill="none" stroke="#EC008C" d="M655.854,245.409c0,31.938,25.663,57.865,57.49,58.312V187.099
			C681.518,187.553,655.854,213.479,655.854,245.409z"/>
		<path fill="#F2B1B6" stroke="#F2B1B6" d="M798.729,245.409c0,47.16-38.231,85.389-85.384,85.389
			c-47.156,0-85.386-38.229-85.386-85.389c0-47.153,38.229-85.381,85.386-85.381C760.497,160.028,798.729,198.255,798.729,245.409z"
			/>
		<path fill="#EAE984" d="M713.345,245.409L684.6,195.158c0,0,13.104-9.938,28.745-8.059V245.409z"/>
		<path fill="#EE8F78" stroke="#EE8F78" d="M713.345,245.409l-57.49-7.491c0,0,3.38-28.767,28.745-42.76L713.345,245.409z"/>
		<path fill="#173434" d="M713.345,245.409l-57.49-7.491c0,0-5.251,34.544,20.249,53.001L713.345,245.409z"/>
		<polygon fill="#F2B1B6" stroke="#F2B1B6" points="713.345,245.409 677.413,290.674 691.361,299.516 		"/>
		<path fill="#EAE984" d="M713.345,245.409l-21.983,54.107c0,0,5.67,3.435,9.742,4.205c11,2.084,12.241,0,12.241,0V245.409z"/>
		<path fill="#1F9C8D" d="M655.367,245.409c0-32.482,26.336-58.818,58.82-58.818v-14.729c-40.62,0-73.551,32.932-73.551,73.548
			c0,40.623,32.931,73.553,73.551,73.553v-14.732C681.703,304.229,655.367,277.896,655.367,245.409z"/>
		<path fill="#1F9C8D" d="M714.188,186.98c-0.284,0-0.562,1.018-0.843,1.021v116.623c0.281,0.006,0.559,0.023,0.843,0.023
			c32.214,0,58.331-26.117,58.331-58.336C772.519,214.097,746.401,186.98,714.188,186.98z"/>
		<path fill="#EAE984" d="M713.188,171.861v14.729c32.482,0,58.817,26.336,58.817,58.818c0,32.487-26.335,58.82-58.817,58.82v14.732
			c40.622,0,73.548-32.93,73.548-73.553C786.735,204.792,753.81,171.861,713.188,171.861z"/>
	</g>
</g>
<g id="lightning" display="none">
	<polygon display="inline" fill="#EAE984" points="460.262,0.728 782.736,1.275 580.15,309.944 725.921,542.204 496.537,845.493 
		597.252,532.309 423.517,318.876 	"/>
</g>
<g id="electricWhite" display="none">
	<rect y="0.9" display="inline" fill="#FFFFFF" width="1190.133" height="841.434"/>
	<path display="inline" fill="#231F20" stroke="#FFFFFF" stroke-width="5" d="M851.708,483.038c0,11.856-9.752,21.469-21.782,21.469
		H410.174c-12.028,0-21.781-9.612-21.781-21.469V98.297c0-11.856,9.753-21.468,21.781-21.468h419.752
		c12.03,0,21.782,9.612,21.782,21.468V483.038z"/>
	
		<rect x="348.35" y="427.986" display="inline" fill="#231F20" stroke="#FFFFFF" stroke-width="5" width="565.465" height="40.116"/>
	
		<rect x="435.11" y="368.559" display="inline" fill="#231F20" stroke="#FFFFFF" stroke-width="5" width="392.582" height="388.957"/>
	
		<rect x="598.102" y="227.601" display="inline" fill="#231F20" stroke="#FFFFFF" stroke-width="5" width="48.802" height="141.451"/>
	
		<rect x="548.681" y="339.519" display="inline" fill="#231F20" stroke="#FFFFFF" stroke-width="5" width="121.616" height="29.04"/>
	<polygon display="inline" fill="#231F20" stroke="#FFFFFF" stroke-width="5" points="709.387,794.416 762.77,794.416 
		762.77,774.615 812.497,774.615 829.597,757.516 686.549,757.516 686.549,794.416 	"/>
	<polygon display="inline" fill="#231F20" stroke="#FFFFFF" stroke-width="5" points="553.417,794.416 500.035,794.416 
		500.035,774.615 450.305,774.615 433.206,757.516 576.254,757.516 576.254,794.416 	"/>
	<path display="inline" fill="#231F20" stroke="#FFFFFF" stroke-width="5" d="M528.179,768.471
		c59.678,59.678,156.433,59.678,216.11,0l12.622-12.623H515.557L528.179,768.471z"/>
	<path display="inline" fill="#231F20" stroke="#FFFFFF" stroke-width="5" d="M520.302,170.645c0,0,189.608,0.671,189.501,4.897
		c-0.105,4.226-35.769,67.142-35.769,67.142s-51.186-33.329-102.721,3.957L520.302,170.645z"/>
	
		<rect x="466.762" y="386.541" display="inline" fill="#FFFFFF" stroke="#231F20" stroke-width="5" width="338.942" height="340.948"/>
	
		<rect x="465.393" y="698.951" display="inline" fill="#231F20" stroke="#FFFFFF" stroke-width="5" width="288.192" height="28.537"/>
	
		<rect x="555.733" y="386.541" display="inline" fill="#231F20" stroke="#FFFFFF" stroke-width="5" width="41.445" height="41.446"/>
	
		<rect x="597.438" y="386.541" display="inline" fill="#231F20" stroke="#FFFFFF" stroke-width="5" width="41.446" height="41.446"/>
	
		<rect x="639.144" y="386.541" display="inline" fill="#231F20" stroke="#FFFFFF" stroke-width="5" width="41.445" height="41.446"/>
	
		<rect x="680.848" y="386.541" display="inline" fill="#231F20" stroke="#FFFFFF" stroke-width="5" width="41.446" height="41.446"/>
	
		<rect x="722.553" y="386.541" display="inline" fill="#231F20" stroke="#FFFFFF" stroke-width="5" width="41.446" height="41.446"/>
	
		<rect x="764.259" y="386.541" display="inline" fill="#231F20" stroke="#FFFFFF" stroke-width="5" width="41.445" height="41.446"/>
	<circle display="inline" fill="#231F20" stroke="#FFFFFF" stroke-width="5" cx="516.285" cy="227.14" r="54.304"/>
	<circle display="inline" fill="#231F20" stroke="#FFFFFF" stroke-width="5" cx="516.285" cy="227.14" r="31.031"/>
	<circle display="inline" fill="#231F20" stroke="#FFFFFF" stroke-width="5" cx="516.286" cy="227.14" r="23.979"/>
	<circle display="inline" fill="#231F20" stroke="#FFFFFF" stroke-width="5" cx="516.285" cy="227.14" r="18.337"/>
	<circle display="inline" fill="#231F20" stroke="#FFFFFF" stroke-width="5" cx="516.285" cy="227.342" r="4.017"/>
	<polyline display="inline" fill="#231F20" stroke="#FFFFFF" stroke-width="5" points="497.948,278.271 497.948,289.384 
		504.733,289.384 504.733,281.444 	"/>
	<rect x="520.518" y="281.279" display="inline" fill="#231F20" stroke="#FFFFFF" stroke-width="5" width="6.785" height="8.105"/>
	<path display="inline" fill="#231F20" stroke="#FFFFFF" stroke-width="5" d="M478.64,227.674c0,2.922-2.369,5.292-5.29,5.292
		c-2.92,0-5.289-2.369-5.289-5.292c0-2.919,2.369-5.288,5.289-5.288C476.271,222.386,478.64,224.755,478.64,227.674z"/>
	<circle display="inline" fill="#231F20" stroke="#FFFFFF" stroke-width="5" cx="734.884" cy="230.809" r="102.359"/>
	<circle display="inline" fill="#231F20" stroke="#FFFFFF" stroke-width="5" cx="734.883" cy="230.809" r="58.49"/>
	<circle display="inline" fill="#231F20" stroke="#FFFFFF" stroke-width="5" cx="734.884" cy="230.809" r="45.198"/>
	<path display="inline" fill="#231F20" stroke="#FFFFFF" stroke-width="5" d="M769.445,230.809c0,19.087-15.473,34.56-34.562,34.56
		c-19.088,0-34.562-15.473-34.562-34.56c0-19.09,15.475-34.563,34.562-34.563C753.973,196.246,769.445,211.719,769.445,230.809z"/>
	<path display="inline" fill="#231F20" stroke="#FFFFFF" stroke-width="5" d="M752.757,230.807c0,9.87-7.999,17.873-17.873,17.873
		c-9.861,0-17.873-8.002-17.873-17.873c0-9.871,8.012-17.87,17.873-17.87C744.758,212.938,752.757,220.936,752.757,230.807z"/>
	<polygon display="inline" fill="#231F20" stroke="#FFFFFF" stroke-width="5" points="700.321,327.178 700.321,341.143 
		712.283,341.143 712.283,330.632 	"/>
	<rect x="742.86" y="333.168" display="inline" fill="#231F20" stroke="#FFFFFF" stroke-width="5" width="7.978" height="7.974"/>
	<path display="inline" fill="#231F20" stroke="#FFFFFF" stroke-width="5" d="M814.72,221.287c0,5.086-4.122,9.209-9.213,9.209
		c-5.086,0-9.21-4.124-9.21-9.209c0-5.091,4.124-9.212,9.21-9.212C810.598,212.074,814.72,216.195,814.72,221.287z"/>
	<path display="inline" fill="#231F20" stroke="#FFFFFF" stroke-width="5" d="M846.808,170.479
		c-7.428,12.08-10.782,12.631-37.404,7.59c-52.631-9.969-141.271-34.048-141.271-34.048c-17.422-8.729-25.715-27.993-16.986-45.414
		l20.389-36.75c8.729-17.422,29.926-24.467,47.348-15.74l121.16,60.707c17.421,8.729,24.465,29.927,15.739,47.348L846.808,170.479z"
		/>
	<g display="inline">
		<path fill="#231F20" stroke="#FFFFFF" stroke-width="5" d="M388.925,224.888c6.499,12.606,9.801,13.408,36.726,10.391
			c53.233-5.969,143.436-23.296,143.436-23.296c18.028-7.389,27.754-25.971,20.365-44.003l-17.558-38.181
			c-7.39-18.031-27.995-26.655-46.029-19.266l-125.39,51.391c-18.029,7.39-26.655,27.998-19.266,46.025L388.925,224.888z"/>
		<circle fill="#231F20" stroke="#FFFFFF" stroke-width="5" cx="547.16" cy="138.892" r="11.888"/>
	</g>
	<path display="inline" fill="#231F20" stroke="#FFFFFF" stroke-width="5" d="M349.614,170.62c-15.663,0-28.359,12.698-28.359,28.36
		v83.194c0,15.662,12.697,28.359,28.359,28.359h38.368V170.62H349.614z"/>
	<path display="inline" fill="#231F20" stroke="#FFFFFF" stroke-width="5" d="M890.077,167.697
		c15.662,0,28.359,12.697,28.359,28.359v83.195c0,15.662-12.697,28.359-28.359,28.359h-38.369V167.697H890.077z"/>
</g>
<g id="electricBlack" display="none">
	
		<rect x="-0.625" y="-2.235" display="inline" fill="#231F20" stroke="#231F20" stroke-width="5" width="1191.175" height="845.278"/>
	<path display="inline" fill="#FFFFFF" stroke="#231F20" stroke-width="5" d="M852.861,482.106c0,11.911-9.797,21.566-21.883,21.566
		h-421.67c-12.083,0-21.881-9.655-21.881-21.566v-386.5c0-11.911,9.798-21.566,21.881-21.566h421.67
		c12.086,0,21.883,9.656,21.883,21.566V482.106z"/>
	
		<rect x="347.202" y="426.803" display="inline" fill="#FFFFFF" stroke="#231F20" stroke-width="5" width="568.049" height="40.298"/>
	
		<rect x="434.359" y="367.103" display="inline" fill="#FFFFFF" stroke="#231F20" stroke-width="5" width="394.376" height="390.737"/>
	
		<rect x="598.095" y="225.501" display="inline" fill="#FFFFFF" stroke="#231F20" stroke-width="5" width="49.024" height="142.098"/>
	
		<rect x="548.449" y="337.93" display="inline" fill="#FFFFFF" stroke="#231F20" stroke-width="5" width="122.171" height="29.173"/>
	<polygon display="inline" fill="#FFFFFF" stroke="#231F20" stroke-width="5" points="709.89,794.907 763.516,794.907 
		763.516,775.017 813.471,775.017 830.648,757.84 686.946,757.84 686.946,794.907 	"/>
	<polygon display="inline" fill="#FFFFFF" stroke="#231F20" stroke-width="5" points="553.207,794.907 499.58,794.907 
		499.58,775.017 449.623,775.017 432.446,757.84 576.147,757.84 576.147,794.907 	"/>
	<path display="inline" fill="#FFFFFF" stroke="#231F20" stroke-width="5" d="M527.853,768.844c59.95,59.95,157.148,59.95,217.097,0
		l12.681-12.68H515.173L527.853,768.844z"/>
	<path display="inline" fill="#FFFFFF" stroke="#231F20" stroke-width="5" d="M519.94,168.284c0,0,190.474,0.674,190.368,4.919
		c-0.106,4.246-35.933,67.449-35.933,67.449s-51.42-33.48-103.19,3.975L519.94,168.284z"/>
	
		<rect x="466.155" y="385.168" display="inline" fill="#231F20" stroke="#231F20" stroke-width="5" width="340.491" height="342.505"/>
	
		<rect x="464.781" y="699.006" display="inline" fill="#FFFFFF" stroke="#231F20" stroke-width="5" width="289.508" height="28.667"/>
	
		<rect x="555.534" y="385.168" display="inline" fill="#FFFFFF" stroke="#231F20" stroke-width="5" width="41.635" height="41.635"/>
	
		<rect x="597.429" y="385.168" display="inline" fill="#FFFFFF" stroke="#231F20" stroke-width="5" width="41.636" height="41.635"/>
	
		<rect x="639.324" y="385.168" display="inline" fill="#FFFFFF" stroke="#231F20" stroke-width="5" width="41.636" height="41.635"/>
	<rect x="681.22" y="385.168" display="inline" fill="#FFFFFF" stroke="#231F20" stroke-width="5" width="41.636" height="41.635"/>
	
		<rect x="723.116" y="385.168" display="inline" fill="#FFFFFF" stroke="#231F20" stroke-width="5" width="41.635" height="41.635"/>
	
		<rect x="765.012" y="385.168" display="inline" fill="#FFFFFF" stroke="#231F20" stroke-width="5" width="41.635" height="41.635"/>
	<circle display="inline" fill="#FFFFFF" stroke="#231F20" stroke-width="5" cx="515.905" cy="225.038" r="54.552"/>
	<circle display="inline" fill="#FFFFFF" stroke="#231F20" stroke-width="5" cx="515.905" cy="225.038" r="31.173"/>
	<circle display="inline" fill="#FFFFFF" stroke="#231F20" stroke-width="5" cx="515.906" cy="225.038" r="24.089"/>
	<circle display="inline" fill="#FFFFFF" stroke="#231F20" stroke-width="5" cx="515.905" cy="225.038" r="18.421"/>
	<circle display="inline" fill="#FFFFFF" stroke="#231F20" stroke-width="5" cx="515.905" cy="225.241" r="4.036"/>
	<polyline display="inline" fill="#FFFFFF" stroke="#231F20" stroke-width="5" points="497.484,276.403 497.484,287.567 
		504.3,287.567 504.3,279.591 	"/>
	<rect x="520.156" y="279.425" display="inline" fill="#FFFFFF" stroke="#231F20" stroke-width="5" width="6.816" height="8.142"/>
	<path display="inline" fill="#FFFFFF" stroke="#231F20" stroke-width="5" d="M478.087,225.575c0,2.936-2.379,5.316-5.314,5.316
		c-2.934,0-5.313-2.38-5.313-5.316c0-2.933,2.379-5.312,5.313-5.312C475.708,220.263,478.087,222.642,478.087,225.575z"/>
	<circle display="inline" fill="#FFFFFF" stroke="#231F20" stroke-width="5" cx="735.503" cy="228.724" r="102.827"/>
	<circle display="inline" fill="#FFFFFF" stroke="#231F20" stroke-width="5" cx="735.503" cy="228.724" r="58.757"/>
	<circle display="inline" fill="#FFFFFF" stroke="#231F20" stroke-width="5" cx="735.503" cy="228.724" r="45.404"/>
	<path display="inline" fill="#FFFFFF" stroke="#231F20" stroke-width="5" d="M770.222,228.724
		c0,19.174-15.544,34.718-34.719,34.718c-19.176,0-34.721-15.544-34.721-34.718c0-19.177,15.545-34.721,34.721-34.721
		C754.678,194.002,770.222,209.546,770.222,228.724z"/>
	<path display="inline" fill="#FFFFFF" stroke="#231F20" stroke-width="5" d="M753.457,228.722c0,9.916-8.035,17.954-17.954,17.954
		c-9.906,0-17.955-8.039-17.955-17.954c0-9.916,8.049-17.952,17.955-17.952C745.422,210.771,753.457,218.806,753.457,228.722z"/>
	<polygon display="inline" fill="#FFFFFF" stroke="#231F20" stroke-width="5" points="700.782,325.533 700.782,339.562 
		712.799,339.562 712.799,329.003 	"/>
	<rect x="743.516" y="331.551" display="inline" fill="#FFFFFF" stroke="#231F20" stroke-width="5" width="8.014" height="8.011"/>
	<path display="inline" fill="#FFFFFF" stroke="#231F20" stroke-width="5" d="M815.703,219.158c0,5.109-4.141,9.251-9.255,9.251
		c-5.109,0-9.251-4.142-9.251-9.251c0-5.114,4.142-9.255,9.251-9.255C811.562,209.903,815.703,214.044,815.703,219.158z"/>
	<path display="inline" fill="#FFFFFF" stroke="#231F20" stroke-width="5" d="M847.938,168.119
		c-7.461,12.135-10.832,12.688-37.575,7.625c-52.872-10.014-141.916-34.204-141.916-34.204
		c-17.501-8.769-25.833-28.121-17.064-45.622l20.481-36.917c8.769-17.501,30.063-24.58,47.564-15.812l121.713,60.984
		c17.501,8.769,24.578,30.063,15.812,47.564L847.938,168.119z"/>
	<g display="inline">
		<path fill="#FFFFFF" stroke="#231F20" stroke-width="5" d="M387.963,222.776c6.528,12.664,9.846,13.469,36.895,10.438
			c53.476-5.997,144.091-23.403,144.091-23.403c18.112-7.423,27.882-26.09,20.458-44.205l-17.639-38.355
			c-7.423-18.113-28.123-26.777-46.239-19.354l-125.963,51.626c-18.111,7.423-26.777,28.125-19.354,46.236L387.963,222.776z"/>
		<circle fill="#FFFFFF" stroke="#231F20" stroke-width="5" cx="546.921" cy="136.387" r="11.942"/>
	</g>
	<path display="inline" fill="#FFFFFF" stroke="#231F20" stroke-width="5" d="M348.472,168.26
		c-15.734,0-28.489,12.755-28.489,28.489v83.575c0,15.734,12.755,28.489,28.489,28.489h38.544V168.26H348.472z"/>
	<path display="inline" fill="#FFFFFF" stroke="#231F20" stroke-width="5" d="M891.405,165.324
		c15.733,0,28.488,12.755,28.488,28.489v83.575c0,15.734-12.755,28.489-28.488,28.489h-38.544V165.324H891.405z"/>
</g>
</svg>
