<?xml version="1.0" encoding="utf-8"?>
<!-- Generator: Adobe Illustrator 15.0.0, SVG Export Plug-In . SVG Version: 6.00 Build 0)  -->
<!DOCTYPE svg PUBLIC "-//W3C//DTD SVG 1.1//EN" "http://www.w3.org/Graphics/SVG/1.1/DTD/svg11.dtd">
<svg version="1.1" xmlns="http://www.w3.org/2000/svg" xmlns:xlink="http://www.w3.org/1999/xlink" x="0px" y="0px" width="1360"
	 height="760" viewBox="0 0 1360 760" enable-background="new 0 0 1360 760" xml:space="preserve">
<g id="giffa26">
    <g>
	<rect fill="#173434" width="1392" height="858"/>
    </g>
	<circle fill="#EAE984" cx="684.428" cy="447.413" r="14.955"/>
</g>
<g id="giffa25">
    <g>
	<rect fill="#173434" width="1392" height="858"/>
    </g>
	<g>
		<circle fill="#F2B1B6" cx="684.428" cy="447.413" r="43.955"/>
		<circle fill="#EAE984" cx="684.428" cy="447.413" r="14.955"/>
	</g>
</g>
<g id="giffa24">
    <g>
	<rect fill="#173434" width="1392" height="858"/>
    </g>
	<circle fill="#1F9C8D" cx="684.428" cy="447.413" r="116.955"/>
	<g>
		<circle fill="#F2B1B6" cx="684.428" cy="447.413" r="43.955"/>
		<circle fill="#EAE984" cx="684.428" cy="447.413" r="14.955"/>
	</g>
	<circle fill="#EAE984" cx="560.883" cy="323.431" r="14.5"/>
</g>
<g id="giffa23">
    <g>
	<rect fill="#173434" width="1392" height="858"/>
    </g>
	<circle fill="#1F9C8D" cx="684.428" cy="447.413" r="116.955"/>
	<g>
		<circle fill="#F2B1B6" cx="684.428" cy="447.413" r="43.955"/>
		<circle fill="#EAE984" cx="684.428" cy="447.413" r="14.955"/>
	</g>
	<circle fill="#EAE984" cx="769.306" cy="527.872" r="73.077"/>
	<circle fill="#CCDDD7" cx="684.428" cy="593.412" r="33.955"/>
	<polygon fill="#EE8F78" stroke="#EE8F78" points="489.952,447.414 629.629,205.486 769.306,447.414 	"/>
	<circle fill="#EAE984" cx="560.883" cy="323.431" r="14.5"/>
</g>
<g id="giffa22">
        <g>
	<rect fill="#173434" width="1392" height="858"/>
    </g>
	<circle fill="#1F9C8D" cx="684.428" cy="447.413" r="116.955"/>
	<g>
		<circle fill="#F2B1B6" cx="684.428" cy="447.413" r="43.955"/>
		<circle fill="#EAE984" cx="684.428" cy="447.413" r="14.955"/>
	</g>
	<polygon fill="#EE8F78" stroke="#EE8F78" points="489.952,447.414 629.629,205.486 769.306,447.414 	"/>
	<circle fill="#EAE984" cx="583.78" cy="386.097" r="73.078"/>
	<circle fill="#1F9C8D" cx="560.883" cy="323.431" r="14.5"/>
	<circle fill="#EAE984" cx="684.428" cy="315.958" r="14.5"/>
	<circle fill="#EAE984" cx="769.306" cy="527.872" r="73.077"/>
	<circle fill="#CCDDD7" cx="684.428" cy="593.412" r="33.955"/>
</g>
<g id="giffa21">
        <g>
	<rect fill="#173434" width="1392" height="858"/>
    </g>
	<circle fill="#EAE984" cx="684.428" cy="447.413" r="175.955"/>
	<circle fill="#1F9C8D" cx="684.428" cy="447.413" r="116.955"/>
	<circle fill="#1F9C8D" cx="837.751" cy="534.19" r="73.077"/>
	<polygon fill="#EE8F78" stroke="#EE8F78" points="760.851,403.287 683.629,537.037 606.407,403.287 	"/>
	<g>
		<circle fill="#F2B1B6" cx="684.428" cy="447.413" r="43.955"/>
		<circle fill="#EAE984" cx="684.428" cy="447.413" r="14.955"/>
	</g>
	<circle fill="#EE8F78" stroke="#EE8F78" cx="814.854" cy="471.524" r="14.5"/>
	<circle fill="#EE8F78" stroke="#EE8F78" cx="684.428" cy="315.958" r="14.5"/>
	<circle fill="#CCDDD7" cx="769.306" cy="527.872" r="73.077"/>
	<circle fill="#CCDDD7" cx="684.428" cy="593.412" r="33.955"/>
</g>
<g id="giffa20">
        <g>
	<rect fill="#173434" width="1392" height="858"/>
    </g>
	<circle fill="#EAE984" cx="684.428" cy="447.413" r="175.955"/>
	<circle fill="#1F9C8D" cx="684.428" cy="447.413" r="116.955"/>
	<circle fill="#EAE984" cx="585.258" cy="516.259" r="73.077"/>
	<polygon fill="#EE8F78" stroke="#EE8F78" points="760.851,403.287 683.629,537.037 606.407,403.287 	"/>
	<g>
		<circle fill="#F2B1B6" cx="684.428" cy="447.413" r="43.955"/>
		<circle fill="#EAE984" cx="684.428" cy="447.413" r="14.955"/>
	</g>
	<circle fill="#EE8F78" stroke="#EE8F78" cx="562.361" cy="453.593" r="14.5"/>
	<circle fill="#EE8F78" stroke="#EE8F78" cx="591.907" cy="540.226" r="14.5"/>
	<circle fill="#CCDDD7" cx="769.306" cy="527.872" r="73.077"/>
	<circle fill="#CCDDD7" cx="684.428" cy="593.412" r="33.955"/>
</g>
<g id="giffa19">
        <g>
	<rect fill="#173434" width="1392" height="858"/>
    </g>
	<circle fill="#EAE984" cx="684.428" cy="447.413" r="175.955"/>
	<circle fill="#1F9C8D" cx="684.428" cy="447.413" r="116.955"/>
	<circle fill="#F2B1B6" cx="585.258" cy="516.259" r="73.077"/>
	<g>
		<circle fill="#F2B1B6" cx="684.428" cy="447.413" r="43.955"/>
		<circle fill="#EAE984" cx="684.428" cy="447.413" r="14.955"/>
	</g>
	<polygon fill="#EE8F78" stroke="#EE8F78" points="812.778,401.217 735.557,534.968 658.335,401.217 	"/>
	<circle fill="#CCDDD7" cx="684.428" cy="637.868" r="14.5"/>
	<circle fill="#EAE984" cx="591.907" cy="540.226" r="14.5"/>
	<circle fill="#CCDDD7" cx="684.428" cy="359.217" r="14.5"/>
	<circle fill="#CCDDD7" cx="769.306" cy="527.872" r="73.077"/>
	<circle fill="#CCDDD7" cx="684.428" cy="593.412" r="33.955"/>
	<polygon fill="#EE8F78" stroke="#EE8F78" points="563.279,447.412 549.557,471.179 535.835,447.412 	"/>
</g>
<g id="giffa18">
        <g>
	<rect fill="#173434" width="1392" height="858"/>
    </g>
	<circle fill="#EAE984" cx="684.428" cy="447.413" r="175.955"/>
	<circle fill="#CCDDD7" cx="769.306" cy="527.872" r="73.077"/>
	<circle fill="#1F9C8D" cx="684.428" cy="317.447" r="116.955"/>
	<circle fill="#F2B1B6" cx="585.258" cy="516.259" r="73.077"/>
	<polygon fill="#EE8F78" stroke="#EE8F78" points="607.206,492.968 684.428,359.217 761.649,492.968 	"/>
	<g>
		<circle fill="#F2B1B6" cx="684.428" cy="447.413" r="43.955"/>
		<circle fill="#EAE984" cx="684.428" cy="447.413" r="14.955"/>
	</g>
	<circle fill="#CCDDD7" cx="684.428" cy="637.868" r="14.5"/>
	<circle fill="#EAE984" cx="591.907" cy="540.226" r="14.5"/>
	<circle fill="#CCDDD7" cx="684.428" cy="359.217" r="14.5"/>
	<circle fill="#CCDDD7" cx="684.428" cy="593.412" r="33.955"/>
	<polygon fill="#1F9C8D" points="563.279,447.412 549.557,471.179 535.835,447.412 	"/>
	<polygon fill="#1F9C8D" points="698.149,598.171 684.428,621.938 670.706,598.171 	"/>
</g>
<g id="giffa17">
        <g>
	<rect fill="#173434" width="1392" height="858"/>
    </g>
	<circle fill="#EAE984" cx="684.428" cy="447.413" r="175.955"/>
	<circle fill="#F2B1B6" cx="585.258" cy="516.259" r="73.077"/>
	<circle fill="#1F9C8D" cx="684.428" cy="344.716" r="116.955"/>
	<polygon fill="#EE8F78" stroke="#EE8F78" points="607.206,492.968 684.428,359.217 761.649,492.968 	"/>
	<g>
		<circle fill="#F2B1B6" cx="684.428" cy="447.413" r="43.955"/>
		<circle fill="#EAE984" cx="684.428" cy="447.413" r="14.955"/>
	</g>
	<circle fill="#CCDDD7" cx="684.428" cy="637.868" r="14.5"/>
	<circle fill="#CCDDD7" cx="591.907" cy="540.226" r="14.5"/>
	<circle fill="#CCDDD7" cx="684.428" cy="359.217" r="14.5"/>
	<circle fill="#CCDDD7" cx="801.383" cy="532.373" r="73.078"/>
	<circle fill="#CCDDD7" cx="684.428" cy="593.412" r="33.955"/>
	<polygon fill="#1F9C8D" points="535.916,447.412 522.194,471.179 508.473,447.412 	"/>
	<polygon fill="#1F9C8D" points="887.826,247.691 874.104,271.458 860.383,247.691 	"/>
	<polygon fill="#1F9C8D" points="698.149,598.171 684.428,621.938 670.706,598.171 	"/>
</g>
<g id="giffa16">
        <g>
	<rect fill="#173434" width="1392" height="858"/>
    </g>
	<g>
		<circle fill="#EAE984" cx="684.428" cy="447.413" r="175.955"/>
		<circle fill="#1F9C8D" cx="684.428" cy="344.716" r="116.955"/>
		<polygon fill="#EE8F78" stroke="#EE8F78" points="607.206,492.968 684.428,359.217 761.649,492.968 		"/>
		<g>
			<circle fill="#F2B1B6" cx="684.428" cy="447.413" r="43.955"/>
			<circle fill="#EAE984" cx="684.428" cy="447.413" r="14.955"/>
		</g>
		<circle fill="#F2B1B6" cx="585.258" cy="516.259" r="73.077"/>
		<circle fill="#CCDDD7" cx="684.428" cy="637.868" r="14.5"/>
		<circle fill="#CCDDD7" cx="591.907" cy="540.226" r="14.5"/>
		<circle fill="#CCDDD7" cx="638.473" cy="540.226" r="14.5"/>
		<circle fill="#CCDDD7" cx="684.428" cy="359.217" r="14.5"/>
		<circle fill="#CCDDD7" cx="838.808" cy="535.445" r="73.078"/>
		<polygon fill="#1F9C8D" points="553.916,447.412 540.194,471.179 526.473,447.412 		"/>
		<polygon fill="#1F9C8D" points="887.826,247.691 874.104,271.458 860.383,247.691 		"/>
		<polygon fill="#1F9C8D" points="698.149,598.171 684.428,621.938 670.706,598.171 		"/>
	</g>
</g>
<g id="giffa15">
        <g>
	<rect fill="#173434" width="1392" height="858"/>
    </g>
	<circle fill="#EAE984" cx="684.428" cy="447.413" r="175.955"/>
	<circle fill="#1F9C8D" cx="684.428" cy="373.716" r="116.955"/>
	<circle fill="#F2B1B6" cx="684.427" cy="447.412" r="73.078"/>
	<polygon fill="#173434" points="607.206,492.968 684.428,359.217 761.649,492.968 	"/>
	<circle fill="#EAE984" cx="684.428" cy="447.413" r="43.955"/>
	<polygon fill="#1F9C8D" points="710.273,425.029 684.428,469.795 658.582,425.029 	"/>
	<circle fill="#F2B1B6" cx="684.428" cy="447.413" r="14.955"/>
	<circle fill="#CCDDD7" cx="684.428" cy="637.868" r="14.5"/>
	<circle fill="#F2B1B6" cx="684.428" cy="540.226" r="14.5"/>
	<circle fill="#CCDDD7" cx="728.383" cy="540.226" r="14.5"/>
	<circle fill="#CCDDD7" cx="684.428" cy="359.217" r="14.5"/>
	<circle fill="#CCDDD7" cx="838.286" cy="532.373" r="73.078"/>
	<circle fill="#F2B1B6" cx="853.525" cy="605.45" r="29.955"/>
	<polygon fill="#1F9C8D" points="553.462,447.412 539.741,471.179 526.019,447.412 	"/>
	<polygon fill="#1F9C8D" points="895.652,245.816 869.807,290.583 843.961,245.816 	"/>
</g>
<g id="giffa14">
        <g>
	<rect fill="#173434" width="1392" height="858"/>
    </g>
	<circle fill="#EAE984" cx="684.428" cy="447.413" r="175.955"/>
	<circle fill="#F2B1B6" cx="685.232" cy="425.029" r="119.151"/>
	<circle fill="#1F9C8D" cx="684.428" cy="373.716" r="116.955"/>
	<circle fill="#EAE984" cx="684.427" cy="447.412" r="73.078"/>
	<polygon fill="#EE8F78" stroke="#EE8F78" points="607.206,492.968 684.428,359.217 761.649,492.968 	"/>
	<circle fill="#CCDDD7" cx="684.428" cy="447.413" r="43.955"/>
	<polygon fill="#1F9C8D" points="710.273,425.029 684.428,469.795 658.582,425.029 	"/>
	<circle fill="#F2B1B6" cx="684.428" cy="426.092" r="14.955"/>
	<circle fill="#CCDDD7" cx="684.428" cy="652.368" r="14.5"/>
	<circle fill="#1F9C8D" cx="684.428" cy="520.489" r="14.5"/>
	<circle fill="#CCDDD7" cx="684.428" cy="359.217" r="14.5"/>
	<circle fill="#CCDDD7" cx="801.382" cy="534.989" r="73.078"/>
	<circle fill="#F2B1B6" cx="853.525" cy="605.45" r="29.955"/>
	<polygon fill="#1F9C8D" points="553.462,447.412 539.741,471.179 526.019,447.412 	"/>
	<polygon fill="#CCDDD7" points="648.383,361.833 634.66,385.6 620.939,361.833 	"/>
	<polygon fill="#1F9C8D" points="886.152,259.832 869.807,288.144 853.461,259.832 	"/>
	<polygon fill="#F2B1B6" points="718.883,286.53 685.232,344.814 651.581,286.53 	"/>
	<circle fill="#1F9C8D" cx="728.383" cy="540.226" r="14.5"/>
</g>
<g id="giffa13">
        <g>
	<rect fill="#173434" width="1392" height="858"/>
    </g>
	<circle fill="#EAE984" cx="684.428" cy="447.413" r="175.955"/>
	<circle fill="#F2B1B6" cx="684.383" cy="519.912" r="116.5"/>
	<circle fill="none" stroke="#EC008C" cx="684.428" cy="426.092" r="14.955"/>
	<circle fill="none" stroke="#EC008C" cx="684.428" cy="447.413" r="43.955"/>
	<circle fill="#1F9C8D" cx="684.428" cy="373.716" r="116.955"/>
	<circle fill="#EAE984" cx="684.427" cy="447.367" r="91.151"/>
	<circle fill="#CCDDD7" cx="685.232" cy="578.86" r="73.078"/>
	<circle fill="#F2B1B6" cx="684.428" cy="652.368" r="14.5"/>
	<circle fill="#F2B1B6" cx="698.928" cy="564.36" r="14.5"/>
	<circle fill="#CCDDD7" cx="855.743" cy="447.412" r="73.078"/>
	<circle fill="#CCDDD7" cx="512.847" cy="447.414" r="73.077"/>
	<circle fill="#1F9C8D" cx="684.427" cy="447.412" r="73.078"/>
	<polygon fill="#EE8F78" stroke="#EE8F78" points="607.206,492.968 684.428,359.217 761.649,492.968 	"/>
	<circle fill="#1F9C8D" cx="853.525" cy="605.45" r="29.955"/>
	<polygon fill="#1F9C8D" points="508.473,441.047 494.751,464.814 481.029,441.047 	"/>
	<polygon fill="#F2B1B6" points="648.383,361.833 634.66,385.6 620.939,361.833 	"/>
	<polygon fill="#1F9C8D" points="886.152,259.832 869.807,288.144 853.461,259.832 	"/>
	<polygon fill="#EAE984" points="710.273,425.029 684.428,469.795 658.582,425.029 	"/>
	<polygon fill="#F2B1B6" points="718.883,286.53 685.232,344.814 651.581,286.53 	"/>
	<circle fill="#CCDDD7" cx="684.428" cy="359.217" r="14.5"/>
	<circle fill="#F2B1B6" cx="684.428" cy="520.489" r="14.5"/>
</g>
<g id="giffa12">
        <g>
	<rect fill="#173434" width="1392" height="858"/>
    </g>
	<circle fill="#EAE984" cx="684.428" cy="447.413" r="175.955"/>
	<circle fill="#F2B1B6" cx="685.232" cy="425.029" r="119.151"/>
	<circle fill="#1F9C8D" cx="684.428" cy="373.716" r="116.955"/>
	<circle fill="#EAE984" cx="684.427" cy="447.412" r="73.078"/>
	<polygon fill="#EE8F78" stroke="#EE8F78" points="607.206,492.968 684.428,359.217 761.649,492.968 	"/>
	<circle fill="#CCDDD7" cx="684.428" cy="447.413" r="43.955"/>
	<polygon fill="#1F9C8D" points="710.273,425.029 684.428,469.795 658.582,425.029 	"/>
	<circle fill="#F2B1B6" cx="684.428" cy="426.092" r="14.955"/>
	<circle fill="#CCDDD7" cx="684.428" cy="652.368" r="14.5"/>
	<circle fill="#1F9C8D" cx="684.428" cy="520.489" r="14.5"/>
	<circle fill="#CCDDD7" cx="684.428" cy="359.217" r="14.5"/>
	<circle fill="#CCDDD7" cx="801.382" cy="534.989" r="73.078"/>
	<circle fill="#F2B1B6" cx="853.525" cy="605.45" r="29.955"/>
	<polygon fill="#1F9C8D" points="553.462,447.412 539.741,471.179 526.019,447.412 	"/>
	<polygon fill="#CCDDD7" points="648.383,361.833 634.66,385.6 620.939,361.833 	"/>
	<polygon fill="#1F9C8D" points="886.152,259.832 869.807,288.144 853.461,259.832 	"/>
	<polygon fill="#F2B1B6" points="718.883,286.53 685.232,344.814 651.581,286.53 	"/>
	<circle fill="#1F9C8D" cx="728.383" cy="540.226" r="14.5"/>
</g>
<g id="giffa11">
        <g>
	<rect fill="#173434" width="1392" height="858"/>
    </g>
	<circle fill="#EAE984" cx="684.428" cy="447.413" r="175.955"/>
	<circle fill="#1F9C8D" cx="684.428" cy="373.716" r="116.955"/>
	<circle fill="#F2B1B6" cx="684.427" cy="447.412" r="73.078"/>
	<polygon fill="#173434" points="607.206,492.968 684.428,359.217 761.649,492.968 	"/>
	<circle fill="#EAE984" cx="684.428" cy="447.413" r="43.955"/>
	<polygon fill="#1F9C8D" points="710.273,425.029 684.428,469.795 658.582,425.029 	"/>
	<circle fill="#F2B1B6" cx="684.428" cy="447.413" r="14.955"/>
	<circle fill="#CCDDD7" cx="684.428" cy="637.868" r="14.5"/>
	<circle fill="#F2B1B6" cx="684.428" cy="540.226" r="14.5"/>
	<circle fill="#CCDDD7" cx="728.383" cy="540.226" r="14.5"/>
	<circle fill="#CCDDD7" cx="684.428" cy="359.217" r="14.5"/>
	<circle fill="#CCDDD7" cx="838.286" cy="532.373" r="73.078"/>
	<circle fill="#F2B1B6" cx="853.525" cy="605.45" r="29.955"/>
	<polygon fill="#1F9C8D" points="553.462,447.412 539.741,471.179 526.019,447.412 	"/>
	<polygon fill="#1F9C8D" points="895.652,245.816 869.807,290.583 843.961,245.816 	"/>
</g>
<g id="giffa10">
        <g>
	<rect fill="#173434" width="1392" height="858"/>
    </g>
	<circle fill="#EAE984" cx="684.428" cy="447.413" r="175.955"/>
	<circle fill="#1F9C8D" cx="684.428" cy="344.716" r="116.955"/>
	<polygon fill="#EE8F78" stroke="#EE8F78" points="607.206,492.968 684.428,359.217 761.649,492.968 	"/>
	<g>
		<circle fill="#F2B1B6" cx="684.428" cy="447.413" r="43.955"/>
		<circle fill="#EAE984" cx="684.428" cy="447.413" r="14.955"/>
	</g>
	<circle fill="#F2B1B6" cx="585.258" cy="516.259" r="73.077"/>
	<circle fill="#CCDDD7" cx="684.428" cy="637.868" r="14.5"/>
	<circle fill="#CCDDD7" cx="591.907" cy="540.226" r="14.5"/>
	<circle fill="#CCDDD7" cx="638.473" cy="540.226" r="14.5"/>
	<circle fill="#CCDDD7" cx="684.428" cy="359.217" r="14.5"/>
	<circle fill="#CCDDD7" cx="838.808" cy="535.445" r="73.078"/>
	<polygon fill="#1F9C8D" points="553.916,447.412 540.194,471.179 526.473,447.412 	"/>
	<polygon fill="#1F9C8D" points="887.826,247.691 874.104,271.458 860.383,247.691 	"/>
	<polygon fill="#1F9C8D" points="698.149,598.171 684.428,621.938 670.706,598.171 	"/>
</g>
<g id="giffa9">
        <g>
	<rect fill="#173434" width="1392" height="858"/>
    </g>
	<circle fill="#EAE984" cx="684.428" cy="447.413" r="175.955"/>
	<circle fill="#F2B1B6" cx="585.258" cy="516.259" r="73.077"/>
	<circle fill="#1F9C8D" cx="684.428" cy="344.716" r="116.955"/>
	<polygon fill="#EE8F78" stroke="#EE8F78" points="607.206,492.968 684.428,359.217 761.649,492.968 	"/>
	<g>
		<circle fill="#F2B1B6" cx="684.428" cy="447.413" r="43.955"/>
		<circle fill="#EAE984" cx="684.428" cy="447.413" r="14.955"/>
	</g>
	<circle fill="#CCDDD7" cx="684.428" cy="637.868" r="14.5"/>
	<circle fill="#CCDDD7" cx="591.907" cy="540.226" r="14.5"/>
	<circle fill="#CCDDD7" cx="684.428" cy="359.217" r="14.5"/>
	<circle fill="#CCDDD7" cx="801.383" cy="532.373" r="73.078"/>
	<circle fill="#CCDDD7" cx="684.428" cy="593.412" r="33.955"/>
	<polygon fill="#1F9C8D" points="535.916,447.412 522.194,471.179 508.473,447.412 	"/>
	<polygon fill="#1F9C8D" points="887.826,247.691 874.104,271.458 860.383,247.691 	"/>
	<polygon fill="#1F9C8D" points="698.149,598.171 684.428,621.938 670.706,598.171 	"/>
</g>
<g id="giffa8">
        <g>
	<rect fill="#173434" width="1392" height="858"/>
    </g>
	<circle fill="#EAE984" cx="684.428" cy="447.413" r="175.955"/>
	<circle fill="#CCDDD7" cx="769.306" cy="527.872" r="73.077"/>
	<circle fill="#1F9C8D" cx="684.428" cy="317.447" r="116.955"/>
	<circle fill="#F2B1B6" cx="585.258" cy="516.259" r="73.077"/>
	<polygon fill="#EE8F78" stroke="#EE8F78" points="607.206,492.968 684.428,359.217 761.649,492.968 	"/>
	<g>
		<circle fill="#F2B1B6" cx="684.428" cy="447.413" r="43.955"/>
		<circle fill="#EAE984" cx="684.428" cy="447.413" r="14.955"/>
	</g>
	<circle fill="#CCDDD7" cx="684.428" cy="637.868" r="14.5"/>
	<circle fill="#EAE984" cx="591.907" cy="540.226" r="14.5"/>
	<circle fill="#CCDDD7" cx="684.428" cy="359.217" r="14.5"/>
	<circle fill="#CCDDD7" cx="684.428" cy="593.412" r="33.955"/>
	<polygon fill="#1F9C8D" points="563.279,447.412 549.557,471.179 535.835,447.412 	"/>
	<polygon fill="#1F9C8D" points="698.149,598.171 684.428,621.938 670.706,598.171 	"/>
</g>
<g id="giffa7">
        <g>
	<rect fill="#173434" width="1392" height="858"/>
    </g>
	<circle fill="#EAE984" cx="684.428" cy="447.413" r="175.955"/>
	<circle fill="#1F9C8D" cx="684.428" cy="447.413" r="116.955"/>
	<circle fill="#F2B1B6" cx="585.258" cy="516.259" r="73.077"/>
	<g>
		<circle fill="#F2B1B6" cx="684.428" cy="447.413" r="43.955"/>
		<circle fill="#EAE984" cx="684.428" cy="447.413" r="14.955"/>
	</g>
	<polygon fill="#EE8F78" stroke="#EE8F78" points="812.778,401.217 735.557,534.968 658.335,401.217 	"/>
	<circle fill="#CCDDD7" cx="684.428" cy="637.868" r="14.5"/>
	<circle fill="#EAE984" cx="591.907" cy="540.226" r="14.5"/>
	<circle fill="#CCDDD7" cx="684.428" cy="359.217" r="14.5"/>
	<circle fill="#CCDDD7" cx="769.306" cy="527.872" r="73.077"/>
	<circle fill="#CCDDD7" cx="684.428" cy="593.412" r="33.955"/>
	<polygon fill="#EE8F78" stroke="#EE8F78" points="563.279,447.412 549.557,471.179 535.835,447.412 	"/>
</g>
<g id="giffa6">
        <g>
	<rect fill="#173434" width="1392" height="858"/>
    </g>
	<circle fill="#EAE984" cx="684.428" cy="447.413" r="175.955"/>
	<circle fill="#1F9C8D" cx="684.428" cy="447.413" r="116.955"/>
	<circle fill="#EAE984" cx="585.258" cy="516.259" r="73.077"/>
	<polygon fill="#EE8F78" stroke="#EE8F78" points="760.851,403.287 683.629,537.037 606.407,403.287 	"/>
	<g>
		<circle fill="#F2B1B6" cx="684.428" cy="447.413" r="43.955"/>
		<circle fill="#EAE984" cx="684.428" cy="447.413" r="14.955"/>
	</g>
	<circle fill="#EE8F78" stroke="#EE8F78" cx="562.361" cy="453.593" r="14.5"/>
	<circle fill="#EE8F78" stroke="#EE8F78" cx="591.907" cy="540.226" r="14.5"/>
	<circle fill="#CCDDD7" cx="769.306" cy="527.872" r="73.077"/>
	<circle fill="#CCDDD7" cx="684.428" cy="593.412" r="33.955"/>
</g>
<g id="giffa5">
        <g>
	<rect fill="#173434" width="1392" height="858"/>
    </g>
	<circle fill="#EAE984" cx="684.428" cy="447.413" r="175.955"/>
	<circle fill="#1F9C8D" cx="684.428" cy="447.413" r="116.955"/>
	<circle fill="#1F9C8D" cx="837.751" cy="534.19" r="73.077"/>
	<polygon fill="#EE8F78" stroke="#EE8F78" points="760.851,403.287 683.629,537.037 606.407,403.287 	"/>
	<g>
		<circle fill="#F2B1B6" cx="684.428" cy="447.413" r="43.955"/>
		<circle fill="#EAE984" cx="684.428" cy="447.413" r="14.955"/>
	</g>
	<circle fill="#EE8F78" stroke="#EE8F78" cx="814.854" cy="471.524" r="14.5"/>
	<circle fill="#EE8F78" stroke="#EE8F78" cx="684.428" cy="315.958" r="14.5"/>
	<circle fill="#CCDDD7" cx="769.306" cy="527.872" r="73.077"/>
	<circle fill="#CCDDD7" cx="684.428" cy="593.412" r="33.955"/>
</g>
<g id="giffa4">
        <g>
	<rect fill="#173434" width="1392" height="858"/>
    </g>
	<circle fill="#1F9C8D" cx="684.428" cy="447.413" r="116.955"/>
	<g>
		<circle fill="#F2B1B6" cx="684.428" cy="447.413" r="43.955"/>
		<circle fill="#EAE984" cx="684.428" cy="447.413" r="14.955"/>
	</g>
	<polygon fill="#EE8F78" stroke="#EE8F78" points="489.952,447.414 629.629,205.486 769.306,447.414 	"/>
	<circle fill="#EAE984" cx="583.78" cy="386.097" r="73.078"/>
	<circle fill="#1F9C8D" cx="560.883" cy="323.431" r="14.5"/>
	<circle fill="#EAE984" cx="684.428" cy="315.958" r="14.5"/>
	<circle fill="#EAE984" cx="769.306" cy="527.872" r="73.077"/>
	<circle fill="#CCDDD7" cx="684.428" cy="593.412" r="33.955"/>
</g>
<g id="giffa3">
        <g>
	<rect fill="#173434" width="1392" height="858"/>
    </g>
	<circle fill="#1F9C8D" cx="684.428" cy="447.413" r="116.955"/>
	<g>
		<circle fill="#F2B1B6" cx="684.428" cy="447.413" r="43.955"/>
		<circle fill="#EAE984" cx="684.428" cy="447.413" r="14.955"/>
	</g>
	<circle fill="#EAE984" cx="769.306" cy="527.872" r="73.077"/>
	<circle fill="#CCDDD7" cx="684.428" cy="593.412" r="33.955"/>
	<polygon fill="#EE8F78" stroke="#EE8F78" points="489.952,447.414 629.629,205.486 769.306,447.414 	"/>
	<circle fill="#EAE984" cx="560.883" cy="323.431" r="14.5"/>
</g>
<g id="giffa2">
        <g>
	<rect fill="#173434" width="1392" height="858"/>
    </g>
	<circle fill="#1F9C8D" cx="684.428" cy="447.413" r="116.955"/>
	<g>
		<circle fill="#F2B1B6" cx="684.428" cy="447.413" r="43.955"/>
		<circle fill="#EAE984" cx="684.428" cy="447.413" r="14.955"/>
	</g>
	<circle fill="#EAE984" cx="560.883" cy="323.431" r="14.5"/>
</g>
<g id="giffa1">
        <g>
	<rect fill="#173434" width="1392" height="858"/>
    </g>
	<g>
		<circle fill="#F2B1B6" cx="684.428" cy="447.413" r="43.955"/>
		<circle fill="#EAE984" cx="684.428" cy="447.413" r="14.955"/>
	</g>
</g>

        <animate id="giffaGif1" attributeName="display" attributeType="CSS" to="none"
									begin="0; giffaGif46.end" dur="0.125" fill="freeze" xlink:href="#giffa1" />
		<animate id="giffaGif2" attributeName="display" attributeType="CSS" to="none"
									begin="giffaGif1.end" dur="0.125" fill="freeze" xlink:href="#giffa2" />
		<animate id="giffaGif3" attributeName="display" attributeType="CSS" to="none"
									begin="giffaGif2.end" dur="0.125" fill="freeze" xlink:href="#giffa3" />
		<animate id="giffaGif4" attributeName="display" attributeType="CSS" to="none"
									begin="giffaGif3.end" dur="0.125" fill="freeze" xlink:href="#giffa4" />
		<animate id="giffaGif5" attributeName="display" attributeType="CSS" to="none"
									begin="giffaGif4.end" dur="0.125" fill="freeze" xlink:href="#giffa5" />
		<animate id="giffaGif6" attributeName="display" attributeType="CSS" to="none"
									begin="giffaGif5.end" dur="0.125" fill="freeze" xlink:href="#giffa6" />
		<animate id="giffaGif7" attributeName="display" attributeType="CSS" to="none"
									begin="giffaGif6.end" dur="0.125" fill="freeze" xlink:href="#giffa7" />
		<animate id="giffaGif8" attributeName="display" attributeType="CSS" to="none"
									begin="giffaGif7.end" dur="0.125" fill="freeze" xlink:href="#giffa8" />
		<animate id="giffaGif9" attributeName="display" attributeType="CSS" to="none"
									begin="giffaGif8.end" dur="0.125" fill="freeze" xlink:href="#giffa9" />
		<animate id="giffaGif10" attributeName="display" attributeType="CSS" to="none"
									begin="giffaGif9.end" dur="0.125" fill="freeze" xlink:href="#giffa10" />
		<animate id="giffaGif11" attributeName="display" attributeType="CSS" to="none"
									begin="giffaGif10.end" dur="0.125" fill="freeze" xlink:href="#giffa11" />
		<animate id="giffaGif12" attributeName="display" attributeType="CSS" to="none"
									begin="giffaGif11.end" dur="0.125" fill="freeze" xlink:href="#giffa12" />
		<animate id="giffaGif13" attributeName="display" attributeType="CSS" to="none"
									begin="giffaGif12.end" dur="0.125" fill="freeze" xlink:href="#giffa13" />
		<animate id="giffaGif14" attributeName="display" attributeType="CSS" to="none"
									begin="giffaGif13.end" dur="0.125" fill="freeze" xlink:href="#giffa14" />
		<animate id="giffaGif15" attributeName="display" attributeType="CSS" to="none"
									begin="giffaGif14.end" dur="0.125" fill="freeze" xlink:href="#giffa15" />
		<animate id="giffaGif16" attributeName="display" attributeType="CSS" to="none"
									begin="giffaGif15.end" dur="0.125" fill="freeze" xlink:href="#giffa16" />
		<animate id="giffaGif17" attributeName="display" attributeType="CSS" to="none"
									begin="giffaGif16.end" dur="0.125" fill="freeze" xlink:href="#giffa17" />
		<animate id="giffaGif18" attributeName="display" attributeType="CSS" to="none"
									begin="giffaGif17.end" dur="0.125" fill="freeze" xlink:href="#giffa18" />
		<animate id="giffaGif19" attributeName="display" attributeType="CSS" to="none"
									begin="giffaGif18.end" dur="0.125" fill="freeze" xlink:href="#giffa19" />
		<animate id="giffaGif20" attributeName="display" attributeType="CSS" to="none"
									begin="giffaGif19.end" dur="0.125" fill="freeze" xlink:href="#giffa20" />
		<animate id="giffaGif21" attributeName="display" attributeType="CSS" to="none"
									begin="giffaGif20.end" dur="0.125" fill="freeze" xlink:href="#giffa21" />
		<animate id="giffaGif22" attributeName="display" attributeType="CSS" to="none"
									begin="giffaGif21.end" dur="0.125" fill="freeze" xlink:href="#giffa22" />
		<animate id="giffaGif23" attributeName="display" attributeType="CSS" to="none"
									begin="giffaGif22.end" dur="0.125" fill="freeze" xlink:href="#giffa23" />
		<animate id="giffaGifA" attributeName="display" attributeType="CSS" to="none"
									begin="giffaGif23.end" dur="0.125" fill="freeze" xlink:href="#giffa24" />
    		<animate id="giffaGifB" attributeName="display" attributeType="CSS" to="none"
									begin="giffaGifA.end" dur="0.125" fill="freeze" xlink:href="#giffa25" />

        <animate id="giffaGifC" attributeName="display" attributeType="CSS" to="block"
									begin="giffaGifB.end" dur="0.125" fill="freeze" xlink:href="#giffa25" />
        <animate id="giffaGifD" attributeName="display" attributeType="CSS" to="block"
									begin="giffaGifB.end" dur="0.125" fill="freeze" xlink:href="#giffa24" />
        <animate id="giffaGif24" attributeName="display" attributeType="CSS" to="block"
									begin="giffaGifB.end" dur="0.125" fill="freeze" xlink:href="#giffa23" />
		<animate id="giffaGif25" attributeName="display" attributeType="CSS" to="block"
									begin="giffaGifB.end" dur="0.125" fill="freeze" xlink:href="#giffa22" />
		<animate id="giffaGif26" attributeName="display" attributeType="CSS" to="block"
									begin="giffaGifB.end" dur="0.125" fill="freeze" xlink:href="#giffa21" />
		<animate id="giffaGif27" attributeName="display" attributeType="CSS" to="block"
									begin="giffaGifB.end" dur="0.125" fill="freeze" xlink:href="#giffa20" />
		<animate id="giffaGif28" attributeName="display" attributeType="CSS" to="block"
									begin="giffaGifB.end" dur="0.125" fill="freeze" xlink:href="#giffa19" />
		<animate id="giffaGif29" attributeName="display" attributeType="CSS" to="block"
									begin="giffaGifB.end" dur="0.125" fill="freeze" xlink:href="#giffa18" />
		<animate id="giffaGif30" attributeName="display" attributeType="CSS" to="block"
									begin="giffaGifB.end" dur="0.125" fill="freeze" xlink:href="#giffa17" />
		<animate id="giffaGif31" attributeName="display" attributeType="CSS" to="block"
									begin="giffaGifB.end" dur="0.125" fill="freeze" xlink:href="#giffa16" />
		<animate id="giffaGif32" attributeName="display" attributeType="CSS" to="block"
									begin="giffaGifB.end" dur="0.125" fill="freeze" xlink:href="#giffa15" />
		<animate id="giffaGif33" attributeName="display" attributeType="CSS" to="block"
									begin="giffaGifB.end" dur="0.125" fill="freeze" xlink:href="#giffa14" />
		<animate id="giffaGif34" attributeName="display" attributeType="CSS" to="block"
									begin="giffaGifB.end" dur="0.125" fill="freeze" xlink:href="#giffa13" />
		<animate id="giffaGif35" attributeName="display" attributeType="CSS" to="block"
									begin="giffaGifB.end" dur="0.125" fill="freeze" xlink:href="#giffa12" />
		<animate id="giffaGif36" attributeName="display" attributeType="CSS" to="block"
									begin="giffaGifB.end" dur="0.125" fill="freeze" xlink:href="#giffa11" />
		<animate id="giffaGif37" attributeName="display" attributeType="CSS" to="block"
									begin="giffaGifB.end" dur="0.125" fill="freeze" xlink:href="#giffa10" />
		<animate id="giffaGif38" attributeName="display" attributeType="CSS" to="block"
									begin="giffaGifB.end" dur="0.125" fill="freeze" xlink:href="#giffa9" />
		<animate id="giffaGif39" attributeName="display" attributeType="CSS" to="block"
									begin="giffaGifB.end" dur="0.125" fill="freeze" xlink:href="#giffa8" />
		<animate id="giffaGif40" attributeName="display" attributeType="CSS" to="block"
									begin="giffaGifB.end" dur="0.125" fill="freeze" xlink:href="#giffa7" />
		<animate id="giffaGif41" attributeName="display" attributeType="CSS" to="block"
									begin="giffaGifB.end" dur="0.125" fill="freeze" xlink:href="#giffa6" />
		<animate id="giffaGif42" attributeName="display" attributeType="CSS" to="block"
									begin="giffaGifB.end" dur="0.125" fill="freeze" xlink:href="#giffa5" />
		<animate id="giffaGif43" attributeName="display" attributeType="CSS" to="block"
									begin="giffaGifB.end" dur="0.125" fill="freeze" xlink:href="#giffa4" />
		<animate id="giffaGif44" attributeName="display" attributeType="CSS" to="block"
									begin="giffaGifB.end" dur="0.125" fill="freeze" xlink:href="#giffa3" />
		<animate id="giffaGif45" attributeName="display" attributeType="CSS" to="block"
									begin="giffaGifB.end" dur="0.125" fill="freeze" xlink:href="#giffa2" />
		<animate id="giffaGif46" attributeName="display" attributeType="CSS" to="block"
									begin="giffaGifB.end" dur="0.125" fill="freeze" xlink:href="#giffa1" />

</svg>
